<?xml version="1.0" encoding="UTF-8" standalone="no"?>
<svg height="723.75" preserveAspectRatio="xMidYMid meet" viewBox="0 0 579 579" width="723.75" xmlns="http://www.w3.org/2000/svg">
<path d="m147.65941,148.01233-141.65941,141.6594 141.66886,141.66886 141.65941,141.65941 141.68775-141.68776 141.68776-141.68775-141.64051-141.64051c-77.89756-77.89756-141.65941-141.64051-141.68776-141.64051s-63.79965,63.7524-141.7161,141.66886zm260.96248,22.41302 119.19914,119.19914-119.25583,119.25583-119.24638,119.24638-119.18969-119.25583-119.18969-119.25583 119.19914-119.19913c65.55716-65.55717 119.20858-119.18969 119.23693-119.18969s53.68922,53.64197 119.24638,119.19913z" fill="#f00"/>
<path d="m314.62324,137.46724c-.04725.14174-9.07104,25.88081-20.05078,57.1948s-19.99408,56.96802-20.03188,57.01527c-.11339.11338-.89765-.17954-.88821-.33072 .00945-.10394 23.47132-73.06912 23.70755-73.71165 .02834-.07559-.67088-.54804-2.09768-1.39845-2.12603-1.26617-2.3906-1.4079-2.3906-1.25672 0,.13229-19.53108,76.28178-19.56888,76.31958-.0189.02834-.54804-.10394-1.17167-.28347-1.49295-.42521-4.02528-.93546-5.6694-1.14333-1.84256-.22678-6.03792-.22678-7.70094.00945-7.76708,1.08663-14.06956,4.28984-19.55943,9.94034-3.85519,3.96858-6.92612,9.11829-8.55134,14.35303-.19843.62364-.38741,1.17168-.42521,1.20948s-3.03313-2.16382-6.66154-4.89459-6.6143-4.95127-6.6332-4.92292c-.0189.01889.33071.78426.78426,1.69137l.83152,1.65357 5.69774,3.80795c5.50877,3.69456 5.6883,3.82684 5.64106,4.07252-.04725.23622.13228.463 1.71971,2.17327 .97325,1.05829 2.04099,2.20161 2.3717,2.55123l.61419.64253 1.68192-.10394 1.68192-.10394 3.15597,2.09768c1.72917,1.14333 3.02368,1.97484 2.86305,1.84255-.15119-.13228-1.39846-1.07718-2.76856-2.10712-1.36066-1.02049-2.42839-1.8709-2.36225-1.88035s2.24886-.13229 4.84734-.27402l4.7245-.25513 6.82217,3.42054c3.76071,1.8709 6.85053,3.41109 6.87888,3.41109s1.74806-2.05043 3.83629-4.56387l3.92133-4.69615c.10394-.12284-.16063-.83151-1.61577-4.39379-.95435-2.3339-1.72917-4.26149-1.71027-4.28039 .01889-.00945 2.40004.23622 5.30089.54804s5.29144.54804 5.32923.51969c.02835-.03779.40631-1.47404.82206-3.19376l.76537-3.13707 2.3528-.02834c1.29452-.00945 2.73077.00945 3.19377.04724l.85041.07559-8.06,8.78757c-4.44103,4.82844-8.15449,8.89151-8.25843,9.0238-.35906.4252 2.84415-2.77801 10.32776-10.34666l7.37967-7.46471 2.74021-.04724 2.74021-.04725-.49135-.70867c-.27402-.38741-.78427-1.06774-1.14333-1.50239s-.63308-.82206-.62363-.85986c.0189-.0378 1.03939-1.09608 2.26776-2.36225l2.23941-2.28666 .24568.53859c.13228.30237.23622.58584.23622.63309 0,.15118.11339.10394 3.86464-1.62523 1.93705-.88821 3.56227-1.58743 3.60007-1.54019 .0378.0378.39686,1.24727.80316,2.67407 .39686,1.4268.76537,2.63627.80317,2.67407 .06614.07559 11.48998-9.13719 11.8207-9.53404 .07559-.10394 1.50239-2.69297 3.15597-5.75445 1.65357-3.07092 3.10872-5.76389 3.241-5.99066s.19843-.39686.13229-.37796c-.0567.0189-2.4095,1.94649-5.2253,4.2804l-5.13081,4.2426-3.68511.08504c-2.03153.04724-3.82684.07559-3.98747.05669-.27402-.02835 1.75751-2.08823 34.37546-35.01799 19.05863-19.23817 34.65893-35.018 34.65893-35.05579s-.88821-.9638-1.98429-2.05044c-1.8709-1.8709-1.99374-1.97484-2.14492-1.8142-.08504.08504-15.94047,17.34836-35.22587,38.35349l-35.0558,38.2023-2.778,1.95595c-1.52129,1.06773-2.8158,1.99374-2.8725,2.05043-.06614.06614 0,.31182.21733.80317 .26457.62363.29292.73702.17953.87875-.10394.13229-3.75125,4.14811-4.45048,4.89458-.17008.17954-.17953.17009-1.00159-.62363-1.59688-1.57798-3.09927-2.7969-4.94183-4.05362l-.9071-.62363 17.36726-29.8494c13.70105-23.53745 17.34836-29.87773 17.25387-29.96277-.05669-.06615-.95435-.62364-1.97484-1.24727l-1.8709-1.13388-.32127.57639c-.17008.32126-7.20958,14.22074-15.64754,30.88878-8.70253,17.21608-15.38297,30.31239-15.45856,30.31239-.09449,0-.08504-.11339.04724-.5008 .10394-.26457 9.32616-25.9753 20.50433-57.12865 11.18762-31.15335 20.31535-56.68455 20.29645-56.74125-.03779-.08504-6.82217-3.241-7.5403-3.50558-.11339-.03779-.17953.0189-.25512.20788z"/>
<path d="m279.35957,183.30434-.9638,2.44729-1.852-.73702c-1.02994-.40631-1.8898-.70867-1.91815-.67088s-.463,2.08823-.97325,4.55442c-.50079,2.46619-.93545,4.55442-.96379,4.63946-.02835.11339.4063.35906 1.91814,1.06774 1.08664.51024 1.99374.95434 2.04099.99214 .03779.0378.51024,1.70082 1.05829,3.69456 .53859,1.98429 1.00159,3.62842 1.02049,3.64731s.79371-1.07718 1.72916-2.44729c1.77642-2.59847 1.75752-2.57957 7.36078-8.66473l.30236-.33072-1.61578-5.24419-1.62522-5.2442-.70868-.05669c-.38741-.0378-1.4079-.06614-2.27721-.07559l-1.56853-.00945-.9638,2.43784z"/>
<path d="m409.0471,204.41341c-.29292.97324-3.28826,10.24271-3.32605,10.28051-.0189.02835-2.05044.13229-4.50718.24567l-4.46937.19843-1.26617.97325-1.29451.99214c-.02835.02835-1.23782,7.64425-1.21892,7.67259 .03779.02835 6.98281,3.99693 7.01116,3.99693 .01889,0 1.27561-1.34176 2.7969-2.97644 1.53074-1.63467 2.7969-2.97643 2.82525-2.96698 .02835,0 2.53233,1.69137 5.57491,3.7607l5.52767,3.7607 .02834-1.37955c.00945-.75592-.00945-3.82685-.06614-6.81273l-.08504-5.43318-3.66621-6.26468c-2.02209-3.43944-3.70401-6.25524-3.74181-6.25524s-.09449.09449-.12283.20788z"/>
<path d="m317.7792,208.89223-.84096.90711-.8882-.88821-.88821-.87876-.18898.22678c-.09449.12284-.67088.926-1.28506,1.78586l-1.09609,1.55909-.69922,3.50558c-.37796,1.92759-.68978,3.59062-.68978,3.69455 .00945.13229.79372.86931 2.46619,2.31501 1.36066,1.17168 2.50398,2.12602 2.56068,2.12602 .04724,0 .8882-.97324 1.86145-2.15437l1.77641-2.16382 .40631-1.94649c.21733-1.06774.4441-2.20162.5008-2.51344l.09449-.57639-1.06774-2.88194c-.58584-1.58743-1.09608-2.91029-1.12443-2.94809-.0378-.03779-.43465.34017-.89766.83151z"/>
<path d="m326.59512,245.80948c-25.44616,17.94365-46.2623,32.62739-46.2434,32.64629 .00944.0189 20.86339-12.90733 46.33789-28.71551l46.30955-28.74386v-3.91188c0-2.14493-.02835-3.90244-.06614-3.89299-.04725,0-20.89174,14.68374-46.3379,32.61795z"/>
<path d="m361.89659,240.79206-1.8898,2.08823-.91656,2.41894c-.50079,1.33231-.89765,2.42839-.8882,2.44729 .03779.0378 16.51685,2.01264 16.55464,1.97484 .0189-.00945-2.44729-2.50398-5.47097-5.51821l-5.49931-5.49932-1.8898,2.08823z"/>
<path d="m358.19258,261.25859c-44.80716,11.62227-81.45038,21.14686-81.43148,21.16576 .02834.02835 165.22521-37.39914 165.29135-37.45583 .0567-.0378-2.22996-4.8001-2.30555-4.81899-.04725-.00945-36.74716,9.48679-81.55432,21.10906z"/>
<path d="m316.58863,264.15943c-14.89162,7.03951-27.13753,12.83175-27.21312,12.88844-.10394.07559-.07559.07559.09449.0189 .33072-.11339 54.75696-21.09962 54.7664-21.11852 .00945,0-.07559-1.03939-.18898-2.30555-.11338-1.38901-.22677-2.28666-.29291-2.28666-.04725.00945-12.27426,5.76389-27.16588,12.80339z"/>
<path d="m372.29049,272.20053c-49.10646,8.32457-89.39699,15.14675-89.52928,15.14675-.16063.00945-.59529-.27402-1.32286-.85041l-1.08663-.85986-.04725,3.61897-.04724,3.61897-2.8347,1.91814c-1.55909,1.04884-2.8914,1.9087-2.95754,1.91815-.06614,0-1.25672-.82206-2.64572-1.82366-3.68511-2.66462-3.72291-2.65517-.20788.07559 1.32286,1.02995 2.44729,1.89925 2.48509,1.93705 .09449.08504-4.43158,3.14652-4.56387,3.09927-.06614-.0189-11.23486-9.52459-13.99397-11.90574l-.62363-.54804-5.16861,4.48827c-2.84414,2.46619-5.20639,4.48828-5.24419,4.48828-.04725,0-2.96699-.76537-6.49146-1.70082l-6.41587-1.70082 1.79531.04724 3.35439.09449c1.48349.0378-2.74966-.29291-7.80487-.61418-.93545-.06614-5.99067-.39686-11.23486-.73702l-9.54349-.63309-.04725-.27402c-.05669-.32126-.0189-.32126-.85041-.03779-.59529.19843-.66143.19843-2.50398.08504-1.03939-.05669-2.12603-.13229-2.4095-.16063l-.52914-.0567-.44411-.82206-.45355-.82206-3.23156-.16064c-1.77641-.09449-3.44888-.16063-3.71345-.16063h-.4819l-.41576.68033-.41575.68978-.47245-.02835c-.26458-.00945-10.14823-.66143-21.96893-1.4457-11.8207-.77482-21.64766-1.39845-21.84609-1.389l-.34016.02835 1.09608,1.18112c.95435,1.03939 1.13388,1.18112 1.4268,1.20947 .18898.0189 9.53404.40631 20.7689.85986s20.45709.84096 20.48544.86931-.42521.83151-1.0016,1.78586c-.56694.9449-1.01104,1.75751-.9638,1.80476 .0378.03779 1.39846,1.02049 3.01423,2.18272l2.93864,2.11657 3.23156.54805c1.76696.30236 3.2788.52914 3.34495.50079 .06614-.0189.55749-.77482 1.10553-1.66302l.9827-1.61578h2.05988 2.05988v-.36851c0-.19843-.08504-1.31341-.18898-2.46619-.10394-1.16223-.17008-2.12603-.14173-2.15437 .05669-.0567 20.39094.71812 20.91063.79371 .24568.0378.30237.08504.30237.29292 0,.34962.5008,2.53233.87876,3.8363 .32126,1.09608.32126,1.10553.12283,1.15277-.10393.0189-25.13434,2.90085-55.61681,6.38753l-55.43728,6.35918c-.02835.01889-.22678,2.44729-.19843,2.47563 .0189.00945 25.05875-3.35439 55.63571-7.4836s55.67351-7.50251 55.75855-7.50251c.10394,0 .22678.18898.36851.58584 .12284.33071.38741,1.01104.58584,1.53074 .19843.51024.35906.9449.34016.95434s-18.73736,4.15756-41.60394,9.20333-41.66065,9.21278-41.76458,9.26002c-.16064.06614-.23623.31182-.45356,1.4268-.15118.73702-.24567,1.3701-.21732,1.39845 .04724.0378 83.82208-20.58937 84.20004-20.74055 .05669-.0189.23622.24567.39685.57639 .20788.41575.26458.62363.18898.65198l-14.06011,3.7607-13.95617,3.71346-.18898,1.41735c-.10394.78426-.17953,1.43624-.17008,1.44569s6.51981-2.12602 14.46642-4.75284c14.49476-4.7812 14.58925-4.80955 14.5987-4.42214 0,.0567-10.18602,5.60326-22.63035,12.33095l-22.63036,12.227 .05669.89766c.0378.49135.08505,1.05829.12284,1.25672l.0567.34961 22.48862-13.23805c12.36874-7.27573 22.55476-13.27584 22.6398-13.31364 .12284-.07559.29292.14173.91655,1.16223 .70868,1.17167 1.68192,2.56068 2.66462,3.79849 .37796.49135.40631.54805.25512.66143-.08504.0567-12.00023,9.57184-26.47609,21.12797l-26.31547,21.01457 1.86145,1.82366c1.02994,1.0016 1.93705,1.85201 2.01264,1.89925 .11339.06614 3.63787-3.11817 15.73259-14.20185 8.57969-7.87101 15.60029-14.28688 15.61919-14.27744 .0189.0189-.09449.28347-.25512.60474-.16063.31182-.29292.60474-.29292.65198 0,.06614 2.59848,3.01423 3.20321,3.63787 .16063.16063.24568.13228 2.05043-.68033l1.88036-.85041 .9449.9449 .9449.93545 1.8898-1.13388 1.8898-1.13388 .72757-2.42839c.40631-1.34176.72757-2.50399.73702-2.57958 0-.08504-.71812-.59529-1.72917-1.22837l-1.71971-1.08664-2.73077-.04724-2.73076-.04725 6.71824-6.17019c3.69456-3.38274 6.73714-6.16075 6.75604-6.16075 .00945,0 .76537.73702 1.67247,1.63468s2.07878,1.97484 2.59848,2.39059c6.30248,5.04577 13.45537,7.50251 21.16576,7.28518 6.0568-.17008 11.45218-1.8709 16.58299-5.21585 2.11658-1.37955 3.45833-2.46618 5.38593-4.35598l1.18112-1.16223 17.9909,14.49476c9.90255,7.97496 18.0098,14.48532 18.02869,14.47587 .00945-.0189-.47245-1.14333-1.08663-2.50398l-1.10553-2.47564-16.69639-12.2459-16.70583-12.24591 .34016-.39686c.17954-.20787.66143-.80316 1.04884-1.31341 .39686-.50079.75592-.9071.79372-.89765 .04724.0189 10.11988,7.87101 22.39413,17.46175s22.48862,17.55624 22.6965,17.70743l.36851.27402 1.07718-1.07719c.59529-.59529 1.06774-1.10553 1.05829-1.14333-.0189-.02835-10.52618-7.65369-23.36737-16.94206-12.83175-9.28836-23.41463-16.96095-23.49967-17.04599-.15118-.14174-.12283-.20788.42521-1.06774 .36851-.57639.63308-.9071.70867-.87875 .06615.02834 9.60964,5.84893 21.20356,12.95457 11.58447,7.0962 21.09017,12.87899 21.11851,12.86009 .0189-.02834-.49134-1.10553-1.13388-2.40004l-1.18112-2.3528-19.8429-10.90415-19.8429-10.90415 .68033-1.33231c.37796-.72757.83151-1.64412 1.01104-2.04098l.32127-.71812 12.30259,3.17486c6.76549,1.74807 12.3215,3.20321 12.3593,3.24101 .07559.07559-.87876,1.39845-1.01105,1.39845-.04724,0-1.70082-.30237-3.65676-.66143-1.96539-.36851-3.63787-.66143-3.71346-.66143-.10394,0-.51969.67088-1.20002,1.9087l-1.03939,1.9087 2.47564,1.8331c1.36065,1.01104 3.08037,2.28666 3.82684,2.8347l1.34176,1.0016 10.04429,1.71971c5.51821.9449 10.05373,1.70082 10.07263,1.68193 .02835-.02835.21733-2.59848.31182-4.2615l.02835-.58584-1.65358-1.88035-1.65357-1.88035-2.05044-.88821c-1.13388-.4819-2.04098-.88821-2.03153-.89765s6.43477,1.63467 14.27744,3.65676 14.31523,3.67566 14.39082,3.67566c.06615,0 .12284-.0378.12284-.08504 0-.0378.27402-1.95594.61419-4.2615s.60473-4.19536.59528-4.21425c-.0189-.00945-14.45697-2.05044-32.09825-4.51663-17.63183-2.46619-32.07936-4.50717-32.09825-4.52607s.17953-.66143.43465-1.43625 .47245-1.47404.47245-1.55908c0-.10394-.69923-.38741-2.48509-1.02994l-2.47563-.87876-.5008-.85986c-.27402-.463-.47245-.86931-.4441-.89765 .01889-.02835 13.89003.60473 30.82263,1.4079l30.78485,1.45514 .24567.26458 .23622.25512 5.57491.38741 5.56547.37796 .32126-.34961 .32127-.34962 39.35508,1.86146c21.64766,1.02049 39.36454,1.84255 39.37399,1.8331 .01889-.0189-.71813-.59529-1.61578-1.28506l-1.64413-1.25672-37.05898-1.17168c-20.39094-.65198-37.12512-1.19057-37.20071-1.20002-.07559-.0189 1.03939-1.36065 2.67407-3.22211 1.54963-1.75751 2.7969-3.21266 2.778-3.22211-.00945-.01889-4.46937-2.00318-9.90255-4.40323s-9.90255-4.38434-9.94035-4.41268c-.03779-.0189-1.26616,1.10553-2.72131,2.49453l-2.65517,2.53234-3.7418,1.24726c-2.05044.68978-3.7607,1.26617-3.7796,1.29452-.02835.01889.34016,1.55908.82206,3.41108s.84096,3.3922.81261,3.42999c-.03779.02835-11.16871-.29292-24.74693-.72757-13.56876-.42521-24.70913-.77482-24.74693-.76537-.03779,0-.26457-.33072-.51024-.73702-.42521-.69923-.52915-.80317-3.08038-2.82525l-2.63627-2.08823 .5008-.06614 89.65211-12.17977 89.15132-12.10417 .02834-3.05202 .0189-3.04258-.20788.00945c-.12283.00945-40.39447,6.83163-89.51037,15.16564zm-168.28669,19.79566c.23622,0 .19842.03779-.28347.21733-.9827.37796-.93546.37796-1.12444,0l-.16063-.34962 .64253.0567c.34962.03779.77482.06614.92601.07559zm144.71143,2.08823 .88821.95435-1.59688-.0567c-.88821-.03779-2.62683-.09449-3.87409-.13228-1.24727-.02835-2.20162-.08504-2.12603-.11339 .24567-.08504 5.62216-1.59688 5.71665-1.60633 .05669,0 .50079.4252.99214.95435z"/>
<path d="m210.32518,271.83202c.03779.10394.20787.54805.37796.9827l.32126.79371 14.76879,7.10565c8.11669,3.91189 14.77824,7.0962 14.79713,7.08675 .00945-.0189-6.5765-3.53392-14.64595-7.81432l-15.17509-8.06c-.463-.26457-.5008-.27402-.4441-.09449z"/>
<path d="m195.89655,281.56449c-.76537.66143-1.36065,1.22837-1.32286,1.25672 .09449.07559 44.05124,6.93557 44.10794,6.87887 .03779-.02835-41.1882-9.34506-41.34883-9.33561-.02835,0-.67088.53859-1.43625,1.20002z"/>
<path d="m238.85171,289.77567c.02834.02835.11339.0378.17953.00945 .07559-.02834.04724-.05669-.0567-.05669-.10393-.00945-.16063.0189-.12283.04724z"/>
<path d="m238.66273,293.36629c.02834.02835.11339.0378.17953.00945 .07559-.02834.04724-.05669-.0567-.05669-.10393-.00945-.16063.0189-.12283.04724z"/>
<path d="m163.70381,298.31757-2.88194,2.14492-.02835,1.14333c-.02835,1.12443-.0189,1.15278.18898,1.19058 .34961.07559 15.77038,1.48349 15.90267,1.45514 .09449-.02835-10.04429-8.03165-10.23327-8.07889-.0378-.00945-1.36066.95435-2.94809,2.14492z"/>
<path d="m185.81447,314.60765c0,.08504 5.80169,5.6316 5.89618,5.6316 .05669,0 1.01104-.36851 2.11657-.81261l2.00319-.81262v-1.73861-1.73862h-.24567c-.33072,0-8.42851-.45355-9.17498-.51025-.33072-.02834-.59529-.03779-.59529-.01889z"/>
<path d="m164.50698,329.42368c-.02835.06614-.49135,1.58743-1.03939,3.38274l-.99215,3.25991 .30237.4252c1.63468,2.27721 5.67885,7.80487 5.73554,7.82377 .0378.00945.22678-.43465.42521-.99214 .19843-.56694.61418-1.72917.926-2.59848l.56694-1.57798 .34016-.04725c.19843-.02834 1.0016-.07559 1.79531-.11338l1.43625-.0567 1.13388-1.21892 1.12443-1.21892 .57639-1.80476c.32127-.99214.56694-1.81421.54804-1.83311-.05669-.05669-5.32923-2.03153-5.43317-2.03153-.0567,0-.45355.4441-.88821.9827-.43465.54804-.84096.97324-.9071.95434-.0567-.01889-1.32286-.80316-2.80636-1.73861s-2.72131-1.71027-2.74965-1.71027-.0756.05669-.09449.11339z"/>
</svg>
