<?xml version="1.0" encoding="UTF-8" standalone="no"?>
<svg height="500" viewBox="0 0 1 1" width="500" xmlns="http://www.w3.org/2000/svg">
<title>SVG drawing</title>
<desc>This was produced by version 4.1 of GNU libplot, a free library for exporting 2-D vector graphics.</desc>
<path d="m182.85,519.35h27.19v27.15h-27.19v-27.15z" fill="#ff7d00" fill-rule="evenodd" stroke="#000" stroke-miterlimit="10.43" stroke-width=".46037" transform="matrix(3.616551e-2,0,0,-3.621875e-2,-6.60453,19.80188)"/>
<path d="m.50271.15773c-.04774.03006-.06618.07389-.04702.19558-.02315-.01159-.02658-.02137-.066-.02354 .01844.03694.01989.05306.01989.11318-.01808,0-.02188-.0134-.04611-.05071-.02785.04165-.0226.08186-.01356.13039-.01157-.02789-.0434-.04093-.05967-.03622 .02315.02716.0311.08946.02893.13401 .00217.12206.05805.22112.18354.22184 .17757.00036.18191-.18345.1736-.2816 0-.02535.02188-.05288.03345-.05976-.01844-.00688-.06239.04401-.05787.02264s.00579-.10648.0217-.14669c-.01844.00471-.04268.01485-.05425.03803-.01121-.03948-.02803-.10033-.05334-.11409 .00687.04382-.00145.04618-.00362.06248-.04811-.04974-.05603-.11692-.06419-.18291l.0009-.00815 .00271-.01087 .0009-.00362zm.0434.22003c.01245.01766.00918.03506-.00633.0498-.00034-.00175-.00476-.04659.00633-.0498zm-.04069.02535-.0009.00634c-.01247.02733.01905.06184.01808.08421v.00272l-.03617-.00272c-.01157-.05324.01899-.09055.01899-.09055zm-.06871.0489c.01989.0239.0208.04962.00995.05071l-.01537.00453c-.01664-.01594.01157-.02735.00542-.05523zm.13653.00724c-.00579.02644.00197.0362-.00181.04799l-.01356-.00453c-.00387-.01351-.00054-.03658.01537-.04346zm.04159.02083c-.0039.02523.01345.06314.01079.06466-.03217-.01803-.02198-.03243-.01079-.06466zm-.24231.02445c.0087.01277.01419.01964.01175.02626s-.01257.01618-.0217.02716c-.00028-.01625.00245-.03212.00687-.04768l.00307-.00574zm.12929.01811c.09504.00029.13757.05334.13943.14438-.00047.10439-.05535.15352-.13853.15352-.08607.00217-.14774-.06121-.15099-.15031s.05931-.14795.15009-.14759z" fill-rule="evenodd"/>
</svg>
