  0
SECTION
  2
HEADER
  9
$ACADVER
  1
AC1014
  9
$HANDSEED
  5
FFFF
  9
$MEASUREMENT
 70
     1
  0
ENDSEC
  0
SECTION
  2
TABLES
  0
TABLE
  2
VPORT
  5
8
330
0
100
AcDbSymbolTable
 70
     4
  0
VPORT
  5
2E
330
8
100
AcDbSymbolTableRecord
100
AcDbViewportTableRecord
  2
*ACTIVE
 70
     0
 10
0.0
 20
0.0
 11
1.0
 21
1.0
 12
210.0
 22
148.5
 13
0.0
 23
0.0
 14
10.0
 24
10.0
 15
10.0
 25
10.0
 16
0.0
 26
0.0
 36
1.0
 17
0.0
 27
0.0
 37
0.0
 40
341.0
 41
1.24
 42
50.0
 43
0.0
 44
0.0
 50
0.0
 51
0.0
 71
     0
 72
   100
 73
     1
 74
     3
 75
     0
 76
     0
 77
     0
 78
     0
  0
ENDTAB
  0
TABLE
  2
LTYPE
  5
5
330
0
100
AcDbSymbolTable
 70
     1
  0
LTYPE
  5
14
330
5
100
AcDbSymbolTableRecord
100
AcDbLinetypeTableRecord
  2
BYBLOCK
 70
     0
  3

 72
    65
 73
     0
 40
0.0
  0
LTYPE
  5
15
330
5
100
AcDbSymbolTableRecord
100
AcDbLinetypeTableRecord
  2
BYLAYER
 70
     0
  3

 72
    65
 73
     0
 40
0.0
  0
LTYPE
  5
16
330
5
100
AcDbSymbolTableRecord
100
AcDbLinetypeTableRecord
  2
CONTINUOUS
 70
     0
  3
Solid line
 72
    65
 73
     0
 40
0.0
  0
ENDTAB
  0
TABLE
  2
LAYER
  5
2
100
AcDbSymbolTable
 70
2
  0
LAYER
  5
50
100
AcDbSymbolTableRecord
100
AcDbLayerTableRecord
  2
0
 70
0
  6
CONTINUOUS
  0
LAYER
  5
51
100
AcDbSymbolTableRecord
100
AcDbLayerTableRecord
  2
Layer_1
 70
0
  6
CONTINUOUS
  0
ENDTAB
  0
TABLE
  2
STYLE
  5
3
330
0
100
AcDbSymbolTable
 70
     1
  0
STYLE
  5
11
330
3
100
AcDbSymbolTableRecord
100
AcDbTextStyleTableRecord
  2
STANDARD
 70
     0
 40
0.0
 41
1.0
 50
0.0
 71
     0
 42
2.5
  3
txt
  4

  0
ENDTAB
  0
TABLE
  2
VIEW
  5
6
330
0
100
AcDbSymbolTable
 70
     0
  0
ENDTAB
  0
TABLE
  2
UCS
  5
7
330
0
100
AcDbSymbolTable
 70
     0
  0
ENDTAB
  0
TABLE
  2
APPID
  5
9
330
0
100
AcDbSymbolTable
 70
     2
  0
APPID
  5
12
330
9
100
AcDbSymbolTableRecord
100
AcDbRegAppTableRecord
  2
ACAD
 70
     0
  0
ENDTAB
  0
TABLE
  2
DIMSTYLE
  5
A
330
0
100
AcDbSymbolTable
 70
     1
  0
DIMSTYLE
105
27
330
A
100
AcDbSymbolTableRecord
100
AcDbDimStyleTableRecord
  2
ISO-25
 70
     0
  3

  4

  5

  6

  7

 40
1.0
 41
2.5
 42
0.625
 43
3.75
 44
1.25
 45
0.0
 46
0.0
 47
0.0
 48
0.0
140
2.5
141
2.5
142
0.0
143
0.03937007874016
144
1.0
145
0.0
146
1.0
147
0.625
 71
     0
 72
     0
 73
     0
 74
     0
 75
     0
 76
     0
 77
     1
 78
     8
170
     0
171
     3
172
     1
173
     0
174
     0
175
     0
176
     0
177
     0
178
     0
270
     2
271
     2
272
     2
273
     2
274
     3
340
11
275
     0
280
     0
281
     0
282
     0
283
     0
284
     8
285
     0
286
     0
287
     3
288
     0
  0
ENDTAB
  0
TABLE
  2
BLOCK_RECORD
  5
1
330
0
100
AcDbSymbolTable
 70
     1
  0
BLOCK_RECORD
  5
1F
330
1
100
AcDbSymbolTableRecord
100
AcDbBlockTableRecord
  2
*MODEL_SPACE
  0
BLOCK_RECORD
  5
1B
330
1
100
AcDbSymbolTableRecord
100
AcDbBlockTableRecord
  2
*PAPER_SPACE
  0
ENDTAB
  0
ENDSEC
  0
SECTION
  2
BLOCKS
  0
BLOCK
  5
20
330
1F
100
AcDbEntity
  8
0
100
AcDbBlockBegin
  2
*MODEL_SPACE
 70
     0
 10
0.0
 20
0.0
 30
0.0
  3
*MODEL_SPACE
  1

  0
ENDBLK
  5
21
330
1F
100
AcDbEntity
  8
0
100
AcDbBlockEnd
  0
BLOCK
  5
1C
330
1B
100
AcDbEntity
 67
     1
  8
0
100
AcDbBlockBegin
  2
*PAPER_SPACE
  1

  0
ENDBLK
  5
1D
330
1B
100
AcDbEntity
 67
     1
  8
0
100
AcDbBlockEnd
  0
ENDSEC
  0
SECTION
  2
ENTITIES
  0
SPLINE
  5
100
100
AcDbEntity
  8
Layer_1
 62
7
100
AcDbSpline
 70
8
 71
3
 72
8
 73
4
 74
0
 40
0
 40
0
 40
0
 40
0
 40
1
 40
1
 40
1
 40
1
 10
0.468382
 20
33.346760
 30
0.0
 10
0.948349
 20
37.241765
 30
0.0
 10
2.170357
 20
41.916835
 30
0.0
 10
3.960543
 20
47.069685
 30
0.0
  0
SPLINE
  5
101
100
AcDbEntity
  8
Layer_1
 62
7
100
AcDbSpline
 70
8
 71
3
 72
8
 73
4
 74
0
 40
0
 40
0
 40
0
 40
0
 40
1
 40
1
 40
1
 40
1
 10
3.960543
 20
47.069685
 30
0.0
 10
7.540919
 20
57.375380
 30
0.0
 10
13.394007
 20
69.592187
 30
0.0
 10
20.128905
 20
81.301810
 30
0.0
  0
SPLINE
  5
102
100
AcDbEntity
  8
Layer_1
 62
7
100
AcDbSpline
 70
8
 71
3
 72
8
 73
4
 74
0
 40
0
 40
0
 40
0
 40
0
 40
1
 40
1
 40
1
 40
1
 10
20.128905
 20
81.301810
 30
0.0
 10
33.598702
 20
104.721056
 30
0.0
 10
50.595744
 20
126.111576
 30
0.0
 10
59.992810
 20
126.127033
 30
0.0
  0
SPLINE
  5
103
100
AcDbEntity
  8
Layer_1
 62
7
100
AcDbSpline
 70
8
 71
3
 72
8
 73
4
 74
0
 40
0
 40
0
 40
0
 40
0
 40
1
 40
1
 40
1
 40
1
 10
59.992810
 20
126.127033
 30
0.0
 10
69.389876
 20
126.142499
 30
0.0
 10
86.457195
 20
104.807997
 30
0.0
 10
100.003957
 20
81.433185
 30
0.0
  0
SPLINE
  5
104
100
AcDbEntity
  8
Layer_1
 62
7
100
AcDbSpline
 70
8
 71
3
 72
8
 73
4
 74
0
 40
0
 40
0
 40
0
 40
0
 40
1
 40
1
 40
1
 40
1
 10
100.003957
 20
81.433185
 30
0.0
 10
106.777338
 20
69.745781
 30
0.0
 10
112.670582
 20
57.548295
 30
0.0
 10
116.284838
 20
47.254431
 30
0.0
  0
SPLINE
  5
105
100
AcDbEntity
  8
Layer_1
 62
7
100
AcDbSpline
 70
8
 71
3
 72
8
 73
4
 74
0
 40
0
 40
0
 40
0
 40
0
 40
1
 40
1
 40
1
 40
1
 10
116.284838
 20
47.254431
 30
0.0
 10
118.091966
 20
42.107502
 30
0.0
 10
119.329347
 20
37.436476
 30
0.0
 10
119.822124
 20
33.543071
 30
0.0
  0
SPLINE
  5
106
100
AcDbEntity
  8
Layer_1
 62
7
100
AcDbSpline
 70
8
 71
3
 72
8
 73
4
 74
0
 40
0
 40
0
 40
0
 40
0
 40
1
 40
1
 40
1
 40
1
 10
119.822124
 20
33.543071
 30
0.0
 10
120.068512
 20
31.596367
 30
0.0
 10
120.128750
 20
29.844069
 30
0.0
 10
120.014825
 20
27.671031
 30
0.0
  0
SPLINE
  5
107
100
AcDbEntity
  8
Layer_1
 62
7
100
AcDbSpline
 70
8
 71
3
 72
8
 73
4
 74
0
 40
0
 40
0
 40
0
 40
0
 40
1
 40
1
 40
1
 40
1
 10
120.048675
 20
1.265267
 30
0.0
 10
120.048675
 20
0.692452
 30
0.0
 10
119.720670
 20
0.231307
 30
0.0
 10
119.313243
 20
0.231307
 30
0.0
  0
LWPOLYLINE
  5
108
100
AcDbEntity
  8
Layer_1
 62
7
100
AcDbPolyline
 90
4
 70
1
 10
120.014825
 20
27.671031
 30
0.0
 10
120.048675
 20
23.339191
 30
0.0
 10
120.048675
 20
15.981217
 30
0.0
 10
120.048675
 20
1.265267
 30
0.0
  0
SPLINE
  5
109
100
AcDbEntity
  8
Layer_1
 62
7
100
AcDbSpline
 70
8
 71
3
 72
8
 73
4
 74
0
 40
0
 40
0
 40
0
 40
0
 40
1
 40
1
 40
1
 40
1
 10
0.988593
 20
0.231307
 30
0.0
 10
0.581163
 20
0.231307
 30
0.0
 10
0.253162
 20
0.692452
 30
0.0
 10
0.253162
 20
1.265267
 30
0.0
  0
SPLINE
  5
10a
100
AcDbEntity
  8
Layer_1
 62
7
100
AcDbSpline
 70
8
 71
3
 72
8
 73
4
 74
0
 40
0
 40
0
 40
0
 40
0
 40
1
 40
1
 40
1
 40
1
 10
0.253162
 20
1.265267
 30
0.0
 10
0.253162
 20
8.623241
 30
0.0
 10
0.253162
 20
15.981217
 30
0.0
 10
0.253162
 20
23.339191
 30
0.0
  0
LWPOLYLINE
  5
10b
100
AcDbEntity
  8
Layer_1
 62
7
100
AcDbPolyline
 90
2
 70
1
 10
119.313243
 20
0.231307
 30
0.0
 10
0.988593
 20
0.231307
 30
0.0
  0
SPLINE
  5
10c
100
AcDbEntity
  8
Layer_1
 62
7
100
AcDbSpline
 70
8
 71
3
 72
8
 73
4
 74
0
 40
0
 40
0
 40
0
 40
0
 40
1
 40
1
 40
1
 40
1
 10
0.289930
 20
27.572629
 30
0.0
 10
0.173928
 20
29.646767
 30
0.0
 10
0.228400
 20
31.399254
 30
0.0
 10
0.468382
 20
33.346760
 30
0.0
  0
LWPOLYLINE
  5
10d
100
AcDbEntity
  8
Layer_1
 62
7
100
AcDbPolyline
 90
2
 70
1
 10
0.253162
 20
23.339191
 30
0.0
 10
0.289930
 20
27.572629
 30
0.0
  0
SPLINE
  5
10e
100
AcDbEntity
  8
Layer_1
 62
7
100
AcDbSpline
 70
8
 71
3
 72
8
 73
4
 74
0
 40
0
 40
0
 40
0
 40
0
 40
1
 40
1
 40
1
 40
1
 10
6.321896
 20
26.588079
 30
0.0
 10
2.002640
 20
34.040916
 30
0.0
 10
11.116646
 20
57.368234
 30
0.0
 10
23.463958
 20
78.835877
 30
0.0
  0
SPLINE
  5
10f
100
AcDbEntity
  8
Layer_1
 62
7
100
AcDbSpline
 70
8
 71
3
 72
8
 73
4
 74
0
 40
0
 40
0
 40
0
 40
0
 40
1
 40
1
 40
1
 40
1
 10
23.463958
 20
78.835877
 30
0.0
 10
35.811274
 20
100.303519
 30
0.0
 10
51.391899
 20
119.911495
 30
0.0
 10
60.005874
 20
119.925660
 30
0.0
  0
SPLINE
  5
110
100
AcDbEntity
  8
Layer_1
 62
7
100
AcDbSpline
 70
8
 71
3
 72
8
 73
4
 74
0
 40
0
 40
0
 40
0
 40
0
 40
1
 40
1
 40
1
 40
1
 10
60.005874
 20
119.925660
 30
0.0
 10
77.233828
 20
119.954006
 30
0.0
 10
122.586039
 20
41.699194
 30
0.0
 10
113.996603
 20
26.765182
 30
0.0
  0
SPLINE
  5
111
100
AcDbEntity
  8
Layer_1
 62
7
100
AcDbSpline
 70
8
 71
3
 72
8
 73
4
 74
0
 40
0
 40
0
 40
0
 40
0
 40
1
 40
1
 40
1
 40
1
 10
113.996603
 20
26.765182
 30
0.0
 10
105.407164
 20
11.831168
 30
0.0
 10
14.960411
 20
11.682405
 30
0.0
 10
6.321896
 20
26.588079
 30
0.0
  0
LWPOLYLINE
  5
112
100
AcDbEntity
  8
Layer_1
 62
7
100
AcDbPolyline
 90
2
 70
1
 10
0.468382
 20
33.346760
 30
0.0
 10
0.468382
 20
33.346760
 30
0.0
  0
LWPOLYLINE
  5
113
100
AcDbEntity
  8
Layer_1
 62
7
100
AcDbPolyline
 90
2
 70
1
 10
6.321896
 20
26.588079
 30
0.0
 10
6.321896
 20
26.588079
 30
0.0
  0
SPLINE
  5
114
100
AcDbEntity
  8
Layer_1
 62
7
100
AcDbSpline
 70
8
 71
3
 72
8
 73
4
 74
0
 40
0
 40
0
 40
0
 40
0
 40
1
 40
1
 40
1
 40
1
 10
8.726856
 20
31.891097
 30
0.0
 10
8.726856
 20
32.769361
 30
0.0
 10
8.997871
 20
33.496047
 30
0.0
 10
9.539899
 20
34.071154
 30
0.0
  0
SPLINE
  5
115
100
AcDbEntity
  8
Layer_1
 62
7
100
AcDbSpline
 70
8
 71
3
 72
8
 73
4
 74
0
 40
0
 40
0
 40
0
 40
0
 40
1
 40
1
 40
1
 40
1
 10
9.539899
 20
34.071154
 30
0.0
 10
10.081926
 20
34.646249
 30
0.0
 10
10.764514
 20
34.933800
 30
0.0
 10
11.587663
 20
34.933805
 30
0.0
  0
SPLINE
  5
116
100
AcDbEntity
  8
Layer_1
 62
7
100
AcDbSpline
 70
8
 71
3
 72
8
 73
4
 74
0
 40
0
 40
0
 40
0
 40
0
 40
1
 40
1
 40
1
 40
1
 10
11.587663
 20
34.933805
 30
0.0
 10
12.495327
 20
34.933800
 30
0.0
 10
13.254166
 20
34.542436
 30
0.0
 10
13.864184
 20
33.759719
 30
0.0
  0
LWPOLYLINE
  5
117
100
AcDbEntity
  8
Layer_1
 62
7
100
AcDbPolyline
 90
6
 70
1
 10
11.708932
 20
31.202080
 30
0.0
 10
11.708932
 20
29.184631
 30
0.0
 10
10.964791
 20
29.184631
 30
0.0
 10
10.964791
 20
27.222303
 30
0.0
 10
8.726856
 20
27.222303
 30
0.0
 10
8.726856
 20
31.891097
 30
0.0
  0
SPLINE
  5
118
100
AcDbEntity
  8
Layer_1
 62
7
100
AcDbSpline
 70
8
 71
3
 72
8
 73
4
 74
0
 40
0
 40
0
 40
0
 40
0
 40
1
 40
1
 40
1
 40
1
 10
12.028636
 20
32.420264
 30
0.0
 10
11.925737
 20
32.706891
 30
0.0
 10
11.743837
 20
32.850207
 30
0.0
 10
11.482934
 20
32.850212
 30
0.0
  0
SPLINE
  5
119
100
AcDbEntity
  8
Layer_1
 62
7
100
AcDbSpline
 70
8
 71
3
 72
8
 73
4
 74
0
 40
0
 40
0
 40
0
 40
0
 40
1
 40
1
 40
1
 40
1
 10
11.482934
 20
32.850212
 30
0.0
 10
11.137502
 20
32.850207
 30
0.0
 10
10.964788
 20
32.611348
 30
0.0
 10
10.964791
 20
32.133633
 30
0.0
  0
LWPOLYLINE
  5
11a
100
AcDbEntity
  8
Layer_1
 62
7
100
AcDbPolyline
 90
2
 70
1
 10
13.864184
 20
33.759719
 30
0.0
 10
12.028636
 20
32.420264
 30
0.0
  0
LWPOLYLINE
  5
11b
100
AcDbEntity
  8
Layer_1
 62
7
100
AcDbPolyline
 90
3
 70
1
 10
10.964791
 20
32.133633
 30
0.0
 10
10.964791
 20
31.202080
 30
0.0
 10
11.708932
 20
31.202080
 30
0.0
  0
SPLINE
  5
11c
100
AcDbEntity
  8
Layer_1
 62
7
100
AcDbSpline
 70
8
 71
3
 72
8
 73
4
 74
0
 40
0
 40
0
 40
0
 40
0
 40
1
 40
1
 40
1
 40
1
 10
17.188011
 20
30.568180
 30
0.0
 10
17.044693
 20
30.649023
 30
0.0
 10
16.914238
 20
30.689446
 30
0.0
 10
16.796647
 20
30.689448
 30
0.0
  0
SPLINE
  5
11d
100
AcDbEntity
  8
Layer_1
 62
7
100
AcDbSpline
 70
8
 71
3
 72
8
 73
4
 74
0
 40
0
 40
0
 40
0
 40
0
 40
1
 40
1
 40
1
 40
1
 10
16.796647
 20
30.689448
 30
0.0
 10
16.421820
 20
30.689446
 30
0.0
 10
16.234407
 20
30.402812
 30
0.0
 10
16.234410
 20
29.829554
 30
0.0
  0
LWPOLYLINE
  5
11e
100
AcDbEntity
  8
Layer_1
 62
7
100
AcDbPolyline
 90
2
 70
1
 10
17.188011
 20
32.773041
 30
0.0
 10
17.188011
 20
30.568180
 30
0.0
  0
SPLINE
  5
11f
100
AcDbEntity
  8
Layer_1
 62
7
100
AcDbSpline
 70
8
 71
3
 72
8
 73
4
 74
0
 40
0
 40
0
 40
0
 40
0
 40
1
 40
1
 40
1
 40
1
 10
14.172864
 20
30.226429
 30
0.0
 10
14.172864
 20
31.020173
 30
0.0
 10
14.389673
 20
31.653153
 30
0.0
 10
14.823299
 20
32.125364
 30
0.0
  0
SPLINE
  5
120
100
AcDbEntity
  8
Layer_1
 62
7
100
AcDbSpline
 70
8
 71
3
 72
8
 73
4
 74
0
 40
0
 40
0
 40
0
 40
0
 40
1
 40
1
 40
1
 40
1
 10
14.823299
 20
32.125364
 30
0.0
 10
15.256919
 20
32.597567
 30
0.0
 10
15.835695
 20
32.833671
 30
0.0
 10
16.559626
 20
32.833677
 30
0.0
  0
SPLINE
  5
121
100
AcDbEntity
  8
Layer_1
 62
7
100
AcDbSpline
 70
8
 71
3
 72
8
 73
4
 74
0
 40
0
 40
0
 40
0
 40
0
 40
1
 40
1
 40
1
 40
1
 10
16.559626
 20
32.833677
 30
0.0
 10
16.721311
 20
32.833671
 30
0.0
 10
16.930774
 20
32.813470
 30
0.0
 10
17.188011
 20
32.773041
 30
0.0
  0
LWPOLYLINE
  5
122
100
AcDbEntity
  8
Layer_1
 62
7
100
AcDbPolyline
 90
4
 70
1
 10
16.234410
 20
29.829554
 30
0.0
 10
16.234410
 20
27.222303
 30
0.0
 10
14.172864
 20
27.222303
 30
0.0
 10
14.172864
 20
30.226429
 30
0.0
  0
LWPOLYLINE
  5
123
100
AcDbEntity
  8
Layer_1
 62
7
100
AcDbPolyline
 90
2
 70
1
 10
17.188011
 20
32.773041
 30
0.0
 10
17.188011
 20
32.773041
 30
0.0
  0
SPLINE
  5
124
100
AcDbEntity
  8
Layer_1
 62
7
100
AcDbSpline
 70
8
 71
3
 72
8
 73
4
 74
0
 40
0
 40
0
 40
0
 40
0
 40
1
 40
1
 40
1
 40
1
 10
18.825120
 20
35.170830
 30
0.0
 10
19.104401
 20
35.170821
 30
0.0
 10
19.346017
 20
35.072520
 30
0.0
 10
19.549968
 20
34.875927
 30
0.0
  0
SPLINE
  5
125
100
AcDbEntity
  8
Layer_1
 62
7
100
AcDbSpline
 70
8
 71
3
 72
8
 73
4
 74
0
 40
0
 40
0
 40
0
 40
0
 40
1
 40
1
 40
1
 40
1
 10
19.549968
 20
34.875927
 30
0.0
 10
19.753916
 20
34.679320
 30
0.0
 10
19.855891
 20
34.446893
 30
0.0
 10
19.855894
 20
34.178641
 30
0.0
  0
SPLINE
  5
126
100
AcDbEntity
  8
Layer_1
 62
7
100
AcDbSpline
 70
8
 71
3
 72
8
 73
4
 74
0
 40
0
 40
0
 40
0
 40
0
 40
1
 40
1
 40
1
 40
1
 10
19.855894
 20
34.178641
 30
0.0
 10
19.855891
 20
33.892002
 30
0.0
 10
19.759428
 20
33.656818
 30
0.0
 10
19.566506
 20
33.473085
 30
0.0
  0
SPLINE
  5
127
100
AcDbEntity
  8
Layer_1
 62
7
100
AcDbSpline
 70
8
 71
3
 72
8
 73
4
 74
0
 40
0
 40
0
 40
0
 40
0
 40
1
 40
1
 40
1
 40
1
 10
19.566506
 20
33.473085
 30
0.0
 10
19.373576
 20
33.289342
 30
0.0
 10
19.126448
 20
33.197473
 30
0.0
 10
18.825120
 20
33.197478
 30
0.0
  0
SPLINE
  5
128
100
AcDbEntity
  8
Layer_1
 62
7
100
AcDbSpline
 70
8
 71
3
 72
8
 73
4
 74
0
 40
0
 40
0
 40
0
 40
0
 40
1
 40
1
 40
1
 40
1
 10
18.825120
 20
33.197478
 30
0.0
 10
18.523788
 20
33.197473
 30
0.0
 10
18.276660
 20
33.289342
 30
0.0
 10
18.083736
 20
33.473085
 30
0.0
  0
SPLINE
  5
129
100
AcDbEntity
  8
Layer_1
 62
7
100
AcDbSpline
 70
8
 71
3
 72
8
 73
4
 74
0
 40
0
 40
0
 40
0
 40
0
 40
1
 40
1
 40
1
 40
1
 10
18.083736
 20
33.473085
 30
0.0
 10
17.890809
 20
33.656818
 30
0.0
 10
17.794348
 20
33.892002
 30
0.0
 10
17.794348
 20
34.178641
 30
0.0
  0
SPLINE
  5
12a
100
AcDbEntity
  8
Layer_1
 62
7
100
AcDbSpline
 70
8
 71
3
 72
8
 73
4
 74
0
 40
0
 40
0
 40
0
 40
0
 40
1
 40
1
 40
1
 40
1
 10
17.794348
 20
34.178641
 30
0.0
 10
17.794348
 20
34.446893
 30
0.0
 10
17.896321
 20
34.679320
 30
0.0
 10
18.100271
 20
34.875927
 30
0.0
  0
SPLINE
  5
12b
100
AcDbEntity
  8
Layer_1
 62
7
100
AcDbSpline
 70
8
 71
3
 72
8
 73
4
 74
0
 40
0
 40
0
 40
0
 40
0
 40
1
 40
1
 40
1
 40
1
 10
18.100271
 20
34.875927
 30
0.0
 10
18.304222
 20
35.072520
 30
0.0
 10
18.545835
 20
35.170821
 30
0.0
 10
18.825120
 20
35.170830
 30
0.0
  0
LWPOLYLINE
  5
12c
100
AcDbEntity
  8
Layer_1
 62
7
100
AcDbPolyline
 90
5
 70
1
 10
19.850382
 20
32.717921
 30
0.0
 10
19.850382
 20
27.222303
 30
0.0
 10
17.788836
 20
27.222303
 30
0.0
 10
17.788836
 20
32.717921
 30
0.0
 10
19.850382
 20
32.717921
 30
0.0
  0
LWPOLYLINE
  5
12d
100
AcDbEntity
  8
Layer_1
 62
7
100
AcDbPolyline
 90
2
 70
1
 10
18.825120
 20
35.170830
 30
0.0
 10
18.825120
 20
35.170830
 30
0.0
  0
SPLINE
  5
12e
100
AcDbEntity
  8
Layer_1
 62
7
100
AcDbSpline
 70
8
 71
3
 72
8
 73
4
 74
0
 40
0
 40
0
 40
0
 40
0
 40
1
 40
1
 40
1
 40
1
 10
26.520086
 20
30.165794
 30
0.0
 10
26.520081
 20
29.324269
 30
0.0
 10
26.299595
 20
28.638926
 30
0.0
 10
25.858628
 20
28.109762
 30
0.0
  0
SPLINE
  5
12f
100
AcDbEntity
  8
Layer_1
 62
7
100
AcDbSpline
 70
8
 71
3
 72
8
 73
4
 74
0
 40
0
 40
0
 40
0
 40
0
 40
1
 40
1
 40
1
 40
1
 10
25.858628
 20
28.109762
 30
0.0
 10
25.605063
 20
27.804753
 30
0.0
 10
25.282601
 20
27.562220
 30
0.0
 10
24.891244
 20
27.382157
 30
0.0
  0
SPLINE
  5
130
100
AcDbEntity
  8
Layer_1
 62
7
100
AcDbSpline
 70
8
 71
3
 72
8
 73
4
 74
0
 40
0
 40
0
 40
0
 40
0
 40
1
 40
1
 40
1
 40
1
 10
24.891244
 20
27.382157
 30
0.0
 10
24.499878
 20
27.202093
 30
0.0
 10
24.098411
 20
27.112062
 30
0.0
 10
23.686841
 20
27.112062
 30
0.0
  0
SPLINE
  5
131
100
AcDbEntity
  8
Layer_1
 62
7
100
AcDbSpline
 70
8
 71
3
 72
8
 73
4
 74
0
 40
0
 40
0
 40
0
 40
0
 40
1
 40
1
 40
1
 40
1
 10
23.686841
 20
27.112062
 30
0.0
 10
22.867363
 20
27.112062
 30
0.0
 10
22.176509
 20
27.387669
 30
0.0
 10
21.614271
 20
27.938885
 30
0.0
  0
SPLINE
  5
132
100
AcDbEntity
  8
Layer_1
 62
7
100
AcDbSpline
 70
8
 71
3
 72
8
 73
4
 74
0
 40
0
 40
0
 40
0
 40
0
 40
1
 40
1
 40
1
 40
1
 10
21.614271
 20
27.938885
 30
0.0
 10
21.052031
 20
28.490099
 30
0.0
 10
20.770909
 20
29.166256
 30
0.0
 10
20.770909
 20
29.967357
 30
0.0
  0
SPLINE
  5
133
100
AcDbEntity
  8
Layer_1
 62
7
100
AcDbSpline
 70
8
 71
3
 72
8
 73
4
 74
0
 40
0
 40
0
 40
0
 40
0
 40
1
 40
1
 40
1
 40
1
 10
20.770909
 20
29.967357
 30
0.0
 10
20.770909
 20
30.742729
 30
0.0
 10
21.050194
 20
31.413374
 30
0.0
 10
21.608756
 20
31.979291
 30
0.0
  0
SPLINE
  5
134
100
AcDbEntity
  8
Layer_1
 62
7
100
AcDbSpline
 70
8
 71
3
 72
8
 73
4
 74
0
 40
0
 40
0
 40
0
 40
0
 40
1
 40
1
 40
1
 40
1
 10
21.608756
 20
31.979291
 30
0.0
 10
22.167319
 20
32.545201
 30
0.0
 10
22.828778
 20
32.828159
 30
0.0
 10
23.593131
 20
32.828165
 30
0.0
  0
SPLINE
  5
135
100
AcDbEntity
  8
Layer_1
 62
7
100
AcDbSpline
 70
8
 71
3
 72
8
 73
4
 74
0
 40
0
 40
0
 40
0
 40
0
 40
1
 40
1
 40
1
 40
1
 10
23.593131
 20
32.828165
 30
0.0
 10
23.714397
 20
32.828159
 30
0.0
 10
23.898135
 20
32.817130
 30
0.0
 10
24.144348
 20
32.795091
 30
0.0
  0
LWPOLYLINE
  5
136
100
AcDbEntity
  8
Layer_1
 62
7
100
AcDbPolyline
 90
3
 70
1
 10
24.458541
 20
34.746393
 30
0.0
 10
26.520086
 20
34.746393
 30
0.0
 10
26.520086
 20
30.165794
 30
0.0
  0
SPLINE
  5
137
100
AcDbEntity
  8
Layer_1
 62
7
100
AcDbSpline
 70
8
 71
3
 72
8
 73
4
 74
0
 40
0
 40
0
 40
0
 40
0
 40
1
 40
1
 40
1
 40
1
 10
24.144348
 20
30.524083
 30
0.0
 10
23.975306
 20
30.656372
 30
0.0
 10
23.806266
 20
30.722519
 30
0.0
 10
23.637229
 20
30.722522
 30
0.0
  0
SPLINE
  5
138
100
AcDbEntity
  8
Layer_1
 62
7
100
AcDbSpline
 70
8
 71
3
 72
8
 73
4
 74
0
 40
0
 40
0
 40
0
 40
0
 40
1
 40
1
 40
1
 40
1
 10
23.637229
 20
30.722522
 30
0.0
 10
23.424092
 20
30.722519
 30
0.0
 10
23.241271
 20
30.644428
 30
0.0
 10
23.088769
 20
30.488255
 30
0.0
  0
SPLINE
  5
139
100
AcDbEntity
  8
Layer_1
 62
7
100
AcDbSpline
 70
8
 71
3
 72
8
 73
4
 74
0
 40
0
 40
0
 40
0
 40
0
 40
1
 40
1
 40
1
 40
1
 10
23.088769
 20
30.488255
 30
0.0
 10
22.936265
 20
30.332073
 30
0.0
 10
22.860014
 20
30.143744
 30
0.0
 10
22.860017
 20
29.923260
 30
0.0
  0
SPLINE
  5
13a
100
AcDbEntity
  8
Layer_1
 62
7
100
AcDbSpline
 70
8
 71
3
 72
8
 73
4
 74
0
 40
0
 40
0
 40
0
 40
0
 40
1
 40
1
 40
1
 40
1
 10
22.860017
 20
29.923260
 30
0.0
 10
22.860014
 20
29.710120
 30
0.0
 10
22.939022
 20
29.527300
 30
0.0
 10
23.097038
 20
29.374801
 30
0.0
  0
SPLINE
  5
13b
100
AcDbEntity
  8
Layer_1
 62
7
100
AcDbSpline
 70
8
 71
3
 72
8
 73
4
 74
0
 40
0
 40
0
 40
0
 40
0
 40
1
 40
1
 40
1
 40
1
 10
23.097038
 20
29.374801
 30
0.0
 10
23.255052
 20
29.222296
 30
0.0
 10
23.444302
 20
29.146043
 30
0.0
 10
23.664791
 20
29.146046
 30
0.0
  0
SPLINE
  5
13c
100
AcDbEntity
  8
Layer_1
 62
7
100
AcDbSpline
 70
8
 71
3
 72
8
 73
4
 74
0
 40
0
 40
0
 40
0
 40
0
 40
1
 40
1
 40
1
 40
1
 10
23.664791
 20
29.146046
 30
0.0
 10
24.193954
 20
29.146043
 30
0.0
 10
24.458538
 20
29.511681
 30
0.0
 10
24.458541
 20
30.242964
 30
0.0
  0
LWPOLYLINE
  5
13d
100
AcDbEntity
  8
Layer_1
 62
7
100
AcDbPolyline
 90
2
 70
1
 10
24.144348
 20
32.795091
 30
0.0
 10
24.144348
 20
30.524083
 30
0.0
  0
LWPOLYLINE
  5
13e
100
AcDbEntity
  8
Layer_1
 62
7
100
AcDbPolyline
 90
2
 70
1
 10
24.458541
 20
30.242964
 30
0.0
 10
24.458541
 20
34.746393
 30
0.0
  0
SPLINE
  5
13f
100
AcDbEntity
  8
Layer_1
 62
7
100
AcDbSpline
 70
8
 71
3
 72
8
 73
4
 74
0
 40
0
 40
0
 40
0
 40
0
 40
1
 40
1
 40
1
 40
1
 10
30.532934
 20
27.597131
 30
0.0
 10
30.235274
 20
27.486887
 30
0.0
 10
29.950481
 20
27.431766
 30
0.0
 10
29.678548
 20
27.431766
 30
0.0
  0
SPLINE
  5
140
100
AcDbEntity
  8
Layer_1
 62
7
100
AcDbSpline
 70
8
 71
3
 72
8
 73
4
 74
0
 40
0
 40
0
 40
0
 40
0
 40
1
 40
1
 40
1
 40
1
 10
29.678548
 20
27.431766
 30
0.0
 10
29.013415
 20
27.431766
 30
0.0
 10
28.450258
 20
27.683488
 30
0.0
 10
27.989076
 20
28.186930
 30
0.0
  0
SPLINE
  5
141
100
AcDbEntity
  8
Layer_1
 62
7
100
AcDbSpline
 70
8
 71
3
 72
8
 73
4
 74
0
 40
0
 40
0
 40
0
 40
0
 40
1
 40
1
 40
1
 40
1
 10
27.989076
 20
28.186930
 30
0.0
 10
27.527891
 20
28.690372
 30
0.0
 10
27.297298
 20
29.305896
 30
0.0
 10
27.297298
 20
30.033502
 30
0.0
  0
SPLINE
  5
142
100
AcDbEntity
  8
Layer_1
 62
7
100
AcDbSpline
 70
8
 71
3
 72
8
 73
4
 74
0
 40
0
 40
0
 40
0
 40
0
 40
1
 40
1
 40
1
 40
1
 10
27.297298
 20
30.033502
 30
0.0
 10
27.297298
 20
30.819900
 30
0.0
 10
27.574742
 20
31.483193
 30
0.0
 10
28.129634
 20
32.023389
 30
0.0
  0
SPLINE
  5
143
100
AcDbEntity
  8
Layer_1
 62
7
100
AcDbSpline
 70
8
 71
3
 72
8
 73
4
 74
0
 40
0
 40
0
 40
0
 40
0
 40
1
 40
1
 40
1
 40
1
 10
28.129634
 20
32.023389
 30
0.0
 10
28.684522
 20
32.563576
 30
0.0
 10
29.366190
 20
32.833671
 30
0.0
 10
30.174644
 20
32.833677
 30
0.0
  0
SPLINE
  5
144
100
AcDbEntity
  8
Layer_1
 62
7
100
AcDbSpline
 70
8
 71
3
 72
8
 73
4
 74
0
 40
0
 40
0
 40
0
 40
0
 40
1
 40
1
 40
1
 40
1
 10
30.174644
 20
32.833677
 30
0.0
 10
30.604587
 20
32.833671
 30
0.0
 10
31.016160
 20
32.747314
 30
0.0
 10
31.409366
 20
32.574605
 30
0.0
  0
SPLINE
  5
145
100
AcDbEntity
  8
Layer_1
 62
7
100
AcDbSpline
 70
8
 71
3
 72
8
 73
4
 74
0
 40
0
 40
0
 40
0
 40
0
 40
1
 40
1
 40
1
 40
1
 10
31.409366
 20
32.574605
 30
0.0
 10
31.802561
 20
32.401885
 30
0.0
 10
32.111242
 20
32.170376
 30
0.0
 10
32.335408
 20
31.880073
 30
0.0
  0
SPLINE
  5
146
100
AcDbEntity
  8
Layer_1
 62
7
100
AcDbSpline
 70
8
 71
3
 72
8
 73
4
 74
0
 40
0
 40
0
 40
0
 40
0
 40
1
 40
1
 40
1
 40
1
 10
32.335408
 20
31.880073
 30
0.0
 10
32.710227
 20
31.398676
 30
0.0
 10
32.897640
 20
30.700469
 30
0.0
 10
32.897645
 20
29.785457
 30
0.0
  0
LWPOLYLINE
  5
147
100
AcDbEntity
  8
Layer_1
 62
7
100
AcDbPolyline
 90
2
 70
1
 10
30.532934
 20
29.487800
 30
0.0
 10
30.532934
 20
27.597131
 30
0.0
  0
SPLINE
  5
148
100
AcDbEntity
  8
Layer_1
 62
7
100
AcDbSpline
 70
8
 71
3
 72
8
 73
4
 74
0
 40
0
 40
0
 40
0
 40
0
 40
1
 40
1
 40
1
 40
1
 10
32.897645
 20
27.977471
 30
0.0
 10
32.897640
 20
26.996305
 30
0.0
 10
32.619278
 20
26.199801
 30
0.0
 10
32.062555
 20
25.587952
 30
0.0
  0
SPLINE
  5
149
100
AcDbEntity
  8
Layer_1
 62
7
100
AcDbSpline
 70
8
 71
3
 72
8
 73
4
 74
0
 40
0
 40
0
 40
0
 40
0
 40
1
 40
1
 40
1
 40
1
 10
32.062555
 20
25.587952
 30
0.0
 10
31.505824
 20
24.976105
 30
0.0
 10
30.780976
 20
24.670179
 30
0.0
 10
29.888011
 20
24.670179
 30
0.0
  0
SPLINE
  5
14a
100
AcDbEntity
  8
Layer_1
 62
7
100
AcDbSpline
 70
8
 71
3
 72
8
 73
4
 74
0
 40
0
 40
0
 40
0
 40
0
 40
1
 40
1
 40
1
 40
1
 10
29.888011
 20
24.670179
 30
0.0
 10
29.616075
 20
24.670179
 30
0.0
 10
29.272484
 20
24.738163
 30
0.0
 10
28.857239
 20
24.874127
 30
0.0
  0
LWPOLYLINE
  5
14b
100
AcDbEntity
  8
Layer_1
 62
7
100
AcDbPolyline
 90
2
 70
1
 10
32.897645
 20
29.785457
 30
0.0
 10
32.897645
 20
27.977471
 30
0.0
  0
SPLINE
  5
14c
100
AcDbEntity
  8
Layer_1
 62
7
100
AcDbSpline
 70
8
 71
3
 72
8
 73
4
 74
0
 40
0
 40
0
 40
0
 40
0
 40
1
 40
1
 40
1
 40
1
 10
28.857239
 20
26.748260
 30
0.0
 10
29.125494
 20
26.601270
 30
0.0
 10
29.397427
 20
26.527774
 30
0.0
 10
29.673036
 20
26.527774
 30
0.0
  0
SPLINE
  5
14d
100
AcDbEntity
  8
Layer_1
 62
7
100
AcDbSpline
 70
8
 71
3
 72
8
 73
4
 74
0
 40
0
 40
0
 40
0
 40
0
 40
1
 40
1
 40
1
 40
1
 10
29.673036
 20
26.527774
 30
0.0
 10
30.044187
 20
26.527774
 30
0.0
 10
30.330817
 20
26.649959
 30
0.0
 10
30.532934
 20
26.894330
 30
0.0
  0
SPLINE
  5
14e
100
AcDbEntity
  8
Layer_1
 62
7
100
AcDbSpline
 70
8
 71
3
 72
8
 73
4
 74
0
 40
0
 40
0
 40
0
 40
0
 40
1
 40
1
 40
1
 40
1
 10
30.532934
 20
26.894330
 30
0.0
 10
30.735041
 20
27.138703
 30
0.0
 10
30.836097
 20
27.488724
 30
0.0
 10
30.836102
 20
27.944397
 30
0.0
  0
LWPOLYLINE
  5
14f
100
AcDbEntity
  8
Layer_1
 62
7
100
AcDbPolyline
 90
2
 70
1
 10
28.857239
 20
24.874127
 30
0.0
 10
28.857239
 20
26.748260
 30
0.0
  0
SPLINE
  5
150
100
AcDbEntity
  8
Layer_1
 62
7
100
AcDbSpline
 70
8
 71
3
 72
8
 73
4
 74
0
 40
0
 40
0
 40
0
 40
0
 40
1
 40
1
 40
1
 40
1
 10
30.836102
 20
30.011455
 30
0.0
 10
30.836097
 20
30.588390
 30
0.0
 10
30.602750
 20
30.876858
 30
0.0
 10
30.136059
 20
30.876861
 30
0.0
  0
SPLINE
  5
151
100
AcDbEntity
  8
Layer_1
 62
7
100
AcDbSpline
 70
8
 71
3
 72
8
 73
4
 74
0
 40
0
 40
0
 40
0
 40
0
 40
1
 40
1
 40
1
 40
1
 10
30.136059
 20
30.876861
 30
0.0
 10
29.937617
 20
30.876858
 30
0.0
 10
29.763985
 20
30.800607
 30
0.0
 10
29.615158
 20
30.648108
 30
0.0
  0
SPLINE
  5
152
100
AcDbEntity
  8
Layer_1
 62
7
100
AcDbSpline
 70
8
 71
3
 72
8
 73
4
 74
0
 40
0
 40
0
 40
0
 40
0
 40
1
 40
1
 40
1
 40
1
 10
29.615158
 20
30.648108
 30
0.0
 10
29.466328
 20
30.495601
 30
0.0
 10
29.391915
 20
30.320132
 30
0.0
 10
29.391918
 20
30.121696
 30
0.0
  0
SPLINE
  5
153
100
AcDbEntity
  8
Layer_1
 62
7
100
AcDbSpline
 70
8
 71
3
 72
8
 73
4
 74
0
 40
0
 40
0
 40
0
 40
0
 40
1
 40
1
 40
1
 40
1
 10
29.391918
 20
30.121696
 30
0.0
 10
29.391915
 20
29.912231
 30
0.0
 10
29.462654
 20
29.737682
 30
0.0
 10
29.604135
 20
29.598041
 30
0.0
  0
SPLINE
  5
154
100
AcDbEntity
  8
Layer_1
 62
7
100
AcDbSpline
 70
8
 71
3
 72
8
 73
4
 74
0
 40
0
 40
0
 40
0
 40
0
 40
1
 40
1
 40
1
 40
1
 10
29.604135
 20
29.598041
 30
0.0
 10
29.745610
 20
29.458398
 30
0.0
 10
29.921081
 20
29.388579
 30
0.0
 10
30.130547
 20
29.388582
 30
0.0
  0
SPLINE
  5
155
100
AcDbEntity
  8
Layer_1
 62
7
100
AcDbSpline
 70
8
 71
3
 72
8
 73
4
 74
0
 40
0
 40
0
 40
0
 40
0
 40
1
 40
1
 40
1
 40
1
 10
30.130547
 20
29.388582
 30
0.0
 10
30.270185
 20
29.388579
 30
0.0
 10
30.404314
 20
29.421650
 30
0.0
 10
30.532934
 20
29.487800
 30
0.0
  0
LWPOLYLINE
  5
156
100
AcDbEntity
  8
Layer_1
 62
7
100
AcDbPolyline
 90
2
 70
1
 10
30.836102
 20
27.944397
 30
0.0
 10
30.836102
 20
30.011455
 30
0.0
  0
LWPOLYLINE
  5
157
100
AcDbEntity
  8
Layer_1
 62
7
100
AcDbPolyline
 90
2
 70
1
 10
30.532934
 20
29.487800
 30
0.0
 10
30.532934
 20
29.487800
 30
0.0
  0
SPLINE
  5
158
100
AcDbEntity
  8
Layer_1
 62
7
100
AcDbSpline
 70
8
 71
3
 72
8
 73
4
 74
0
 40
0
 40
0
 40
0
 40
0
 40
1
 40
1
 40
1
 40
1
 10
36.381326
 20
29.636627
 30
0.0
 10
36.333551
 20
29.794640
 30
0.0
 10
36.309667
 20
29.939793
 30
0.0
 10
36.309670
 20
30.072087
 30
0.0
  0
SPLINE
  5
159
100
AcDbEntity
  8
Layer_1
 62
7
100
AcDbSpline
 70
8
 71
3
 72
8
 73
4
 74
0
 40
0
 40
0
 40
0
 40
0
 40
1
 40
1
 40
1
 40
1
 10
36.309670
 20
30.072087
 30
0.0
 10
36.309667
 20
30.255822
 30
0.0
 10
36.342741
 20
30.435886
 30
0.0
 10
36.408888
 20
30.612278
 30
0.0
  0
LWPOLYLINE
  5
15a
100
AcDbEntity
  8
Layer_1
 62
7
100
AcDbPolyline
 90
2
 70
1
 10
39.506717
 20
29.636627
 30
0.0
 10
36.381326
 20
29.636627
 30
0.0
  0
SPLINE
  5
15b
100
AcDbEntity
  8
Layer_1
 62
7
100
AcDbSpline
 70
8
 71
3
 72
8
 73
4
 74
0
 40
0
 40
0
 40
0
 40
0
 40
1
 40
1
 40
1
 40
1
 10
37.456197
 20
30.612278
 30
0.0
 10
37.382698
 20
31.020173
 30
0.0
 10
37.153026
 20
31.224124
 30
0.0
 10
36.767177
 20
31.224127
 30
0.0
  0
SPLINE
  5
15c
100
AcDbEntity
  8
Layer_1
 62
7
100
AcDbSpline
 70
8
 71
3
 72
8
 73
4
 74
0
 40
0
 40
0
 40
0
 40
0
 40
1
 40
1
 40
1
 40
1
 10
36.767177
 20
31.224127
 30
0.0
 10
36.509940
 20
31.224124
 30
0.0
 10
36.300481
 20
31.114800
 30
0.0
 10
36.138793
 20
30.896154
 30
0.0
  0
SPLINE
  5
15d
100
AcDbEntity
  8
Layer_1
 62
7
100
AcDbSpline
 70
8
 71
3
 72
8
 73
4
 74
0
 40
0
 40
0
 40
0
 40
0
 40
1
 40
1
 40
1
 40
1
 10
36.138793
 20
30.896154
 30
0.0
 10
35.977099
 20
30.677502
 30
0.0
 10
35.896256
 20
30.397300
 30
0.0
 10
35.896256
 20
30.055552
 30
0.0
  0
SPLINE
  5
15e
100
AcDbEntity
  8
Layer_1
 62
7
100
AcDbSpline
 70
8
 71
3
 72
8
 73
4
 74
0
 40
0
 40
0
 40
0
 40
0
 40
1
 40
1
 40
1
 40
1
 10
35.896256
 20
30.055552
 30
0.0
 10
35.896256
 20
29.699097
 30
0.0
 10
35.974345
 20
29.410626
 30
0.0
 10
36.130524
 20
29.190143
 30
0.0
  0
SPLINE
  5
15f
100
AcDbEntity
  8
Layer_1
 62
7
100
AcDbSpline
 70
8
 71
3
 72
8
 73
4
 74
0
 40
0
 40
0
 40
0
 40
0
 40
1
 40
1
 40
1
 40
1
 10
36.130524
 20
29.190143
 30
0.0
 10
36.286700
 20
28.969654
 30
0.0
 10
36.491568
 20
28.859412
 30
0.0
 10
36.745130
 20
28.859415
 30
0.0
  0
SPLINE
  5
160
100
AcDbEntity
  8
Layer_1
 62
7
100
AcDbSpline
 70
8
 71
3
 72
8
 73
4
 74
0
 40
0
 40
0
 40
0
 40
0
 40
1
 40
1
 40
1
 40
1
 10
36.745130
 20
28.859415
 30
0.0
 10
36.950912
 20
28.859412
 30
0.0
 10
37.149351
 20
28.962305
 30
0.0
 10
37.340441
 20
29.168096
 30
0.0
  0
LWPOLYLINE
  5
161
100
AcDbEntity
  8
Layer_1
 62
7
100
AcDbPolyline
 90
2
 70
1
 10
36.408888
 20
30.612278
 30
0.0
 10
37.456197
 20
30.612278
 30
0.0
  0
SPLINE
  5
162
100
AcDbEntity
  8
Layer_1
 62
7
100
AcDbSpline
 70
8
 71
3
 72
8
 73
4
 74
0
 40
0
 40
0
 40
0
 40
0
 40
1
 40
1
 40
1
 40
1
 10
38.514531
 20
27.756985
 30
0.0
 10
37.966986
 20
27.327036
 30
0.0
 10
37.358811
 20
27.112062
 30
0.0
 10
36.690006
 20
27.112062
 30
0.0
  0
SPLINE
  5
163
100
AcDbEntity
  8
Layer_1
 62
7
100
AcDbSpline
 70
8
 71
3
 72
8
 73
4
 74
0
 40
0
 40
0
 40
0
 40
0
 40
1
 40
1
 40
1
 40
1
 10
36.690006
 20
27.112062
 30
0.0
 10
35.874206
 20
27.112062
 30
0.0
 10
35.188864
 20
27.385831
 30
0.0
 10
34.633975
 20
27.933373
 30
0.0
  0
SPLINE
  5
164
100
AcDbEntity
  8
Layer_1
 62
7
100
AcDbSpline
 70
8
 71
3
 72
8
 73
4
 74
0
 40
0
 40
0
 40
0
 40
0
 40
1
 40
1
 40
1
 40
1
 10
34.633975
 20
27.933373
 30
0.0
 10
34.079084
 20
28.480910
 30
0.0
 10
33.801640
 20
29.158906
 30
0.0
 10
33.801640
 20
29.967357
 30
0.0
  0
SPLINE
  5
165
100
AcDbEntity
  8
Layer_1
 62
7
100
AcDbSpline
 70
8
 71
3
 72
8
 73
4
 74
0
 40
0
 40
0
 40
0
 40
0
 40
1
 40
1
 40
1
 40
1
 10
33.801640
 20
29.967357
 30
0.0
 10
33.801640
 20
30.772128
 30
0.0
 10
34.081841
 20
31.451959
 30
0.0
 10
34.642242
 20
32.006853
 30
0.0
  0
SPLINE
  5
166
100
AcDbEntity
  8
Layer_1
 62
7
100
AcDbSpline
 70
8
 71
3
 72
8
 73
4
 74
0
 40
0
 40
0
 40
0
 40
0
 40
1
 40
1
 40
1
 40
1
 10
34.642242
 20
32.006853
 30
0.0
 10
35.202645
 20
32.561739
 30
0.0
 10
35.890742
 20
32.839183
 30
0.0
 10
36.706545
 20
32.839189
 30
0.0
  0
SPLINE
  5
167
100
AcDbEntity
  8
Layer_1
 62
7
100
AcDbSpline
 70
8
 71
3
 72
8
 73
4
 74
0
 40
0
 40
0
 40
0
 40
0
 40
1
 40
1
 40
1
 40
1
 10
36.706545
 20
32.839189
 30
0.0
 10
37.503964
 20
32.839183
 30
0.0
 10
38.173691
 20
32.568168
 30
0.0
 10
38.715724
 20
32.026146
 30
0.0
  0
SPLINE
  5
168
100
AcDbEntity
  8
Layer_1
 62
7
100
AcDbSpline
 70
8
 71
3
 72
8
 73
4
 74
0
 40
0
 40
0
 40
0
 40
0
 40
1
 40
1
 40
1
 40
1
 10
38.715724
 20
32.026146
 30
0.0
 10
39.257746
 20
31.484113
 30
0.0
 10
39.528761
 20
30.816225
 30
0.0
 10
39.528767
 20
30.022478
 30
0.0
  0
SPLINE
  5
169
100
AcDbEntity
  8
Layer_1
 62
7
100
AcDbSpline
 70
8
 71
3
 72
8
 73
4
 74
0
 40
0
 40
0
 40
0
 40
0
 40
1
 40
1
 40
1
 40
1
 10
39.528767
 20
30.022478
 30
0.0
 10
39.528761
 20
29.941630
 30
0.0
 10
39.521401
 20
29.813013
 30
0.0
 10
39.506725
 20
29.636627
 30
0.0
  0
LWPOLYLINE
  5
16a
100
AcDbEntity
  8
Layer_1
 62
7
100
AcDbPolyline
 90
2
 70
1
 10
37.340441
 20
29.168096
 30
0.0
 10
38.514531
 20
27.756985
 30
0.0
  0
LWPOLYLINE
  5
16b
100
AcDbEntity
  8
Layer_1
 62
7
100
AcDbPolyline
 90
2
 70
1
 10
39.506725
 20
29.636627
 30
0.0
 10
39.506717
 20
29.636627
 30
0.0
  0
SPLINE
  5
16c
100
AcDbEntity
  8
Layer_1
 62
7
100
AcDbSpline
 70
8
 71
3
 72
8
 73
4
 74
0
 40
0
 40
0
 40
0
 40
0
 40
1
 40
1
 40
1
 40
1
 10
90.755566
 20
32.635238
 30
0.0
 10
90.593872
 20
32.690353
 30
0.0
 10
90.468930
 20
32.717915
 30
0.0
 10
90.380741
 20
32.717921
 30
0.0
  0
SPLINE
  5
16d
100
AcDbEntity
  8
Layer_1
 62
7
100
AcDbSpline
 70
8
 71
3
 72
8
 73
4
 74
0
 40
0
 40
0
 40
0
 40
0
 40
1
 40
1
 40
1
 40
1
 10
90.380741
 20
32.717921
 30
0.0
 10
90.211696
 20
32.717915
 30
0.0
 10
90.066543
 20
32.655445
 30
0.0
 10
89.945281
 20
32.530508
 30
0.0
  0
SPLINE
  5
16e
100
AcDbEntity
  8
Layer_1
 62
7
100
AcDbSpline
 70
8
 71
3
 72
8
 73
4
 74
0
 40
0
 40
0
 40
0
 40
0
 40
1
 40
1
 40
1
 40
1
 10
89.945281
 20
32.530508
 30
0.0
 10
89.824010
 20
32.405560
 30
0.0
 10
89.763374
 20
32.254896
 30
0.0
 10
89.763380
 20
32.078512
 30
0.0
  0
SPLINE
  5
16f
100
AcDbEntity
  8
Layer_1
 62
7
100
AcDbSpline
 70
8
 71
3
 72
8
 73
4
 74
0
 40
0
 40
0
 40
0
 40
0
 40
1
 40
1
 40
1
 40
1
 10
89.763380
 20
32.078512
 30
0.0
 10
89.763374
 20
31.927840
 30
0.0
 10
89.829521
 20
31.736752
 30
0.0
 10
89.961816
 20
31.505248
 30
0.0
  0
LWPOLYLINE
  5
170
100
AcDbEntity
  8
Layer_1
 62
7
100
AcDbPolyline
 90
2
 70
1
 10
90.755566
 20
34.779466
 30
0.0
 10
90.755566
 20
32.635238
 30
0.0
  0
SPLINE
  5
171
100
AcDbEntity
  8
Layer_1
 62
7
100
AcDbSpline
 70
8
 71
3
 72
8
 73
4
 74
0
 40
0
 40
0
 40
0
 40
0
 40
1
 40
1
 40
1
 40
1
 10
90.132693
 20
31.207591
 30
0.0
 10
90.441371
 20
30.671070
 30
0.0
 10
90.595710
 20
30.152930
 30
0.0
 10
90.595712
 20
29.653165
 30
0.0
  0
SPLINE
  5
172
100
AcDbEntity
  8
Layer_1
 62
7
100
AcDbSpline
 70
8
 71
3
 72
8
 73
4
 74
0
 40
0
 40
0
 40
0
 40
0
 40
1
 40
1
 40
1
 40
1
 10
90.595712
 20
29.653165
 30
0.0
 10
90.595710
 20
28.921882
 30
0.0
 10
90.335721
 20
28.302684
 30
0.0
 10
89.815743
 20
27.795567
 30
0.0
  0
SPLINE
  5
173
100
AcDbEntity
  8
Layer_1
 62
7
100
AcDbSpline
 70
8
 71
3
 72
8
 73
4
 74
0
 40
0
 40
0
 40
0
 40
0
 40
1
 40
1
 40
1
 40
1
 10
89.815743
 20
27.795567
 30
0.0
 10
89.295760
 20
27.288450
 30
0.0
 10
88.660946
 20
27.034891
 30
0.0
 10
87.911297
 20
27.034891
 30
0.0
  0
SPLINE
  5
174
100
AcDbEntity
  8
Layer_1
 62
7
100
AcDbSpline
 70
8
 71
3
 72
8
 73
4
 74
0
 40
0
 40
0
 40
0
 40
0
 40
1
 40
1
 40
1
 40
1
 10
87.911297
 20
27.034891
 30
0.0
 10
87.551167
 20
27.034891
 30
0.0
 10
87.194715
 20
27.117573
 30
0.0
 10
86.841937
 20
27.282939
 30
0.0
  0
LWPOLYLINE
  5
175
100
AcDbEntity
  8
Layer_1
 62
7
100
AcDbPolyline
 90
2
 70
1
 10
89.961816
 20
31.505248
 30
0.0
 10
90.132693
 20
31.207591
 30
0.0
  0
SPLINE
  5
176
100
AcDbEntity
  8
Layer_1
 62
7
100
AcDbSpline
 70
8
 71
3
 72
8
 73
4
 74
0
 40
0
 40
0
 40
0
 40
0
 40
1
 40
1
 40
1
 40
1
 10
86.841937
 20
29.460238
 30
0.0
 10
87.055074
 20
29.324269
 30
0.0
 10
87.244324
 20
29.256287
 30
0.0
 10
87.409689
 20
29.256290
 30
0.0
  0
SPLINE
  5
177
100
AcDbEntity
  8
Layer_1
 62
7
100
AcDbSpline
 70
8
 71
3
 72
8
 73
4
 74
0
 40
0
 40
0
 40
0
 40
0
 40
1
 40
1
 40
1
 40
1
 10
87.409689
 20
29.256290
 30
0.0
 10
87.604450
 20
29.256287
 30
0.0
 10
87.767058
 20
29.312328
 30
0.0
 10
87.897516
 20
29.424410
 30
0.0
  0
SPLINE
  5
178
100
AcDbEntity
  8
Layer_1
 62
7
100
AcDbSpline
 70
8
 71
3
 72
8
 73
4
 74
0
 40
0
 40
0
 40
0
 40
0
 40
1
 40
1
 40
1
 40
1
 10
87.897516
 20
29.424410
 30
0.0
 10
88.027967
 20
29.536489
 30
0.0
 10
88.093194
 20
29.677047
 30
0.0
 10
88.093197
 20
29.846089
 30
0.0
  0
SPLINE
  5
179
100
AcDbEntity
  8
Layer_1
 62
7
100
AcDbSpline
 70
8
 71
3
 72
8
 73
4
 74
0
 40
0
 40
0
 40
0
 40
0
 40
1
 40
1
 40
1
 40
1
 10
88.093197
 20
29.846089
 30
0.0
 10
88.093194
 20
29.956328
 30
0.0
 10
87.988465
 20
30.197027
 30
0.0
 10
87.779005
 20
30.568180
 30
0.0
  0
SPLINE
  5
17a
100
AcDbEntity
  8
Layer_1
 62
7
100
AcDbSpline
 70
8
 71
3
 72
8
 73
4
 74
0
 40
0
 40
0
 40
0
 40
0
 40
1
 40
1
 40
1
 40
1
 10
87.779005
 20
30.568180
 30
0.0
 10
87.444600
 20
31.156140
 30
0.0
 10
87.277397
 20
31.744102
 30
0.0
 10
87.277397
 20
32.332069
 30
0.0
  0
SPLINE
  5
17b
100
AcDbEntity
  8
Layer_1
 62
7
100
AcDbSpline
 70
8
 71
3
 72
8
 73
4
 74
0
 40
0
 40
0
 40
0
 40
0
 40
1
 40
1
 40
1
 40
1
 10
87.277397
 20
32.332069
 30
0.0
 10
87.277397
 20
33.041294
 30
0.0
 10
87.530037
 20
33.652223
 30
0.0
 10
88.035319
 20
34.164860
 30
0.0
  0
SPLINE
  5
17c
100
AcDbEntity
  8
Layer_1
 62
7
100
AcDbSpline
 70
8
 71
3
 72
8
 73
4
 74
0
 40
0
 40
0
 40
0
 40
0
 40
1
 40
1
 40
1
 40
1
 10
88.035319
 20
34.164860
 30
0.0
 10
88.540598
 20
34.677483
 30
0.0
 10
89.144179
 20
34.933800
 30
0.0
 10
89.846060
 20
34.933805
 30
0.0
  0
SPLINE
  5
17d
100
AcDbEntity
  8
Layer_1
 62
7
100
AcDbSpline
 70
8
 71
3
 72
8
 73
4
 74
0
 40
0
 40
0
 40
0
 40
0
 40
1
 40
1
 40
1
 40
1
 10
89.846060
 20
34.933805
 30
0.0
 10
90.154737
 20
34.933800
 30
0.0
 10
90.457906
 20
34.882351
 30
0.0
 10
90.755566
 20
34.779466
 30
0.0
  0
LWPOLYLINE
  5
17e
100
AcDbEntity
  8
Layer_1
 62
7
100
AcDbPolyline
 90
2
 70
1
 10
86.841937
 20
27.282939
 30
0.0
 10
86.841937
 20
29.460238
 30
0.0
  0
LWPOLYLINE
  5
17f
100
AcDbEntity
  8
Layer_1
 62
7
100
AcDbPolyline
 90
2
 70
1
 10
90.755566
 20
34.779466
 30
0.0
 10
90.755566
 20
34.779466
 30
0.0
  0
SPLINE
  5
180
100
AcDbEntity
  8
Layer_1
 62
7
100
AcDbSpline
 70
8
 71
3
 72
8
 73
4
 74
0
 40
0
 40
0
 40
0
 40
0
 40
1
 40
1
 40
1
 40
1
 10
92.778526
 20
35.170830
 30
0.0
 10
93.057808
 20
35.170821
 30
0.0
 10
93.299424
 20
35.072520
 30
0.0
 10
93.503375
 20
34.875927
 30
0.0
  0
SPLINE
  5
181
100
AcDbEntity
  8
Layer_1
 62
7
100
AcDbSpline
 70
8
 71
3
 72
8
 73
4
 74
0
 40
0
 40
0
 40
0
 40
0
 40
1
 40
1
 40
1
 40
1
 10
93.503375
 20
34.875927
 30
0.0
 10
93.707323
 20
34.679320
 30
0.0
 10
93.809295
 20
34.446893
 30
0.0
 10
93.809298
 20
34.178641
 30
0.0
  0
SPLINE
  5
182
100
AcDbEntity
  8
Layer_1
 62
7
100
AcDbSpline
 70
8
 71
3
 72
8
 73
4
 74
0
 40
0
 40
0
 40
0
 40
0
 40
1
 40
1
 40
1
 40
1
 10
93.809298
 20
34.178641
 30
0.0
 10
93.809295
 20
33.892002
 30
0.0
 10
93.712834
 20
33.656818
 30
0.0
 10
93.519910
 20
33.473085
 30
0.0
  0
SPLINE
  5
183
100
AcDbEntity
  8
Layer_1
 62
7
100
AcDbSpline
 70
8
 71
3
 72
8
 73
4
 74
0
 40
0
 40
0
 40
0
 40
0
 40
1
 40
1
 40
1
 40
1
 10
93.519910
 20
33.473085
 30
0.0
 10
93.326983
 20
33.289342
 30
0.0
 10
93.079855
 20
33.197473
 30
0.0
 10
92.778526
 20
33.197478
 30
0.0
  0
SPLINE
  5
184
100
AcDbEntity
  8
Layer_1
 62
7
100
AcDbSpline
 70
8
 71
3
 72
8
 73
4
 74
0
 40
0
 40
0
 40
0
 40
0
 40
1
 40
1
 40
1
 40
1
 10
92.778526
 20
33.197478
 30
0.0
 10
92.477195
 20
33.197473
 30
0.0
 10
92.230067
 20
33.289342
 30
0.0
 10
92.037143
 20
33.473085
 30
0.0
  0
SPLINE
  5
185
100
AcDbEntity
  8
Layer_1
 62
7
100
AcDbSpline
 70
8
 71
3
 72
8
 73
4
 74
0
 40
0
 40
0
 40
0
 40
0
 40
1
 40
1
 40
1
 40
1
 10
92.037143
 20
33.473085
 30
0.0
 10
91.844216
 20
33.656818
 30
0.0
 10
91.747752
 20
33.892002
 30
0.0
 10
91.747755
 20
34.178641
 30
0.0
  0
SPLINE
  5
186
100
AcDbEntity
  8
Layer_1
 62
7
100
AcDbSpline
 70
8
 71
3
 72
8
 73
4
 74
0
 40
0
 40
0
 40
0
 40
0
 40
1
 40
1
 40
1
 40
1
 10
91.747755
 20
34.178641
 30
0.0
 10
91.747752
 20
34.446893
 30
0.0
 10
91.849727
 20
34.679320
 30
0.0
 10
92.053678
 20
34.875927
 30
0.0
  0
SPLINE
  5
187
100
AcDbEntity
  8
Layer_1
 62
7
100
AcDbSpline
 70
8
 71
3
 72
8
 73
4
 74
0
 40
0
 40
0
 40
0
 40
0
 40
1
 40
1
 40
1
 40
1
 10
92.053678
 20
34.875927
 30
0.0
 10
92.257626
 20
35.072520
 30
0.0
 10
92.499242
 20
35.170821
 30
0.0
 10
92.778526
 20
35.170830
 30
0.0
  0
LWPOLYLINE
  5
188
100
AcDbEntity
  8
Layer_1
 62
7
100
AcDbPolyline
 90
5
 70
1
 10
93.803786
 20
32.717921
 30
0.0
 10
93.803786
 20
27.222303
 30
0.0
 10
91.742240
 20
27.222303
 30
0.0
 10
91.742240
 20
32.717921
 30
0.0
 10
93.803786
 20
32.717921
 30
0.0
  0
LWPOLYLINE
  5
189
100
AcDbEntity
  8
Layer_1
 62
7
100
AcDbPolyline
 90
2
 70
1
 10
92.778526
 20
35.170830
 30
0.0
 10
92.778526
 20
35.170830
 30
0.0
  0
SPLINE
  5
18a
100
AcDbEntity
  8
Layer_1
 62
7
100
AcDbSpline
 70
8
 71
3
 72
8
 73
4
 74
0
 40
0
 40
0
 40
0
 40
0
 40
1
 40
1
 40
1
 40
1
 10
97.866242
 20
30.325647
 30
0.0
 10
97.866240
 20
30.641674
 30
0.0
 10
97.735785
 20
30.799687
 30
0.0
 10
97.474879
 20
30.799693
 30
0.0
  0
SPLINE
  5
18b
100
AcDbEntity
  8
Layer_1
 62
7
100
AcDbSpline
 70
8
 71
3
 72
8
 73
4
 74
0
 40
0
 40
0
 40
0
 40
0
 40
1
 40
1
 40
1
 40
1
 10
97.474879
 20
30.799693
 30
0.0
 10
97.217645
 20
30.799687
 30
0.0
 10
97.089028
 20
30.641674
 30
0.0
 10
97.089031
 20
30.325647
 30
0.0
  0
LWPOLYLINE
  5
18c
100
AcDbEntity
  8
Layer_1
 62
7
100
AcDbPolyline
 90
3
 70
1
 10
99.927788
 20
27.222303
 30
0.0
 10
97.866242
 20
27.222303
 30
0.0
 10
97.866242
 20
30.325647
 30
0.0
  0
SPLINE
  5
18d
100
AcDbEntity
  8
Layer_1
 62
7
100
AcDbSpline
 70
8
 71
3
 72
8
 73
4
 74
0
 40
0
 40
0
 40
0
 40
0
 40
1
 40
1
 40
1
 40
1
 10
95.027485
 20
30.287062
 30
0.0
 10
95.027485
 20
31.003638
 30
0.0
 10
95.264506
 20
31.607218
 30
0.0
 10
95.738552
 20
32.097802
 30
0.0
  0
SPLINE
  5
18e
100
AcDbEntity
  8
Layer_1
 62
7
100
AcDbSpline
 70
8
 71
3
 72
8
 73
4
 74
0
 40
0
 40
0
 40
0
 40
0
 40
1
 40
1
 40
1
 40
1
 10
95.738552
 20
32.097802
 30
0.0
 10
96.212595
 20
32.588381
 30
0.0
 10
96.793208
 20
32.833671
 30
0.0
 10
97.480394
 20
32.833677
 30
0.0
  0
SPLINE
  5
18f
100
AcDbEntity
  8
Layer_1
 62
7
100
AcDbSpline
 70
8
 71
3
 72
8
 73
4
 74
0
 40
0
 40
0
 40
0
 40
0
 40
1
 40
1
 40
1
 40
1
 10
97.480394
 20
32.833677
 30
0.0
 10
98.266789
 20
32.833671
 30
0.0
 10
98.897011
 20
32.548875
 30
0.0
 10
99.371060
 20
31.979291
 30
0.0
  0
SPLINE
  5
190
100
AcDbEntity
  8
Layer_1
 62
7
100
AcDbSpline
 70
8
 71
3
 72
8
 73
4
 74
0
 40
0
 40
0
 40
0
 40
0
 40
1
 40
1
 40
1
 40
1
 10
99.371060
 20
31.979291
 30
0.0
 10
99.742207
 20
31.534642
 30
0.0
 10
99.927783
 20
30.915443
 30
0.0
 10
99.927788
 20
30.121696
 30
0.0
  0
LWPOLYLINE
  5
191
100
AcDbEntity
  8
Layer_1
 62
7
100
AcDbPolyline
 90
4
 70
1
 10
97.089031
 20
30.325647
 30
0.0
 10
97.089031
 20
27.222303
 30
0.0
 10
95.027485
 20
27.222303
 30
0.0
 10
95.027485
 20
30.287062
 30
0.0
  0
LWPOLYLINE
  5
192
100
AcDbEntity
  8
Layer_1
 62
7
100
AcDbPolyline
 90
2
 70
1
 10
99.927788
 20
30.121696
 30
0.0
 10
99.927788
 20
27.222303
 30
0.0
  0
LWPOLYLINE
  5
193
100
AcDbEntity
  8
Layer_1
 62
7
100
AcDbPolyline
 90
5
 70
1
 10
103.196494
 20
34.746393
 30
0.0
 10
103.196494
 20
27.222303
 30
0.0
 10
101.134949
 20
27.222303
 30
0.0
 10
101.134949
 20
34.746393
 30
0.0
 10
103.196494
 20
34.746393
 30
0.0
  0
SPLINE
  5
194
100
AcDbEntity
  8
Layer_1
 62
7
100
AcDbSpline
 70
8
 71
3
 72
8
 73
4
 74
0
 40
0
 40
0
 40
0
 40
0
 40
1
 40
1
 40
1
 40
1
 10
52.012108
 20
107.916269
 30
0.0
 10
53.077787
 20
107.916260
 30
0.0
 10
53.991883
 20
107.528572
 30
0.0
 10
54.754405
 20
106.753203
 30
0.0
  0
SPLINE
  5
195
100
AcDbEntity
  8
Layer_1
 62
7
100
AcDbSpline
 70
8
 71
3
 72
8
 73
4
 74
0
 40
0
 40
0
 40
0
 40
0
 40
1
 40
1
 40
1
 40
1
 10
54.754405
 20
106.753203
 30
0.0
 10
55.516910
 20
105.977823
 30
0.0
 10
55.898167
 20
105.049944
 30
0.0
 10
55.898175
 20
103.969566
 30
0.0
  0
SPLINE
  5
196
100
AcDbEntity
  8
Layer_1
 62
7
100
AcDbSpline
 70
8
 71
3
 72
8
 73
4
 74
0
 40
0
 40
0
 40
0
 40
0
 40
1
 40
1
 40
1
 40
1
 10
55.898175
 20
103.969566
 30
0.0
 10
55.898167
 20
102.870807
 30
0.0
 10
55.514155
 20
101.937416
 30
0.0
 10
54.746136
 20
101.169394
 30
0.0
  0
SPLINE
  5
197
100
AcDbEntity
  8
Layer_1
 62
7
100
AcDbSpline
 70
8
 71
3
 72
8
 73
4
 74
0
 40
0
 40
0
 40
0
 40
0
 40
1
 40
1
 40
1
 40
1
 10
54.746136
 20
101.169394
 30
0.0
 10
53.978104
 20
100.401366
 30
0.0
 10
53.044714
 20
100.017354
 30
0.0
 10
51.945963
 20
100.017351
 30
0.0
  0
SPLINE
  5
198
100
AcDbEntity
  8
Layer_1
 62
7
100
AcDbSpline
 70
8
 71
3
 72
8
 73
4
 74
0
 40
0
 40
0
 40
0
 40
0
 40
1
 40
1
 40
1
 40
1
 10
51.945963
 20
100.017351
 30
0.0
 10
50.854554
 20
100.017354
 30
0.0
 10
49.923000
 20
100.403203
 30
0.0
 10
49.151300
 20
101.174906
 30
0.0
  0
SPLINE
  5
199
100
AcDbEntity
  8
Layer_1
 62
7
100
AcDbSpline
 70
8
 71
3
 72
8
 73
4
 74
0
 40
0
 40
0
 40
0
 40
0
 40
1
 40
1
 40
1
 40
1
 10
49.151300
 20
101.174906
 30
0.0
 10
48.379600
 20
101.946606
 30
0.0
 10
47.993749
 20
102.878156
 30
0.0
 10
47.993749
 20
103.969566
 30
0.0
  0
SPLINE
  5
19a
100
AcDbEntity
  8
Layer_1
 62
7
100
AcDbSpline
 70
8
 71
3
 72
8
 73
4
 74
0
 40
0
 40
0
 40
0
 40
0
 40
1
 40
1
 40
1
 40
1
 10
47.993749
 20
103.969566
 30
0.0
 10
47.993749
 20
105.071991
 30
0.0
 10
48.382355
 20
106.005382
 30
0.0
 10
49.159569
 20
106.769741
 30
0.0
  0
SPLINE
  5
19b
100
AcDbEntity
  8
Layer_1
 62
7
100
AcDbSpline
 70
8
 71
3
 72
8
 73
4
 74
0
 40
0
 40
0
 40
0
 40
0
 40
1
 40
1
 40
1
 40
1
 10
49.159569
 20
106.769741
 30
0.0
 10
49.936781
 20
107.534083
 30
0.0
 10
50.887627
 20
107.916260
 30
0.0
 10
52.012108
 20
107.916269
 30
0.0
  0
LWPOLYLINE
  5
19c
100
AcDbEntity
  8
Layer_1
 62
7
100
AcDbPolyline
 90
7
 70
1
 10
106.354959
 20
32.717921
 30
0.0
 10
105.346235
 20
30.717010
 30
0.0
 10
106.845540
 20
27.222303
 30
0.0
 10
104.563508
 20
27.222303
 30
0.0
 10
103.273665
 20
30.810716
 30
0.0
 10
104.210731
 20
32.717921
 30
0.0
 10
106.354959
 20
32.717921
 30
0.0
  0
SPLINE
  5
19d
100
AcDbEntity
  8
Layer_1
 62
7
100
AcDbSpline
 70
8
 71
3
 72
8
 73
4
 74
0
 40
0
 40
0
 40
0
 40
0
 40
1
 40
1
 40
1
 40
1
 10
51.945963
 20
105.700381
 30
0.0
 10
51.486613
 20
105.700376
 30
0.0
 10
51.095250
 20
105.531339
 30
0.0
 10
50.771874
 20
105.193265
 30
0.0
  0
SPLINE
  5
19e
100
AcDbEntity
  8
Layer_1
 62
7
100
AcDbSpline
 70
8
 71
3
 72
8
 73
4
 74
0
 40
0
 40
0
 40
0
 40
0
 40
1
 40
1
 40
1
 40
1
 10
50.771874
 20
105.193265
 30
0.0
 10
50.448492
 20
104.855182
 30
0.0
 10
50.286801
 20
104.447281
 30
0.0
 10
50.286804
 20
103.969566
 30
0.0
  0
SPLINE
  5
19f
100
AcDbEntity
  8
Layer_1
 62
7
100
AcDbSpline
 70
8
 71
3
 72
8
 73
4
 74
0
 40
0
 40
0
 40
0
 40
0
 40
1
 40
1
 40
1
 40
1
 10
50.286804
 20
103.969566
 30
0.0
 10
50.286801
 20
103.491843
 30
0.0
 10
50.449409
 20
103.083944
 30
0.0
 10
50.774631
 20
102.745867
 30
0.0
  0
SPLINE
  5
1a0
100
AcDbEntity
  8
Layer_1
 62
7
100
AcDbSpline
 70
8
 71
3
 72
8
 73
4
 74
0
 40
0
 40
0
 40
0
 40
0
 40
1
 40
1
 40
1
 40
1
 10
50.774631
 20
102.745867
 30
0.0
 10
51.099844
 20
102.407788
 30
0.0
 10
51.490287
 20
102.238748
 30
0.0
 10
51.945963
 20
102.238751
 30
0.0
  0
SPLINE
  5
1a1
100
AcDbEntity
  8
Layer_1
 62
7
100
AcDbSpline
 70
8
 71
3
 72
8
 73
4
 74
0
 40
0
 40
0
 40
0
 40
0
 40
1
 40
1
 40
1
 40
1
 10
51.945963
 20
102.238751
 30
0.0
 10
52.408980
 20
102.238748
 30
0.0
 10
52.801260
 20
102.406868
 30
0.0
 10
53.122807
 20
102.743113
 30
0.0
  0
SPLINE
  5
1a2
100
AcDbEntity
  8
Layer_1
 62
7
100
AcDbSpline
 70
8
 71
3
 72
8
 73
4
 74
0
 40
0
 40
0
 40
0
 40
0
 40
1
 40
1
 40
1
 40
1
 10
53.122807
 20
102.743113
 30
0.0
 10
53.444343
 20
103.079350
 30
0.0
 10
53.605114
 20
103.488168
 30
0.0
 10
53.605120
 20
103.969566
 30
0.0
  0
SPLINE
  5
1a3
100
AcDbEntity
  8
Layer_1
 62
7
100
AcDbSpline
 70
8
 71
3
 72
8
 73
4
 74
0
 40
0
 40
0
 40
0
 40
0
 40
1
 40
1
 40
1
 40
1
 10
53.605120
 20
103.969566
 30
0.0
 10
53.605114
 20
104.450958
 30
0.0
 10
53.444343
 20
104.859774
 30
0.0
 10
53.122807
 20
105.196019
 30
0.0
  0
SPLINE
  5
1a4
100
AcDbEntity
  8
Layer_1
 62
7
100
AcDbSpline
 70
8
 71
3
 72
8
 73
4
 74
0
 40
0
 40
0
 40
0
 40
0
 40
1
 40
1
 40
1
 40
1
 10
53.122807
 20
105.196019
 30
0.0
 10
52.801260
 20
105.532256
 30
0.0
 10
52.408980
 20
105.700376
 30
0.0
 10
51.945963
 20
105.700381
 30
0.0
  0
LWPOLYLINE
  5
1a5
100
AcDbEntity
  8
Layer_1
 62
7
100
AcDbPolyline
 90
2
 70
1
 10
52.012108
 20
107.916269
 30
0.0
 10
52.012108
 20
107.916269
 30
0.0
  0
LWPOLYLINE
  5
1a6
100
AcDbEntity
  8
Layer_1
 62
7
100
AcDbPolyline
 90
2
 70
1
 10
51.945963
 20
105.700381
 30
0.0
 10
51.945963
 20
105.700381
 30
0.0
  0
LWPOLYLINE
  5
1a7
100
AcDbEntity
  8
Layer_1
 62
7
100
AcDbPolyline
 90
7
 70
1
 10
60.930773
 20
105.700381
 30
0.0
 10
58.362108
 20
99.989792
 30
0.0
 10
55.826519
 20
105.700381
 30
0.0
 10
57.794356
 20
105.700381
 30
0.0
 10
58.378646
 20
104.217614
 30
0.0
 10
59.018054
 20
105.700381
 30
0.0
 10
60.930773
 20
105.700381
 30
0.0
  0
SPLINE
  5
1a8
100
AcDbEntity
  8
Layer_1
 62
7
100
AcDbSpline
 70
8
 71
3
 72
8
 73
4
 74
0
 40
0
 40
0
 40
0
 40
0
 40
1
 40
1
 40
1
 40
1
 10
63.422265
 20
102.619088
 30
0.0
 10
63.374490
 20
102.777101
 30
0.0
 10
63.350603
 20
102.922253
 30
0.0
 10
63.350606
 20
103.054548
 30
0.0
  0
SPLINE
  5
1a9
100
AcDbEntity
  8
Layer_1
 62
7
100
AcDbSpline
 70
8
 71
3
 72
8
 73
4
 74
0
 40
0
 40
0
 40
0
 40
0
 40
1
 40
1
 40
1
 40
1
 10
63.350606
 20
103.054548
 30
0.0
 10
63.350603
 20
103.238283
 30
0.0
 10
63.383676
 20
103.418346
 30
0.0
 10
63.449827
 20
103.594741
 30
0.0
  0
LWPOLYLINE
  5
1aa
100
AcDbEntity
  8
Layer_1
 62
7
100
AcDbPolyline
 90
2
 70
1
 10
66.547656
 20
102.619088
 30
0.0
 10
63.422265
 20
102.619088
 30
0.0
  0
SPLINE
  5
1ab
100
AcDbEntity
  8
Layer_1
 62
7
100
AcDbSpline
 70
8
 71
3
 72
8
 73
4
 74
0
 40
0
 40
0
 40
0
 40
0
 40
1
 40
1
 40
1
 40
1
 10
64.497133
 20
103.594741
 30
0.0
 10
64.423634
 20
104.002637
 30
0.0
 10
64.193962
 20
104.206585
 30
0.0
 10
63.808116
 20
104.206588
 30
0.0
  0
SPLINE
  5
1ac
100
AcDbEntity
  8
Layer_1
 62
7
100
AcDbSpline
 70
8
 71
3
 72
8
 73
4
 74
0
 40
0
 40
0
 40
0
 40
0
 40
1
 40
1
 40
1
 40
1
 10
63.808116
 20
104.206588
 30
0.0
 10
63.550879
 20
104.206585
 30
0.0
 10
63.341417
 20
104.097260
 30
0.0
 10
63.179731
 20
103.878617
 30
0.0
  0
SPLINE
  5
1ad
100
AcDbEntity
  8
Layer_1
 62
7
100
AcDbSpline
 70
8
 71
3
 72
8
 73
4
 74
0
 40
0
 40
0
 40
0
 40
0
 40
1
 40
1
 40
1
 40
1
 10
63.179731
 20
103.878617
 30
0.0
 10
63.018038
 20
103.659963
 30
0.0
 10
62.937192
 20
103.379764
 30
0.0
 10
62.937195
 20
103.038013
 30
0.0
  0
SPLINE
  5
1ae
100
AcDbEntity
  8
Layer_1
 62
7
100
AcDbSpline
 70
8
 71
3
 72
8
 73
4
 74
0
 40
0
 40
0
 40
0
 40
0
 40
1
 40
1
 40
1
 40
1
 10
62.937195
 20
103.038013
 30
0.0
 10
62.937192
 20
102.681557
 30
0.0
 10
63.015281
 20
102.393090
 30
0.0
 10
63.171462
 20
102.172603
 30
0.0
  0
SPLINE
  5
1af
100
AcDbEntity
  8
Layer_1
 62
7
100
AcDbSpline
 70
8
 71
3
 72
8
 73
4
 74
0
 40
0
 40
0
 40
0
 40
0
 40
1
 40
1
 40
1
 40
1
 10
63.171462
 20
102.172603
 30
0.0
 10
63.327636
 20
101.952117
 30
0.0
 10
63.532504
 20
101.841873
 30
0.0
 10
63.786066
 20
101.841876
 30
0.0
  0
SPLINE
  5
1b0
100
AcDbEntity
  8
Layer_1
 62
7
100
AcDbSpline
 70
8
 71
3
 72
8
 73
4
 74
0
 40
0
 40
0
 40
0
 40
0
 40
1
 40
1
 40
1
 40
1
 10
63.786066
 20
101.841876
 30
0.0
 10
63.991851
 20
101.841873
 30
0.0
 10
64.190287
 20
101.944768
 30
0.0
 10
64.381380
 20
102.150556
 30
0.0
  0
LWPOLYLINE
  5
1b1
100
AcDbEntity
  8
Layer_1
 62
7
100
AcDbPolyline
 90
2
 70
1
 10
63.449827
 20
103.594741
 30
0.0
 10
64.497133
 20
103.594741
 30
0.0
  0
SPLINE
  5
1b2
100
AcDbEntity
  8
Layer_1
 62
7
100
AcDbSpline
 70
8
 71
3
 72
8
 73
4
 74
0
 40
0
 40
0
 40
0
 40
0
 40
1
 40
1
 40
1
 40
1
 10
65.555467
 20
100.739445
 30
0.0
 10
65.007922
 20
100.309497
 30
0.0
 10
64.399750
 20
100.094522
 30
0.0
 10
63.730945
 20
100.094522
 30
0.0
  0
SPLINE
  5
1b3
100
AcDbEntity
  8
Layer_1
 62
7
100
AcDbSpline
 70
8
 71
3
 72
8
 73
4
 74
0
 40
0
 40
0
 40
0
 40
0
 40
1
 40
1
 40
1
 40
1
 10
63.730945
 20
100.094522
 30
0.0
 10
62.915145
 20
100.094522
 30
0.0
 10
62.229800
 20
100.368292
 30
0.0
 10
61.674911
 20
100.915834
 30
0.0
  0
SPLINE
  5
1b4
100
AcDbEntity
  8
Layer_1
 62
7
100
AcDbSpline
 70
8
 71
3
 72
8
 73
4
 74
0
 40
0
 40
0
 40
0
 40
0
 40
1
 40
1
 40
1
 40
1
 10
61.674911
 20
100.915834
 30
0.0
 10
61.120023
 20
101.463373
 30
0.0
 10
60.842576
 20
102.141367
 30
0.0
 10
60.842579
 20
102.949818
 30
0.0
  0
SPLINE
  5
1b5
100
AcDbEntity
  8
Layer_1
 62
7
100
AcDbSpline
 70
8
 71
3
 72
8
 73
4
 74
0
 40
0
 40
0
 40
0
 40
0
 40
1
 40
1
 40
1
 40
1
 10
60.842579
 20
102.949818
 30
0.0
 10
60.842576
 20
103.754589
 30
0.0
 10
61.122777
 20
104.434420
 30
0.0
 10
61.683180
 20
104.989314
 30
0.0
  0
SPLINE
  5
1b6
100
AcDbEntity
  8
Layer_1
 62
7
100
AcDbSpline
 70
8
 71
3
 72
8
 73
4
 74
0
 40
0
 40
0
 40
0
 40
0
 40
1
 40
1
 40
1
 40
1
 10
61.683180
 20
104.989314
 30
0.0
 10
62.243581
 20
105.544199
 30
0.0
 10
62.931681
 20
105.821644
 30
0.0
 10
63.747481
 20
105.821649
 30
0.0
  0
SPLINE
  5
1b7
100
AcDbEntity
  8
Layer_1
 62
7
100
AcDbSpline
 70
8
 71
3
 72
8
 73
4
 74
0
 40
0
 40
0
 40
0
 40
0
 40
1
 40
1
 40
1
 40
1
 10
63.747481
 20
105.821649
 30
0.0
 10
64.544902
 20
105.821644
 30
0.0
 10
65.214630
 20
105.550631
 30
0.0
 10
65.756660
 20
105.008607
 30
0.0
  0
SPLINE
  5
1b8
100
AcDbEntity
  8
Layer_1
 62
7
100
AcDbSpline
 70
8
 71
3
 72
8
 73
4
 74
0
 40
0
 40
0
 40
0
 40
0
 40
1
 40
1
 40
1
 40
1
 10
65.756660
 20
105.008607
 30
0.0
 10
66.298685
 20
104.466573
 30
0.0
 10
66.569697
 20
103.798686
 30
0.0
 10
66.569703
 20
103.004939
 30
0.0
  0
SPLINE
  5
1b9
100
AcDbEntity
  8
Layer_1
 62
7
100
AcDbSpline
 70
8
 71
3
 72
8
 73
4
 74
0
 40
0
 40
0
 40
0
 40
0
 40
1
 40
1
 40
1
 40
1
 10
66.569703
 20
103.004939
 30
0.0
 10
66.569697
 20
102.924091
 30
0.0
 10
66.562337
 20
102.795476
 30
0.0
 10
66.547661
 20
102.619088
 30
0.0
  0
LWPOLYLINE
  5
1ba
100
AcDbEntity
  8
Layer_1
 62
7
100
AcDbPolyline
 90
2
 70
1
 10
64.381380
 20
102.150556
 30
0.0
 10
65.555467
 20
100.739445
 30
0.0
  0
LWPOLYLINE
  5
1bb
100
AcDbEntity
  8
Layer_1
 62
7
100
AcDbPolyline
 90
2
 70
1
 10
66.547661
 20
102.619088
 30
0.0
 10
66.547656
 20
102.619088
 30
0.0
  0
SPLINE
  5
1bc
100
AcDbEntity
  8
Layer_1
 62
7
100
AcDbSpline
 70
8
 71
3
 72
8
 73
4
 74
0
 40
0
 40
0
 40
0
 40
0
 40
1
 40
1
 40
1
 40
1
 10
70.246311
 20
103.308108
 30
0.0
 10
70.246308
 20
103.624134
 30
0.0
 10
70.115853
 20
103.782151
 30
0.0
 10
69.854947
 20
103.782154
 30
0.0
  0
SPLINE
  5
1bd
100
AcDbEntity
  8
Layer_1
 62
7
100
AcDbSpline
 70
8
 71
3
 72
8
 73
4
 74
0
 40
0
 40
0
 40
0
 40
0
 40
1
 40
1
 40
1
 40
1
 10
69.854947
 20
103.782154
 30
0.0
 10
69.597710
 20
103.782151
 30
0.0
 10
69.469093
 20
103.624134
 30
0.0
 10
69.469096
 20
103.308108
 30
0.0
  0
LWPOLYLINE
  5
1be
100
AcDbEntity
  8
Layer_1
 62
7
100
AcDbPolyline
 90
3
 70
1
 10
72.307856
 20
100.204767
 30
0.0
 10
70.246311
 20
100.204767
 30
0.0
 10
70.246311
 20
103.308108
 30
0.0
  0
SPLINE
  5
1bf
100
AcDbEntity
  8
Layer_1
 62
7
100
AcDbSpline
 70
8
 71
3
 72
8
 73
4
 74
0
 40
0
 40
0
 40
0
 40
0
 40
1
 40
1
 40
1
 40
1
 10
67.407550
 20
103.269522
 30
0.0
 10
67.407550
 20
103.986099
 30
0.0
 10
67.644572
 20
104.589679
 30
0.0
 10
68.118620
 20
105.080266
 30
0.0
  0
SPLINE
  5
1c0
100
AcDbEntity
  8
Layer_1
 62
7
100
AcDbSpline
 70
8
 71
3
 72
8
 73
4
 74
0
 40
0
 40
0
 40
0
 40
0
 40
1
 40
1
 40
1
 40
1
 10
68.118620
 20
105.080266
 30
0.0
 10
68.592663
 20
105.570841
 30
0.0
 10
69.173276
 20
105.816132
 30
0.0
 10
69.860459
 20
105.816138
 30
0.0
  0
SPLINE
  5
1c1
100
AcDbEntity
  8
Layer_1
 62
7
100
AcDbSpline
 70
8
 71
3
 72
8
 73
4
 74
0
 40
0
 40
0
 40
0
 40
0
 40
1
 40
1
 40
1
 40
1
 10
69.860459
 20
105.816138
 30
0.0
 10
70.646854
 20
105.816132
 30
0.0
 10
71.277079
 20
105.531339
 30
0.0
 10
71.751128
 20
104.961755
 30
0.0
  0
SPLINE
  5
1c2
100
AcDbEntity
  8
Layer_1
 62
7
100
AcDbSpline
 70
8
 71
3
 72
8
 73
4
 74
0
 40
0
 40
0
 40
0
 40
0
 40
1
 40
1
 40
1
 40
1
 10
71.751128
 20
104.961755
 30
0.0
 10
72.122273
 20
104.517103
 30
0.0
 10
72.307851
 20
103.897904
 30
0.0
 10
72.307856
 20
103.104157
 30
0.0
  0
LWPOLYLINE
  5
1c3
100
AcDbEntity
  8
Layer_1
 62
7
100
AcDbPolyline
 90
4
 70
1
 10
69.469096
 20
103.308108
 30
0.0
 10
69.469096
 20
100.204767
 30
0.0
 10
67.407550
 20
100.204767
 30
0.0
 10
67.407550
 20
103.269522
 30
0.0
  0
SPLINE
  5
1c4
100
AcDbEntity
  8
Layer_1
 62
5
100
AcDbSpline
 70
8
 71
3
 72
8
 73
4
 74
0
 40
0
 40
0
 40
0
 40
0
 40
1
 40
1
 40
1
 40
1
 10
75.091270
 20
53.773411
 30
0.0
 10
71.964197
 20
61.513929
 30
0.0
 10
50.229620
 20
62.860140
 30
0.0
 10
44.349207
 20
53.118255
 30
0.0
  0
SPLINE
  5
1c5
100
AcDbEntity
  8
Layer_1
 62
5
100
AcDbSpline
 70
8
 71
3
 72
8
 73
4
 74
0
 40
0
 40
0
 40
0
 40
0
 40
1
 40
1
 40
1
 40
1
 10
44.349207
 20
53.118255
 30
0.0
 10
41.882977
 20
48.166457
 30
0.0
 10
41.863775
 20
43.270274
 30
0.0
 10
45.306745
 20
38.452778
 30
0.0
  0
SPLINE
  5
1c6
100
AcDbEntity
  8
Layer_1
 62
5
100
AcDbSpline
 70
8
 71
3
 72
8
 73
4
 74
0
 40
0
 40
0
 40
0
 40
0
 40
1
 40
1
 40
1
 40
1
 10
45.306745
 20
38.452778
 30
0.0
 10
51.324318
 20
29.304186
 30
0.0
 10
70.165547
 20
30.442510
 30
0.0
 10
74.184126
 20
37.596033
 30
0.0
  0
SPLINE
  5
1c7
100
AcDbEntity
  8
Layer_1
 62
5
100
AcDbSpline
 70
8
 71
3
 72
8
 73
4
 74
0
 40
0
 40
0
 40
0
 40
0
 40
1
 40
1
 40
1
 40
1
 10
74.184126
 20
37.596033
 30
0.0
 10
77.712048
 20
42.695261
 30
0.0
 10
77.768247
 20
47.633622
 30
0.0
 10
75.091270
 20
53.773411
 30
0.0
  0
LWPOLYLINE
  5
1c8
100
AcDbEntity
  8
Layer_1
 62
7
100
AcDbPolyline
 90
2
 70
1
 10
72.307856
 20
103.104157
 30
0.0
 10
72.307856
 20
100.204767
 30
0.0
  0
SPLINE
  5
1c9
100
AcDbEntity
  8
Layer_1
 62
5
100
AcDbSpline
 70
8
 71
3
 72
8
 73
4
 74
0
 40
0
 40
0
 40
0
 40
0
 40
1
 40
1
 40
1
 40
1
 10
44.801296
 20
57.878528
 30
0.0
 10
45.198826
 20
58.910790
 30
0.0
 10
45.945939
 20
59.476939
 30
0.0
 10
46.766771
 20
59.944799
 30
0.0
  0
SPLINE
  5
1ca
100
AcDbEntity
  8
Layer_1
 62
5
100
AcDbSpline
 70
8
 71
3
 72
8
 73
4
 74
0
 40
0
 40
0
 40
0
 40
0
 40
1
 40
1
 40
1
 40
1
 10
46.766771
 20
59.944799
 30
0.0
 10
47.066999
 20
60.394969
 30
0.0
 10
47.750053
 20
60.663802
 30
0.0
 10
47.220341
 20
61.507102
 30
0.0
  0
SPLINE
  5
1cb
100
AcDbEntity
  8
Layer_1
 62
5
100
AcDbSpline
 70
8
 71
3
 72
8
 73
4
 74
0
 40
0
 40
0
 40
0
 40
0
 40
1
 40
1
 40
1
 40
1
 10
47.220341
 20
61.507102
 30
0.0
 10
46.764126
 20
61.906751
 30
0.0
 10
45.809984
 20
62.485911
 30
0.0
 10
46.313200
 20
63.321387
 30
0.0
  0
SPLINE
  5
1cc
100
AcDbEntity
  8
Layer_1
 62
5
100
AcDbSpline
 70
8
 71
3
 72
8
 73
4
 74
0
 40
0
 40
0
 40
0
 40
0
 40
1
 40
1
 40
1
 40
1
 10
46.313200
 20
63.321387
 30
0.0
 10
46.217391
 20
63.680151
 30
0.0
 10
46.193865
 20
64.222918
 30
0.0
 10
45.595941
 20
63.303579
 30
0.0
  0
SPLINE
  5
1cd
100
AcDbEntity
  8
Layer_1
 62
5
100
AcDbSpline
 70
8
 71
3
 72
8
 73
4
 74
0
 40
0
 40
0
 40
0
 40
0
 40
1
 40
1
 40
1
 40
1
 10
45.595941
 20
63.303579
 30
0.0
 10
44.958175
 20
61.637585
 30
0.0
 10
44.605200
 20
59.924123
 30
0.0
 10
44.537607
 20
58.163102
 30
0.0
  0
SPLINE
  5
1ce
100
AcDbEntity
  8
Layer_1
 62
5
100
AcDbSpline
 70
8
 71
3
 72
8
 73
4
 74
0
 40
0
 40
0
 40
0
 40
0
 40
1
 40
1
 40
1
 40
1
 10
44.537607
 20
58.163102
 30
0.0
 10
44.483661
 20
57.410460
 30
0.0
 10
44.631754
 20
57.781927
 30
0.0
 10
44.801296
 20
57.878537
 30
0.0
  0
LWPOLYLINE
  5
1cf
100
AcDbEntity
  8
Layer_1
 62
5
100
AcDbPolyline
 90
2
 70
1
 10
75.091270
 20
53.773411
 30
0.0
 10
75.091270
 20
53.773411
 30
0.0
  0
SPLINE
  5
1d0
100
AcDbEntity
  8
Layer_1
 62
7
100
AcDbSpline
 70
8
 71
3
 72
8
 73
4
 74
0
 40
0
 40
0
 40
0
 40
0
 40
1
 40
1
 40
1
 40
1
 10
52.110318
 20
61.534523
 30
0.0
 10
52.997989
 20
62.209863
 30
0.0
 10
53.704809
 20
61.933049
 30
0.0
 10
54.429096
 20
62.305763
 30
0.0
  0
SPLINE
  5
1d1
100
AcDbEntity
  8
Layer_1
 62
7
100
AcDbSpline
 70
8
 71
3
 72
8
 73
4
 74
0
 40
0
 40
0
 40
0
 40
0
 40
1
 40
1
 40
1
 40
1
 10
54.429096
 20
62.305763
 30
0.0
 10
55.124937
 20
62.663838
 30
0.0
 10
54.111429
 20
65.169251
 30
0.0
 10
52.874915
 20
66.959565
 30
0.0
  0
SPLINE
  5
1d2
100
AcDbEntity
  8
Layer_1
 62
7
100
AcDbSpline
 70
8
 71
3
 72
8
 73
4
 74
0
 40
0
 40
0
 40
0
 40
0
 40
1
 40
1
 40
1
 40
1
 10
52.874915
 20
66.959565
 30
0.0
 10
52.419885
 20
67.666091
 30
0.0
 10
51.920688
 20
67.417642
 30
0.0
 10
52.314960
 20
66.817545
 30
0.0
  0
SPLINE
  5
1d3
100
AcDbEntity
  8
Layer_1
 62
7
100
AcDbSpline
 70
8
 71
3
 72
8
 73
4
 74
0
 40
0
 40
0
 40
0
 40
0
 40
1
 40
1
 40
1
 40
1
 10
52.314960
 20
66.817545
 30
0.0
 10
52.982997
 20
66.210555
 30
0.0
 10
52.944832
 20
65.220263
 30
0.0
 10
52.160715
 20
64.155159
 30
0.0
  0
SPLINE
  5
1d4
100
AcDbEntity
  8
Layer_1
 62
7
100
AcDbSpline
 70
8
 71
3
 72
8
 73
4
 74
0
 40
0
 40
0
 40
0
 40
0
 40
1
 40
1
 40
1
 40
1
 10
52.160715
 20
64.155159
 30
0.0
 10
50.761211
 20
62.544173
 30
0.0
 10
51.414976
 20
61.005503
 30
0.0
 10
52.110318
 20
61.534523
 30
0.0
  0
LWPOLYLINE
  5
1d5
100
AcDbEntity
  8
Layer_1
 62
5
100
AcDbPolyline
 90
2
 70
1
 10
44.801296
 20
57.878537
 30
0.0
 10
44.801296
 20
57.878528
 30
0.0
  0
SPLINE
  5
1d6
100
AcDbEntity
  8
Layer_1
 62
7
100
AcDbSpline
 70
8
 71
3
 72
8
 73
4
 74
0
 40
0
 40
0
 40
0
 40
0
 40
1
 40
1
 40
1
 40
1
 10
58.611508
 20
62.895237
 30
0.0
 10
59.075441
 20
62.467216
 30
0.0
 10
61.086743
 20
63.488322
 30
0.0
 10
63.248015
 20
62.492063
 30
0.0
  0
SPLINE
  5
1d7
100
AcDbEntity
  8
Layer_1
 62
7
100
AcDbSpline
 70
8
 71
3
 72
8
 73
4
 74
0
 40
0
 40
0
 40
0
 40
0
 40
1
 40
1
 40
1
 40
1
 10
63.248015
 20
62.492063
 30
0.0
 10
64.620473
 20
61.859417
 30
0.0
 10
62.267451
 20
65.338779
 30
0.0
 10
61.383333
 20
66.624604
 30
0.0
  0
SPLINE
  5
1d8
100
AcDbEntity
  8
Layer_1
 62
7
100
AcDbSpline
 70
8
 71
3
 72
8
 73
4
 74
0
 40
0
 40
0
 40
0
 40
0
 40
1
 40
1
 40
1
 40
1
 10
61.383333
 20
66.624604
 30
0.0
 10
60.352836
 20
68.791960
 30
0.0
 10
59.635621
 20
69.412400
 30
0.0
 10
61.232144
 20
71.361904
 30
0.0
  0
SPLINE
  5
1d9
100
AcDbEntity
  8
Layer_1
 62
7
100
AcDbSpline
 70
8
 71
3
 72
8
 73
4
 74
0
 40
0
 40
0
 40
0
 40
0
 40
1
 40
1
 40
1
 40
1
 10
61.232144
 20
71.361904
 30
0.0
 10
62.057153
 20
72.466378
 30
0.0
 10
61.091211
 20
72.263988
 30
0.0
 10
60.497065
 20
71.687171
 30
0.0
  0
SPLINE
  5
1da
100
AcDbEntity
  8
Layer_1
 62
7
100
AcDbSpline
 70
8
 71
3
 72
8
 73
4
 74
0
 40
0
 40
0
 40
0
 40
0
 40
1
 40
1
 40
1
 40
1
 10
60.497065
 20
71.687171
 30
0.0
 10
58.633896
 20
69.024926
 30
0.0
 10
56.408560
 20
64.927658
 30
0.0
 10
58.611508
 20
62.895237
 30
0.0
  0
LWPOLYLINE
  5
1db
100
AcDbEntity
  8
Layer_1
 62
7
100
AcDbPolyline
 90
2
 70
1
 10
52.110318
 20
61.534523
 30
0.0
 10
52.110318
 20
61.534523
 30
0.0
  0
SPLINE
  5
1dc
100
AcDbEntity
  8
Layer_1
 62
7
100
AcDbSpline
 70
8
 71
3
 72
8
 73
4
 74
0
 40
0
 40
0
 40
0
 40
0
 40
1
 40
1
 40
1
 40
1
 10
67.027778
 20
61.988096
 30
0.0
 10
67.248278
 20
61.969808
 30
0.0
 10
68.016583
 20
61.921446
 30
0.0
 10
68.791667
 20
61.433730
 30
0.0
  0
SPLINE
  5
1dd
100
AcDbEntity
  8
Layer_1
 62
7
100
AcDbSpline
 70
8
 71
3
 72
8
 73
4
 74
0
 40
0
 40
0
 40
0
 40
0
 40
1
 40
1
 40
1
 40
1
 10
68.791667
 20
61.433730
 30
0.0
 10
69.463697
 20
61.010859
 30
0.0
 10
68.878859
 20
63.036029
 30
0.0
 10
68.539682
 20
63.802381
 30
0.0
  0
SPLINE
  5
1de
100
AcDbEntity
  8
Layer_1
 62
7
100
AcDbSpline
 70
8
 71
3
 72
8
 73
4
 74
0
 40
0
 40
0
 40
0
 40
0
 40
1
 40
1
 40
1
 40
1
 10
68.539682
 20
63.802381
 30
0.0
 10
68.581126
 20
64.602233
 30
0.0
 10
68.519644
 20
65.443258
 30
0.0
 10
69.245237
 20
65.969444
 30
0.0
  0
SPLINE
  5
1df
100
AcDbEntity
  8
Layer_1
 62
7
100
AcDbSpline
 70
8
 71
3
 72
8
 73
4
 74
0
 40
0
 40
0
 40
0
 40
0
 40
1
 40
1
 40
1
 40
1
 10
69.245237
 20
65.969444
 30
0.0
 10
69.914460
 20
66.991444
 30
0.0
 10
69.379564
 20
66.809326
 30
0.0
 10
68.791667
 20
66.574207
 30
0.0
  0
SPLINE
  5
1e0
100
AcDbEntity
  8
Layer_1
 62
7
100
AcDbSpline
 70
8
 71
3
 72
8
 73
4
 74
0
 40
0
 40
0
 40
0
 40
0
 40
1
 40
1
 40
1
 40
1
 10
68.791667
 20
66.574207
 30
0.0
 10
66.877204
 20
65.153788
 30
0.0
 10
65.395515
 20
62.123568
 30
0.0
 10
67.027778
 20
61.988096
 30
0.0
  0
LWPOLYLINE
  5
1e1
100
AcDbEntity
  8
Layer_1
 62
7
100
AcDbPolyline
 90
2
 70
1
 10
58.611508
 20
62.895237
 30
0.0
 10
58.611508
 20
62.895237
 30
0.0
  0
SPLINE
  5
1e2
100
AcDbEntity
  8
Layer_1
 62
7
100
AcDbSpline
 70
8
 71
3
 72
8
 73
4
 74
0
 40
0
 40
0
 40
0
 40
0
 40
1
 40
1
 40
1
 40
1
 10
74.791423
 20
57.977224
 30
0.0
 10
71.127761
 20
59.276491
 30
0.0
 10
71.603218
 20
60.225057
 30
0.0
 10
73.279516
 20
64.780795
 30
0.0
  0
SPLINE
  5
1e3
100
AcDbEntity
  8
Layer_1
 62
7
100
AcDbSpline
 70
8
 71
3
 72
8
 73
4
 74
0
 40
0
 40
0
 40
0
 40
0
 40
1
 40
1
 40
1
 40
1
 10
73.279516
 20
64.780795
 30
0.0
 10
73.434154
 20
65.161950
 30
0.0
 10
73.832545
 20
65.591569
 30
0.0
 10
74.032937
 20
65.011904
 30
0.0
  0
SPLINE
  5
1e4
100
AcDbEntity
  8
Layer_1
 62
7
100
AcDbSpline
 70
8
 71
3
 72
8
 73
4
 74
0
 40
0
 40
0
 40
0
 40
0
 40
1
 40
1
 40
1
 40
1
 10
74.032937
 20
65.011904
 30
0.0
 10
73.919012
 20
63.599481
 30
0.0
 10
73.465018
 20
62.153049
 30
0.0
 10
74.234523
 20
60.828967
 30
0.0
  0
SPLINE
  5
1e5
100
AcDbEntity
  8
Layer_1
 62
7
100
AcDbSpline
 70
8
 71
3
 72
8
 73
4
 74
0
 40
0
 40
0
 40
0
 40
0
 40
1
 40
1
 40
1
 40
1
 10
74.234523
 20
60.828967
 30
0.0
 10
75.035836
 20
59.748124
 30
0.0
 10
75.766394
 20
57.631465
 30
0.0
 10
74.791423
 20
57.977224
 30
0.0
  0
LWPOLYLINE
  5
1e6
100
AcDbEntity
  8
Layer_1
 62
7
100
AcDbPolyline
 90
2
 70
1
 10
67.027778
 20
61.988096
 30
0.0
 10
67.027778
 20
61.988096
 30
0.0
  0
SPLINE
  5
1e7
100
AcDbEntity
  8
Layer_1
 62
7
100
AcDbSpline
 70
8
 71
3
 72
8
 73
4
 74
0
 40
0
 40
0
 40
0
 40
0
 40
1
 40
1
 40
1
 40
1
 10
64.961508
 20
68.539682
 30
0.0
 10
67.717492
 20
73.015946
 30
0.0
 10
66.447283
 20
72.767554
 30
0.0
 10
66.120634
 20
73.780952
 30
0.0
  0
SPLINE
  5
1e8
100
AcDbEntity
  8
Layer_1
 62
7
100
AcDbSpline
 70
8
 71
3
 72
8
 73
4
 74
0
 40
0
 40
0
 40
0
 40
0
 40
1
 40
1
 40
1
 40
1
 10
66.120634
 20
73.780952
 30
0.0
 10
65.946051
 20
73.960555
 30
0.0
 10
65.778473
 20
74.163515
 30
0.0
 10
65.465477
 20
73.881745
 30
0.0
  0
SPLINE
  5
1e9
100
AcDbEntity
  8
Layer_1
 62
7
100
AcDbSpline
 70
8
 71
3
 72
8
 73
4
 74
0
 40
0
 40
0
 40
0
 40
0
 40
1
 40
1
 40
1
 40
1
 10
65.465477
 20
73.881745
 30
0.0
 10
64.142295
 20
72.338816
 30
0.0
 10
64.821889
 20
70.395332
 30
0.0
 10
64.558333
 20
68.640477
 30
0.0
  0
SPLINE
  5
1ea
100
AcDbEntity
  8
Layer_1
 62
7
100
AcDbSpline
 70
8
 71
3
 72
8
 73
4
 74
0
 40
0
 40
0
 40
0
 40
0
 40
1
 40
1
 40
1
 40
1
 10
64.558333
 20
68.640477
 30
0.0
 10
64.661488
 20
68.435070
 30
0.0
 10
64.765515
 20
68.234481
 30
0.0
 10
64.961508
 20
68.539682
 30
0.0
  0
LWPOLYLINE
  5
1eb
100
AcDbEntity
  8
Layer_1
 62
7
100
AcDbPolyline
 90
2
 70
1
 10
74.791423
 20
57.977224
 30
0.0
 10
74.791423
 20
57.977224
 30
0.0
  0
SPLINE
  5
1ec
100
AcDbEntity
  8
Layer_1
 62
7
100
AcDbSpline
 70
8
 71
3
 72
8
 73
4
 74
0
 40
0
 40
0
 40
0
 40
0
 40
1
 40
1
 40
1
 40
1
 10
80.872144
 20
45.037468
 30
0.0
 10
76.929590
 20
23.654724
 30
0.0
 10
44.116154
 20
25.678858
 30
0.0
 10
39.410318
 20
44.349207
 30
0.0
  0
SPLINE
  5
1ed
100
AcDbEntity
  8
Layer_1
 62
7
100
AcDbSpline
 70
8
 71
3
 72
8
 73
4
 74
0
 40
0
 40
0
 40
0
 40
0
 40
1
 40
1
 40
1
 40
1
 10
39.410318
 20
44.349207
 30
0.0
 10
38.536036
 20
47.817910
 30
0.0
 10
37.929047
 20
51.487601
 30
0.0
 10
38.402381
 20
55.033333
 30
0.0
  0
SPLINE
  5
1ee
100
AcDbEntity
  8
Layer_1
 62
7
100
AcDbSpline
 70
8
 71
3
 72
8
 73
4
 74
0
 40
0
 40
0
 40
0
 40
0
 40
1
 40
1
 40
1
 40
1
 10
38.402381
 20
55.033333
 30
0.0
 10
39.006605
 20
59.559548
 30
0.0
 10
36.584523
 20
62.360265
 30
0.0
 10
35.046669
 20
63.180324
 30
0.0
  0
SPLINE
  5
1ef
100
AcDbEntity
  8
Layer_1
 62
7
100
AcDbSpline
 70
8
 71
3
 72
8
 73
4
 74
0
 40
0
 40
0
 40
0
 40
0
 40
1
 40
1
 40
1
 40
1
 10
35.046669
 20
63.180324
 30
0.0
 10
34.595110
 20
63.421119
 30
0.0
 10
34.610853
 20
63.977641
 30
0.0
 10
35.009983
 20
64.092534
 30
0.0
  0
SPLINE
  5
1f0
100
AcDbEntity
  8
Layer_1
 62
7
100
AcDbSpline
 70
8
 71
3
 72
8
 73
4
 74
0
 40
0
 40
0
 40
0
 40
0
 40
1
 40
1
 40
1
 40
1
 10
35.009983
 20
64.092534
 30
0.0
 10
37.447697
 20
64.794234
 30
0.0
 10
40.663602
 20
62.809080
 30
0.0
 10
41.930159
 20
60.173811
 30
0.0
  0
SPLINE
  5
1f1
100
AcDbEntity
  8
Layer_1
 62
7
100
AcDbSpline
 70
8
 71
3
 72
8
 73
4
 74
0
 40
0
 40
0
 40
0
 40
0
 40
1
 40
1
 40
1
 40
1
 10
41.930159
 20
60.173811
 30
0.0
 10
42.833121
 20
58.295057
 30
0.0
 10
43.415907
 20
59.247038
 30
0.0
 10
42.837300
 20
60.476189
 30
0.0
  0
SPLINE
  5
1f2
100
AcDbEntity
  8
Layer_1
 62
7
100
AcDbSpline
 70
8
 71
3
 72
8
 73
4
 74
0
 40
0
 40
0
 40
0
 40
0
 40
1
 40
1
 40
1
 40
1
 10
42.837300
 20
60.476189
 30
0.0
 10
40.686053
 20
65.046146
 30
0.0
 10
41.299483
 20
69.478522
 30
0.0
 10
43.542856
 20
72.369841
 30
0.0
  0
SPLINE
  5
1f3
100
AcDbEntity
  8
Layer_1
 62
7
100
AcDbSpline
 70
8
 71
3
 72
8
 73
4
 74
0
 40
0
 40
0
 40
0
 40
0
 40
1
 40
1
 40
1
 40
1
 10
43.542856
 20
72.369841
 30
0.0
 10
43.748816
 20
72.635288
 30
0.0
 10
44.070597
 20
72.694035
 30
0.0
 10
44.158797
 20
72.369841
 30
0.0
  0
SPLINE
  5
1f4
100
AcDbEntity
  8
Layer_1
 62
7
100
AcDbSpline
 70
8
 71
3
 72
8
 73
4
 74
0
 40
0
 40
0
 40
0
 40
0
 40
1
 40
1
 40
1
 40
1
 10
44.158797
 20
72.369841
 30
0.0
 10
44.787436
 20
70.059177
 30
0.0
 10
48.859595
 20
67.465993
 30
0.0
 10
49.187300
 20
67.330159
 30
0.0
  0
SPLINE
  5
1f5
100
AcDbEntity
  8
Layer_1
 62
7
100
AcDbSpline
 70
8
 71
3
 72
8
 73
4
 74
0
 40
0
 40
0
 40
0
 40
0
 40
1
 40
1
 40
1
 40
1
 10
49.187300
 20
67.330159
 30
0.0
 10
49.876098
 20
67.044655
 30
0.0
 10
49.848539
 20
67.656764
 30
0.0
 10
49.886743
 20
67.970558
 30
0.0
  0
SPLINE
  5
1f6
100
AcDbEntity
  8
Layer_1
 62
7
100
AcDbSpline
 70
8
 71
3
 72
8
 73
4
 74
0
 40
0
 40
0
 40
0
 40
0
 40
1
 40
1
 40
1
 40
1
 10
49.886743
 20
67.970558
 30
0.0
 10
50.396719
 20
72.159029
 30
0.0
 10
48.059591
 20
77.167952
 30
0.0
 10
46.869048
 20
78.215874
 30
0.0
  0
SPLINE
  5
1f7
100
AcDbEntity
  8
Layer_1
 62
7
100
AcDbSpline
 70
8
 71
3
 72
8
 73
4
 74
0
 40
0
 40
0
 40
0
 40
0
 40
1
 40
1
 40
1
 40
1
 10
46.869048
 20
78.215874
 30
0.0
 10
46.619386
 20
78.435629
 30
0.0
 10
46.508416
 20
79.135915
 30
0.0
 10
46.719340
 20
79.099610
 30
0.0
  0
SPLINE
  5
1f8
100
AcDbEntity
  8
Layer_1
 62
7
100
AcDbSpline
 70
8
 71
3
 72
8
 73
4
 74
0
 40
0
 40
0
 40
0
 40
0
 40
1
 40
1
 40
1
 40
1
 10
46.719340
 20
79.099610
 30
0.0
 10
52.063306
 20
78.179716
 30
0.0
 10
52.746131
 20
77.031029
 30
0.0
 10
54.445865
 20
75.951596
 30
0.0
  0
SPLINE
  5
1f9
100
AcDbEntity
  8
Layer_1
 62
7
100
AcDbSpline
 70
8
 71
3
 72
8
 73
4
 74
0
 40
0
 40
0
 40
0
 40
0
 40
1
 40
1
 40
1
 40
1
 10
54.445865
 20
75.951596
 30
0.0
 10
55.530329
 20
75.262898
 30
0.0
 10
55.628004
 20
76.257424
 30
0.0
 10
55.436508
 20
76.603174
 30
0.0
  0
SPLINE
  5
1fa
100
AcDbEntity
  8
Layer_1
 62
7
100
AcDbSpline
 70
8
 71
3
 72
8
 73
4
 74
0
 40
0
 40
0
 40
0
 40
0
 40
1
 40
1
 40
1
 40
1
 10
55.436508
 20
76.603174
 30
0.0
 10
52.802248
 20
81.359335
 30
0.0
 10
54.102175
 20
92.237134
 30
0.0
 10
59.770634
 20
94.947619
 30
0.0
  0
SPLINE
  5
1fb
100
AcDbEntity
  8
Layer_1
 62
7
100
AcDbSpline
 70
8
 71
3
 72
8
 73
4
 74
0
 40
0
 40
0
 40
0
 40
0
 40
1
 40
1
 40
1
 40
1
 10
59.770634
 20
94.947619
 30
0.0
 10
61.208087
 20
95.634965
 30
0.0
 10
62.249312
 20
94.906798
 30
0.0
 10
60.879366
 20
94.141270
 30
0.0
  0
SPLINE
  5
1fc
100
AcDbEntity
  8
Layer_1
 62
7
100
AcDbSpline
 70
8
 71
3
 72
8
 73
4
 74
0
 40
0
 40
0
 40
0
 40
0
 40
1
 40
1
 40
1
 40
1
 10
60.879366
 20
94.141270
 30
0.0
 10
59.062688
 20
93.126106
 30
0.0
 10
60.944839
 20
79.819751
 30
0.0
 10
67.467635
 20
74.967070
 30
0.0
  0
SPLINE
  5
1fd
100
AcDbEntity
  8
Layer_1
 62
7
100
AcDbSpline
 70
8
 71
3
 72
8
 73
4
 74
0
 40
0
 40
0
 40
0
 40
0
 40
1
 40
1
 40
1
 40
1
 10
67.467635
 20
74.967070
 30
0.0
 10
67.791110
 20
74.726419
 30
0.0
 10
68.344751
 20
75.004447
 30
0.0
 10
68.356438
 20
75.323429
 30
0.0
  0
SPLINE
  5
1fe
100
AcDbEntity
  8
Layer_1
 62
7
100
AcDbSpline
 70
8
 71
3
 72
8
 73
4
 74
0
 40
0
 40
0
 40
0
 40
0
 40
1
 40
1
 40
1
 40
1
 10
68.356438
 20
75.323429
 30
0.0
 10
68.398108
 20
76.460731
 30
0.0
 10
68.264651
 20
79.714330
 30
0.0
 10
67.430952
 20
81.138889
 30
0.0
  0
SPLINE
  5
1ff
100
AcDbEntity
  8
Layer_1
 62
7
100
AcDbSpline
 70
8
 71
3
 72
8
 73
4
 74
0
 40
0
 40
0
 40
0
 40
0
 40
1
 40
1
 40
1
 40
1
 10
67.430952
 20
81.138889
 30
0.0
 10
66.849216
 20
82.132912
 30
0.0
 10
67.799701
 20
82.575005
 30
0.0
 10
68.640477
 20
81.542063
 30
0.0
  0
SPLINE
  5
200
100
AcDbEntity
  8
Layer_1
 62
7
100
AcDbSpline
 70
8
 71
3
 72
8
 73
4
 74
0
 40
0
 40
0
 40
0
 40
0
 40
1
 40
1
 40
1
 40
1
 10
68.640477
 20
81.542063
 30
0.0
 10
75.985274
 20
72.518549
 30
0.0
 10
73.345768
 20
71.419359
 30
0.0
 10
73.780952
 20
70.152381
 30
0.0
  0
SPLINE
  5
201
100
AcDbEntity
  8
Layer_1
 62
7
100
AcDbSpline
 70
8
 71
3
 72
8
 73
4
 74
0
 40
0
 40
0
 40
0
 40
0
 40
1
 40
1
 40
1
 40
1
 10
73.780952
 20
70.152381
 30
0.0
 10
73.912377
 20
69.769753
 30
0.0
 10
74.640604
 20
69.574275
 30
0.0
 10
74.634118
 20
69.873408
 30
0.0
  0
SPLINE
  5
202
100
AcDbEntity
  8
Layer_1
 62
7
100
AcDbSpline
 70
8
 71
3
 72
8
 73
4
 74
0
 40
0
 40
0
 40
0
 40
0
 40
1
 40
1
 40
1
 40
1
 10
74.634118
 20
69.873408
 30
0.0
 10
74.603892
 20
71.267509
 30
0.0
 10
77.876758
 20
73.765602
 30
0.0
 10
80.231745
 20
74.385715
 30
0.0
  0
SPLINE
  5
203
100
AcDbEntity
  8
Layer_1
 62
7
100
AcDbSpline
 70
8
 71
3
 72
8
 73
4
 74
0
 40
0
 40
0
 40
0
 40
0
 40
1
 40
1
 40
1
 40
1
 10
80.231745
 20
74.385715
 30
0.0
 10
82.804948
 20
75.063291
 30
0.0
 10
82.187946
 20
73.697451
 30
0.0
 10
80.972937
 20
72.771968
 30
0.0
  0
SPLINE
  5
204
100
AcDbEntity
  8
Layer_1
 62
7
100
AcDbSpline
 70
8
 71
3
 72
8
 73
4
 74
0
 40
0
 40
0
 40
0
 40
0
 40
1
 40
1
 40
1
 40
1
 10
80.972937
 20
72.771968
 30
0.0
 10
79.199935
 20
71.421453
 30
0.0
 10
78.552023
 20
63.727231
 30
0.0
 10
77.812700
 20
59.468255
 30
0.0
  0
SPLINE
  5
205
100
AcDbEntity
  8
Layer_1
 62
7
100
AcDbSpline
 70
8
 71
3
 72
8
 73
4
 74
0
 40
0
 40
0
 40
0
 40
0
 40
1
 40
1
 40
1
 40
1
 10
77.812700
 20
59.468255
 30
0.0
 10
77.767818
 20
59.209714
 30
0.0
 10
78.189379
 20
58.634023
 30
0.0
 10
78.316667
 20
58.863492
 30
0.0
  0
SPLINE
  5
206
100
AcDbEntity
  8
Layer_1
 62
7
100
AcDbSpline
 70
8
 71
3
 72
8
 73
4
 74
0
 40
0
 40
0
 40
0
 40
0
 40
1
 40
1
 40
1
 40
1
 10
78.316667
 20
58.863492
 30
0.0
 10
79.332836
 20
60.695405
 30
0.0
 10
82.109731
 20
61.446410
 30
0.0
 10
85.058662
 20
62.520536
 30
0.0
  0
SPLINE
  5
207
100
AcDbEntity
  8
Layer_1
 62
7
100
AcDbSpline
 70
8
 71
3
 72
8
 73
4
 74
0
 40
0
 40
0
 40
0
 40
0
 40
1
 40
1
 40
1
 40
1
 10
85.058662
 20
62.520536
 30
0.0
 10
85.966658
 20
62.851267
 30
0.0
 10
86.204270
 20
62.452761
 30
0.0
 10
85.069838
 20
61.786508
 30
0.0
  0
SPLINE
  5
208
100
AcDbEntity
  8
Layer_1
 62
7
100
AcDbSpline
 70
8
 71
3
 72
8
 73
4
 74
0
 40
0
 40
0
 40
0
 40
0
 40
1
 40
1
 40
1
 40
1
 10
85.069838
 20
61.786508
 30
0.0
 10
78.622635
 20
58.000042
 30
0.0
 10
81.960630
 20
50.940976
 30
0.0
 10
80.872141
 20
45.037468
 30
0.0
  0
LWPOLYLINE
  5
209
100
AcDbEntity
  8
Layer_1
 62
7
100
AcDbPolyline
 90
2
 70
1
 10
64.961508
 20
68.539682
 30
0.0
 10
64.961508
 20
68.539682
 30
0.0
  0
LWPOLYLINE
  5
20a
100
AcDbEntity
  8
Layer_1
 62
7
100
AcDbPolyline
 90
2
 70
1
 10
80.872141
 20
45.037468
 30
0.0
 10
80.872144
 20
45.037468
 30
0.0
  0
ENDSEC
  0
SECTION
  2
OBJECTS
  0
DICTIONARY
  5
C
330
0
100
AcDbDictionary
  3
ACAD_GROUP
350
D
  3
ACAD_MLINESTYLE
350
17
  0
DICTIONARY
  5
D
330
C
100
AcDbDictionary
  0
DICTIONARY
  5
1A
330
C
100
AcDbDictionary
  0
DICTIONARY
  5
17
330
C
100
AcDbDictionary
  3
STANDARD
350
18
  0
DICTIONARY
  5
19
330
C
100
AcDbDictionary
  0
ENDSEC
  0
EOF
