<?xml version="1.0" encoding="UTF-8" standalone="no"?>
<!-- Created with Inkscape (http://www.inkscape.org/) -->

<svg
   xmlns:dc="http://purl.org/dc/elements/1.1/"
   xmlns:cc="http://creativecommons.org/ns#"
   xmlns:rdf="http://www.w3.org/1999/02/22-rdf-syntax-ns#"
   xmlns:svg="http://www.w3.org/2000/svg"
   xmlns="http://www.w3.org/2000/svg"
   version="1.1"
   width="425.55118"
   height="370.78049"
   id="svg2">
  <defs
     id="defs4" />
  <metadata
     id="metadata7">
    <rdf:RDF>
      <cc:Work
         rdf:about="">
        <dc:format>image/svg+xml</dc:format>
        <dc:type
           rdf:resource="http://purl.org/dc/dcmitype/StillImage" />
        <dc:title></dc:title>
      </cc:Work>
    </rdf:RDF>
  </metadata>
  <g
     transform="translate(-201.67965,-241.44526)"
     id="layer1">
    <path
       d="m 601.58924,609.84914 c -124.85964,-1e-5 -249.71928,-3e-5 -374.57891,0 -29.71702,1.28321 -27.45554,1.21175 -13.37782,-23.16135 62.42982,-108.08633 124.85964,-216.17267 187.28945,-324.25901 13.74675,-26.36652 12.67792,-24.37311 26.75564,0 62.4298,108.08634 124.85964,216.17267 187.28946,324.25901 15.97027,25.08331 14.77761,23.16135 -13.37782,23.16135 z"
       id="path2989"
       style="fill:none;stroke:#000000;stroke-width:0.35433072;stroke-linecap:round;stroke-linejoin:round;stroke-miterlimit:4;stroke-opacity:1;stroke-dasharray:none" />
    <g
       id="text3760"
       style="font-size:46.97686768px;font-style:oblique;font-variant:normal;font-weight:normal;font-stretch:normal;text-align:center;line-height:120.00000477%;letter-spacing:0px;word-spacing:0px;writing-mode:lr-tb;text-anchor:middle;fill:#000000;fill-opacity:1;stroke:none;font-family:Monotype Corsiva;-inkscape-font-specification:Monotype Corsiva Oblique">
      <path
         d="m 377.98395,419.81035 -1.83503,-24.68121 c -0.39761,4.15943 -1.13162,8.03976 -2.20204,11.641 -1.07046,3.60126 -2.28616,6.38439 -3.64713,8.3494 -1.361,1.96502 -2.75256,3.34512 -4.1747,4.1403 -1.42216,0.79518 -2.82902,1.19277 -4.22058,1.19277 -0.84106,0 -1.48715,-0.17204 -1.93826,-0.5161 -0.45111,-0.34407 -0.67667,-0.76078 -0.67667,-1.25012 0,-0.41288 0.16439,-0.77224 0.49317,-1.07808 0.32877,-0.30584 0.74548,-0.45876 1.25012,-0.45876 0.367,0 0.89457,0.0841 1.58271,0.25232 0.62697,0.16821 1.14689,0.25231 1.55978,0.25231 0.71872,0 1.46802,-0.26761 2.24792,-0.80283 1.17747,-0.79517 2.34348,-2.22115 3.49803,-4.27792 1.15453,-2.05676 2.18674,-4.92399 3.09662,-8.60172 0.90986,-3.67769 1.47948,-7.26748 1.70888,-10.76935 -3.47129,2e-5 -6.29265,0.86402 -8.4641,2.59198 -1.728,1.3763 -2.59199,2.91314 -2.59198,4.61052 -10e-6,0.74933 0.41287,1.65155 1.23865,2.70668 0.44345,0.56582 0.66519,1.02457 0.6652,1.37627 -1e-5,0.39761 -0.12617,0.72639 -0.37848,0.98633 -0.25233,0.25998 -0.55434,0.38996 -0.90605,0.38995 -0.59639,1e-5 -1.12396,-0.33641 -1.58271,-1.00927 -0.62698,-0.90221 -0.94047,-1.97264 -0.94046,-3.21131 -10e-6,-1.74326 0.58491,-3.41391 1.75475,-5.01193 1.16983,-1.59799 2.79077,-2.8137 4.86284,-3.64713 2.07205,-0.83339 4.49964,-1.25774 7.28279,-1.27306 1.49859,3e-5 2.69901,-0.1376 3.60126,-0.41288 -0.0459,1.3763 -0.0688,2.11796 -0.0688,2.22498 -2e-5,0.13765 0.0229,0.45113 0.0688,0.94045 l 1.35333,17.43282 c 3.68534,-6.43789 7.28659,-11.73655 10.80377,-15.89598 2.49255,-2.95132 4.664,-4.94692 6.51437,-5.9868 -1.05519,2.9055 -2.18679,6.73613 -3.39482,11.4919 l -2.79842,11.01021 c -0.15296,0.61168 -0.3594,1.50626 -0.61933,2.68373 l -0.55051,2.45436 c 1.16216,0.27526 2.22494,0.41289 3.18837,0.41288 0.77986,10e-6 1.61327,-0.0918 2.50024,-0.27525 l -0.2982,1.3304 c -0.77992,0.13763 -1.38396,0.20644 -1.81209,0.20644 -0.62701,0 -1.52923,-0.0688 -2.70668,-0.20644 -0.96342,-0.12234 -1.81977,-0.1835 -2.56904,-0.1835 -0.79522,0 -1.69744,0.15292 -2.70668,0.45875 0.84103,-2.20203 1.72031,-5.16102 2.63786,-8.87697 l 1.76622,-7.01901 c 0.74927,-3.02778 1.39918,-5.10749 1.94973,-6.23911 -1.22339,1.39159 -3.11195,3.94534 -5.66567,7.66126 -2.04915,2.99724 -4.34294,6.78964 -6.88138,11.37721 z"
         id="path3069" />
      <path
         d="m 411.15219,399.55616 c 1.49859,2e-5 2.74489,0.59641 3.73888,1.78916 0.99396,1.19279 1.49095,2.85196 1.49097,4.97753 -2e-5,3.39482 -1.1928,6.44174 -3.57832,9.14076 -2.38556,2.69903 -4.90873,4.04854 -7.56952,4.04854 -1.63624,0 -2.95517,-0.53521 -3.95679,-1.60565 -1.00162,-1.07043 -1.50243,-2.53081 -1.50243,-4.38114 0,-3.2113 0.91751,-6.17794 2.75255,-8.89992 2.30908,-3.3795 5.18396,-5.06926 8.62466,-5.06928 z m -1.94972,1.72034 c -1.29983,2e-5 -2.55759,0.92901 -3.77329,2.78696 -1.21572,1.85799 -1.82358,4.42321 -1.82357,7.69568 -1e-5,1.98795 0.37465,3.55538 1.12396,4.70227 0.5505,0.84106 1.28451,1.26159 2.20204,1.26159 1.28451,0 2.45435,-0.79518 3.5095,-2.38555 1.34568,-2.06441 2.01852,-4.6258 2.01854,-7.6842 -2e-5,-2.29378 -0.30968,-3.93002 -0.92899,-4.90872 -0.61933,-0.97867 -1.3954,-1.46801 -2.32819,-1.46803 z"
         id="path3071" />
      <path
         d="m 419.2034,404.83188 -0.68814,-0.91751 c 1.5139,-1.51389 2.95134,-2.6302 4.31233,-3.34894 1.36098,-0.7187 2.43141,-1.07806 3.21131,-1.07808 0.32112,2e-5 0.56197,0.0688 0.72255,0.20644 0.16055,0.13764 0.24083,0.32879 0.24084,0.57345 -1e-5,0.30585 -0.12234,0.89459 -0.367,1.76622 -0.35173,1.28454 -0.5964,2.30145 -0.73402,3.05074 3.67006,-3.73122 6.47613,-5.59683 8.41822,-5.59685 0.50462,2e-5 0.88691,0.13764 1.1469,0.41288 0.25994,0.27527 0.38992,0.71109 0.38994,1.30746 -2e-5,0.64228 -0.2294,1.73565 -0.68813,3.28012 1.74326,-1.81972 3.25716,-3.10807 4.5417,-3.86504 1.2845,-0.75693 2.28612,-1.1354 3.00487,-1.13542 0.64224,2e-5 1.13922,0.18352 1.49097,0.55051 0.35168,0.36702 0.52754,0.93282 0.52757,1.6974 -3e-5,0.45878 -0.0765,1.00164 -0.22938,1.6286 -0.15295,0.62698 -0.7111,2.53847 -1.67447,5.73448 -1.20809,3.96062 -1.81212,6.32322 -1.81209,7.08782 -3e-5,0.51992 0.21406,0.77989 0.64226,0.77988 0.29052,10e-6 0.57342,-0.0918 0.8487,-0.27525 0.9022,-0.64226 1.82736,-1.43744 2.77549,-2.38554 l 0.75695,0.82576 c -0.32116,0.25997 -0.92519,0.79518 -1.81209,1.60566 -1.22339,1.10102 -2.06445,1.78915 -2.52318,2.06441 -0.88696,0.51992 -1.63626,0.77989 -2.24791,0.77989 -0.45879,0 -0.86402,-0.22556 -1.21571,-0.67667 -0.35174,-0.45111 -0.5276,-1.07426 -0.52758,-1.86944 -2e-5,-0.73401 0.10703,-1.59418 0.32114,-2.58052 0.21406,-0.98632 0.84103,-3.19983 1.88091,-6.64053 0.77986,-2.58432 1.1698,-4.15175 1.16983,-4.70227 -3e-5,-0.51991 -0.22941,-0.77987 -0.68814,-0.77989 -0.38232,2e-5 -0.8946,0.19116 -1.53684,0.57345 -1.31513,0.79519 -2.41615,1.76623 -3.30306,2.91311 -0.6117,0.7952 -1.14692,2.05678 -1.60565,3.78476 -1.02458,3.77712 -1.78918,6.85844 -2.2938,9.24398 l -3.25718,0 3.41775,-14.01507 c 0.24465,-1.00925 0.36699,-1.59034 0.36701,-1.74328 -2e-5,-0.24465 -0.0612,-0.43198 -0.18351,-0.56198 -0.12235,-0.12996 -0.29821,-0.19495 -0.52757,-0.19497 -0.4129,2e-5 -1.05516,0.32115 -1.92679,0.96339 -1.51391,1.08574 -2.60346,2.13707 -3.26865,3.15397 -0.66521,1.01692 -1.23484,2.56523 -1.70888,4.64493 l -1.76622,7.75301 -3.28012,0 2.59199,-10.94139 c 0.76459,-3.16541 1.14688,-4.88576 1.14689,-5.16103 -1e-5,-0.3517 -0.13763,-0.52755 -0.41288,-0.52757 -0.59639,2e-5 -1.8121,0.87166 -3.64713,2.61492 z"
         id="path3073" />
      <path
         d="m 452.3487,403.18035 1.76622,-8.80816 c 0.25995,-1.22333 0.55432,-2.02998 0.88311,-2.41995 0.32876,-0.38992 0.73018,-0.58489 1.20424,-0.58492 0.30582,3e-5 0.54285,0.0841 0.71107,0.25232 0.1682,0.16824 0.25231,0.40526 0.25232,0.71107 -10e-6,0.19883 -0.15293,0.74934 -0.45876,1.65154 l -3.11955,8.96872 c -0.18352,0.55053 -0.42819,0.82578 -0.73402,0.82577 -0.41289,10e-6 -0.5811,-0.19878 -0.50463,-0.59639 z"
         id="path3075" />
      <path
         d="m 465.3545,399.53322 c 1.36097,2e-5 2.41229,0.26381 3.15397,0.79136 0.74164,0.52759 1.11247,1.13545 1.11249,1.82357 -2e-5,0.41289 -0.15676,0.77226 -0.47023,1.07808 -0.3135,0.30585 -0.69198,0.45877 -1.13543,0.45876 -0.29056,10e-6 -0.54288,-0.065 -0.75695,-0.19498 -0.2141,-0.12996 -0.51994,-0.45492 -0.91751,-0.97486 -0.74932,-0.99396 -1.49098,-1.49094 -2.22498,-1.49096 -0.62699,2e-5 -1.18132,0.24086 -1.663,0.72254 -0.48171,0.48172 -0.72256,1.08192 -0.72255,1.80063 -10e-6,0.62698 0.15291,1.23484 0.45876,1.82356 0.30583,0.58876 1.07807,1.54068 2.31673,2.85578 1.69739,1.80445 2.5461,3.51715 2.54611,5.13809 -1e-5,1.62095 -0.68815,3.03928 -2.06441,4.25499 -1.37629,1.21571 -3.15015,1.82356 -5.3216,1.82356 -1.81975,0 -3.17309,-0.37083 -4.06001,-1.11249 -0.88694,-0.74166 -1.33041,-1.65535 -1.3304,-2.74108 -10e-6,-0.53522 0.16821,-0.97868 0.50463,-1.3304 0.33642,-0.35171 0.7493,-0.52757 1.23865,-0.52757 0.42817,0 0.79518,0.14145 1.10102,0.42435 0.30583,0.2829 0.45875,0.6155 0.45876,0.9978 -1e-5,0.15292 -0.0153,0.35172 -0.0459,0.59638 -0.0153,0.1988 -0.0229,0.36701 -0.0229,0.50464 0,0.50464 0.21409,0.93281 0.64227,1.28452 0.41287,0.35172 0.97867,0.52758 1.6974,0.52757 0.82576,10e-6 1.55213,-0.14144 2.17911,-0.42435 0.62695,-0.2829 1.1163,-0.71107 1.46802,-1.28452 0.35171,-0.57345 0.52756,-1.14307 0.52758,-1.70888 -2e-5,-0.5505 -0.16441,-1.10101 -0.49317,-1.65153 -0.32879,-0.5505 -1.06662,-1.46037 -2.21351,-2.72961 -1.59037,-1.77385 -2.38555,-3.47891 -2.38554,-5.11516 -1e-5,-1.49859 0.60402,-2.80988 1.81209,-3.93385 1.20806,-1.12394 2.74489,-1.68592 4.61052,-1.68594 z"
         id="path3077" />
      <path
         d="m 392.02196,477.23774 0.45876,-14.77203 c 0.10702,-3.27246 0.41285,-6.34614 0.91752,-9.22104 -0.88696,1.08575 -2.00328,2.70669 -3.34894,4.86284 -4.0218,6.4685 -8.35707,12.5394 -13.0058,18.21271 -0.33644,-2.03383 -0.60787,-4.41173 -0.8143,-7.1337 -0.20645,-2.72195 -0.30967,-5.1075 -0.30966,-7.15663 -10e-6,-2.89016 0.27142,-5.19542 0.8143,-6.91578 0.54285,-1.72032 1.57123,-3.60506 3.08515,-5.6542 -2.8749,0.32116 -5.15722,1.23103 -6.84697,2.72961 -1.68977,1.49863 -2.53465,3.03547 -2.53464,4.61053 -1e-5,0.58111 0.16055,1.16985 0.48169,1.76622 0.38229,0.71873 0.57344,1.20043 0.57345,1.44508 -1e-5,0.39761 -0.12617,0.72639 -0.37848,0.98634 -0.25232,0.25997 -0.56198,0.38995 -0.92898,0.38994 -0.48935,10e-6 -0.88694,-0.22172 -1.19277,-0.6652 -0.41289,-0.58108 -0.61933,-1.33038 -0.61933,-2.24792 0,-1.39155 0.40141,-2.8137 1.20424,-4.26645 0.80282,-1.45271 1.86944,-2.64931 3.19984,-3.58979 1.33039,-0.94042 2.84429,-1.62474 4.54171,-2.05294 0.9328,-0.22935 2.50022,-0.46638 4.70228,-0.71108 0.74928,-0.0917 1.49094,-0.19112 2.22498,-0.29819 -3.31837,4.64878 -4.97755,9.3434 -4.97753,14.08389 -2e-5,1.48333 0.11467,4.44232 0.34406,8.87697 0.90221,-1.08572 1.72033,-2.13322 2.45436,-3.14249 0.50462,-0.70342 1.81972,-2.65314 3.94533,-5.84917 3.42537,-5.19925 5.98677,-8.86166 7.6842,-10.98727 1.19274,-1.468 2.53843,-2.83663 4.03707,-4.10589 -1.46805,5.76509 -2.20207,14.04567 -2.20204,24.84177 l 5.75742,-7.13369 c 1.54445,-1.92677 3.10805,-4.17086 4.69081,-6.73228 1.58267,-2.56138 2.62635,-4.60668 3.13102,-6.13589 0.32109,-0.99396 0.48166,-1.93441 0.4817,-2.82137 -4e-5,-0.87161 -0.19884,-1.78913 -0.59638,-2.75255 -0.24472,-0.61165 -0.36706,-1.05511 -0.36701,-1.3304 -5e-5,-0.41285 0.14905,-0.76074 0.44729,-1.04368 0.29815,-0.28286 0.67662,-0.42431 1.13543,-0.42435 0.58104,4e-5 1.0398,0.26 1.37627,0.77989 0.48929,0.70346 0.73397,1.63627 0.73401,2.79843 -4e-5,1.54451 -0.53144,3.57834 -1.59418,6.10149 -1.06284,2.52319 -3.42162,6.20854 -7.07635,11.05608 -4.70996,6.19324 -8.58646,10.7273 -11.62953,13.60219 z"
         id="path3079" />
      <path
         d="m 420.60261,455.9284 c 1.4986,2e-5 2.74489,0.59641 3.73888,1.78916 0.99396,1.19279 1.49095,2.85197 1.49097,4.97753 -2e-5,3.39482 -1.19279,6.44174 -3.57832,9.14076 -2.38556,2.69903 -4.90872,4.04855 -7.56951,4.04855 -1.63625,0 -2.95518,-0.53522 -3.95679,-1.60566 -1.00163,-1.07043 -1.50244,-2.53081 -1.50244,-4.38114 0,-3.2113 0.91751,-6.17794 2.75255,-8.89991 2.30908,-3.37951 5.18396,-5.06927 8.62466,-5.06929 z m -1.94972,1.72035 c -1.29983,2e-5 -2.55759,0.929 -3.77329,2.78696 -1.21572,1.85798 -1.82357,4.4232 -1.82356,7.69567 -10e-6,1.98796 0.37464,3.55538 1.12395,4.70227 0.5505,0.84106 1.28452,1.26159 2.20204,1.26159 1.28452,0 2.45435,-0.79518 3.50951,-2.38554 1.34567,-2.06441 2.01852,-4.62581 2.01853,-7.68421 -1e-5,-2.29378 -0.30967,-3.93001 -0.92898,-4.90871 -0.61934,-0.97867 -1.39541,-1.46801 -2.3282,-1.46803 z"
         id="path3081" />
      <path
         d="m 432.27802,475.2192 -3.41775,0 1.60565,-6.1703 c 0.77988,-3.0278 1.46037,-5.90268 2.04147,-8.62466 0.13762,-0.67283 0.20644,-1.09336 0.20645,-1.26159 -1e-5,-0.36699 -0.16822,-0.55049 -0.50464,-0.55051 -0.22939,2e-5 -0.5811,0.15676 -1.05514,0.47023 -0.47406,0.3135 -1.33041,1.08956 -2.56905,2.3282 l -0.71108,-0.80283 c 1.46803,-1.57505 2.93223,-2.75636 4.39262,-3.54391 1.46037,-0.78752 2.5805,-1.18128 3.3604,-1.1813 0.27525,2e-5 0.49316,0.065 0.65373,0.19497 0.16056,0.13 0.24084,0.29439 0.24085,0.49317 -10e-6,0.19881 -0.0994,0.72638 -0.29819,1.58271 l -0.98633,4.10589 c 1.54447,-2.4314 3.28775,-4.51111 5.22984,-6.23911 0.9328,-0.82575 1.71268,-1.23863 2.33967,-1.23865 0.45874,2e-5 0.84104,0.14911 1.1469,0.44729 0.30582,0.29821 0.45874,0.6461 0.45876,1.04367 -2e-5,0.4129 -0.14912,0.76462 -0.44729,1.05515 -0.29821,0.29056 -1.0437,0.63463 -2.23645,1.0322 -1.13162,0.38232 -2.05296,0.84108 -2.76402,1.37628 -0.71109,0.53523 -1.49098,1.35335 -2.33967,2.45436 -0.84871,1.10103 -1.44128,2.0606 -1.77769,2.87871 -0.33643,0.81813 -0.84871,2.71815 -1.53684,5.70007 z"
         id="path3083" />
      <path
         d="m 445.71964,475.2192 -3.41775,0 3.00487,-12.50117 c 1.45272,-6.19322 2.40465,-10.00856 2.85577,-11.44602 0.4511,-1.43742 0.99396,-2.62255 1.62859,-3.55538 0.6346,-0.93278 1.42978,-1.76619 2.38554,-2.50024 0.95574,-0.73398 1.98794,-1.29596 3.09662,-1.68593 1.10865,-0.38992 2.08351,-0.58489 2.92459,-0.58492 0.79516,3e-5 1.38772,0.15295 1.77769,0.45876 0.38992,0.30587 0.58489,0.7111 0.58492,1.21571 -3e-5,0.4282 -0.17588,0.79521 -0.52758,1.10102 -0.35173,0.30587 -0.7952,0.45879 -1.3304,0.45876 -0.67286,3e-5 -1.68978,-0.11466 -3.05074,-0.34407 -0.44348,-0.0917 -0.83343,-0.1376 -1.16983,-0.13763 -0.47407,3e-5 -0.92136,0.16824 -1.34187,0.50463 -0.42055,0.33646 -0.7952,0.93666 -1.12396,1.80063 -0.32879,0.86402 -0.79137,2.657 -1.38775,5.37894 l -1.62859,7.34014 c 1.46802,-1.66681 2.98956,-2.95133 4.56465,-3.85357 1.19275,-0.67283 2.332,-1.00925 3.41775,-1.00927 0.76458,2e-5 1.41066,0.28674 1.93825,0.86017 0.52755,0.57347 0.79134,1.29601 0.79136,2.16764 -2e-5,1.63625 -0.84872,3.09663 -2.54611,4.38114 -1.69742,1.28453 -4.2894,1.97267 -7.77595,2.06441 1.17746,0.51994 2.11792,1.08956 2.82136,1.70888 0.70342,0.61933 1.39538,1.47568 2.07588,2.56905 0.68048,1.09337 1.55594,2.92458 2.6264,5.49363 1.26921,3.05839 2.44669,5.09221 3.53244,6.10149 1.07041,1.00926 2.24789,1.51389 3.53244,1.5139 0.74927,-10e-6 1.3686,-0.1644 1.85797,-0.49317 0.48931,-0.32878 0.73398,-0.66138 0.73401,-0.9978 -3e-5,-0.21409 -0.0765,-0.50464 -0.22938,-0.87164 -0.16824,-0.39759 -0.25234,-0.73402 -0.25231,-1.00927 -3e-5,-0.35171 0.13759,-0.6652 0.41288,-0.94045 0.27522,-0.27526 0.59635,-0.41289 0.96339,-0.41288 0.42815,-10e-6 0.79515,0.17203 1.10102,0.5161 0.30581,0.34407 0.45873,0.799 0.45876,1.36481 -3e-5,1.10101 -0.50467,2.07969 -1.5139,2.93605 -1.0093,0.85634 -2.32441,1.28452 -3.94533,1.28452 -1.66684,0 -3.15781,-0.42053 -4.47289,-1.26158 -1.31513,-0.84107 -2.54613,-2.18676 -3.69301,-4.03708 -0.65757,-1.07044 -1.80446,-3.5095 -3.44069,-7.31719 -0.76461,-1.80445 -1.45274,-3.15778 -2.06441,-4.06002 -0.47406,-0.70342 -1.12397,-1.3992 -1.94972,-2.08735 z m 2.40848,-10.84964 c 2.0644,0.0153 3.73505,-0.18349 5.01194,-0.59639 1.27686,-0.41287 2.18673,-0.96338 2.72961,-1.65153 0.54285,-0.68812 0.81428,-1.43743 0.8143,-2.24791 -2e-5,-0.58108 -0.15676,-1.04749 -0.47023,-1.39922 -0.3135,-0.35169 -0.69198,-0.52755 -1.13543,-0.52757 -1.43746,2e-5 -3.6395,1.60567 -6.60612,4.81697 z"
         id="path3085" />
    </g>
    <g
       id="text3760-7"
       style="font-size:78.30524445px;font-style:oblique;font-variant:normal;font-weight:normal;font-stretch:normal;text-align:center;line-height:120.00000477%;letter-spacing:0px;word-spacing:0px;writing-mode:lr-tb;text-anchor:middle;fill:none;stroke:#000000;stroke-width:0.99921262;stroke-miterlimit:4;stroke-opacity:1;font-family:Monotype Corsiva;-inkscape-font-specification:Monotype Corsiva Oblique">
      <path
         d="m 333.81766,533.15203 -0.53529,2.17939 c -1.75885,0.38235 -3.19903,0.57353 -4.32056,0.57353 -1.07061,0 -2.84216,-0.11471 -5.31466,-0.34412 -1.86079,-0.15294 -3.53039,-0.22941 -5.00878,-0.22941 -2.54902,0 -5.17449,0.22941 -7.87641,0.68823 l 0.53529,-2.10292 c 2.57447,-0.2549 4.44799,-0.79019 5.62054,-1.60587 0.84115,-0.58627 1.56124,-1.58675 2.16028,-3.00145 0.59899,-1.41469 1.95633,-6.35337 4.07203,-14.81605 l 4.89407,-20.26455 0.26765,-0.95587 c -1.50394,-0.0509 -2.63824,-0.0764 -3.40291,-0.0765 -4.71568,4e-5 -8.45633,0.50984 -11.22197,1.5294 -2.76568,1.01964 -4.84311,2.49806 -6.2323,4.43526 -1.38922,1.93727 -2.08382,4.02745 -2.08381,6.27053 -1e-5,0.79022 0.14018,1.51669 0.42058,2.1794 0.20391,0.45885 0.76469,1.19805 1.68234,2.21763 0.86665,0.94315 1.29998,1.80981 1.29999,2.59998 -10e-6,0.68825 -0.25491,1.27452 -0.7647,1.75881 -0.50981,0.48433 -1.12157,0.72648 -1.83528,0.72646 -1.07058,2e-5 -1.93724,-0.50978 -2.59997,-1.5294 -0.96863,-1.50389 -1.45294,-3.41563 -1.45293,-5.73525 -10e-6,-3.10974 0.96224,-6.1303 2.88674,-9.06169 1.92448,-2.93131 4.56906,-5.19991 7.93376,-6.80582 3.36465,-1.60583 7.45579,-2.40876 12.27343,-2.40881 2.29406,5e-5 5.95187,0.33142 10.97344,0.99411 3.56855,0.45887 6.15578,0.68828 7.7617,0.68823 1.60582,5e-5 2.74012,-0.2676 3.40291,-0.80293 0.66269,-0.53525 0.99406,-1.24897 0.99411,-2.14116 -5e-5,-0.17839 -0.0383,-0.53524 -0.1147,-1.07058 -0.0765,-0.48426 -0.11476,-0.80289 -0.11471,-0.95588 -5e-5,-0.68818 0.22936,-1.2617 0.68823,-1.72057 0.45877,-0.45877 1.0068,-0.68818 1.6441,-0.68823 0.76465,5e-5 1.39553,0.28044 1.89264,0.84117 0.49699,0.56083 0.74552,1.31278 0.74558,2.25586 -6e-5,1.93729 -1.0324,3.60688 -3.09704,5.00879 -2.06474,1.40199 -5.51863,2.10296 -10.36168,2.10292 -1.73336,4e-5 -3.58138,-0.0764 -5.54407,-0.22941 -0.25494,0.91768 -1.05787,4.02746 -2.4088,9.32934 l -3.32645,13.2293 -2.02645,8.06758 -2.10292,9.21463 c 1.7078,0.20392 3.12249,0.30588 4.24408,0.30588 1.70779,0 3.49209,-0.21666 5.3529,-0.64999 z"
         id="path3088" />
      <path
         d="m 348.80577,535.33142 -5.69701,0 2.67645,-10.28521 c 1.29997,-5.047 2.43428,-9.83911 3.40291,-14.37635 0.2294,-1.12154 0.3441,-1.82251 0.34411,-2.10293 -1e-5,-0.61173 -0.2804,-0.91761 -0.84117,-0.91764 -0.38236,3e-5 -0.96863,0.2613 -1.7588,0.78382 -0.79021,0.52257 -2.21764,1.81619 -4.28232,3.88085 l -1.18529,-1.33822 c 2.44703,-2.62544 4.8877,-4.59454 7.322,-5.90731 2.43428,-1.3127 4.30142,-1.96907 5.60143,-1.9691 0.4588,3e-5 0.82203,0.10837 1.08969,0.325 0.26763,0.21669 0.40145,0.49071 0.40147,0.82205 -2e-5,0.3314 -0.1657,1.2108 -0.49705,2.63821 l -1.64411,6.84407 c 2.57447,-4.05289 5.48033,-7.51952 8.71758,-10.39992 1.55486,-1.37643 2.85485,-2.06465 3.89997,-2.06469 0.76466,4e-5 1.40191,0.24856 1.91175,0.74558 0.50976,0.49709 0.76466,1.07699 0.7647,1.7397 -4e-5,0.68826 -0.24857,1.27452 -0.74559,1.7588 -0.49708,0.48434 -1.73972,1.05787 -3.72791,1.72058 -1.88628,0.63728 -3.42205,1.40197 -4.60731,2.2941 -1.18531,0.89217 -2.4853,2.25589 -3.89997,4.09114 -1.41471,1.8353 -2.40245,3.43479 -2.96321,4.79849 -0.5608,1.36373 -1.41471,4.53086 -2.56175,9.50139 z"
         id="path3090" />
      <path
         d="m 381.57315,486.73476 c 0.79017,5e-5 1.44016,0.26132 1.94998,0.78382 0.50978,0.52259 0.76468,1.1917 0.7647,2.00733 -2e-5,1.12161 -0.38874,2.10934 -1.16616,2.96321 -0.77747,0.85396 -1.6505,1.28092 -2.6191,1.28087 -0.76472,5e-5 -1.40197,-0.2676 -1.91175,-0.80293 -0.50982,-0.53525 -0.76472,-1.23622 -0.7647,-2.10292 -2e-5,-1.14701 0.36959,-2.122 1.10882,-2.92498 0.73919,-0.80289 1.61859,-1.20435 2.63821,-1.2044 z m -15.06458,25.31156 -1.68234,-1.29999 c 2.54899,-2.80387 4.87495,-4.79846 6.97788,-5.98378 2.10291,-1.18525 3.89358,-1.77789 5.37202,-1.77792 0.81566,3e-5 1.44016,0.17846 1.87351,0.53529 0.43331,0.35689 0.64998,0.8412 0.65,1.45292 -2e-5,0.73924 -0.82845,3.87451 -2.48528,9.40581 -2.70195,9.04896 -4.05292,14.50381 -4.05291,16.36457 -10e-6,0.35687 0.0892,0.65637 0.26765,0.89853 0.17841,0.24215 0.36959,0.36323 0.57352,0.36323 0.81567,0 2.90584,-1.58038 6.27054,-4.74114 l 1.49117,1.45293 c -3.49215,3.28821 -6.04115,5.39113 -7.647,6.30877 -1.60588,0.91764 -2.91862,1.37646 -3.9382,1.37646 -0.89216,0 -1.59951,-0.28039 -2.12205,-0.84117 -0.52255,-0.56078 -0.78382,-1.33822 -0.78381,-2.33233 -1e-5,-3.18625 1.91174,-10.97343 5.73524,-23.36158 0.17842,-0.58624 0.26763,-1.10879 0.26765,-1.56763 -2e-5,-0.50977 -0.22943,-0.76467 -0.68823,-0.7647 -0.50981,3e-5 -1.08971,0.20395 -1.73969,0.61176 -0.65001,0.40786 -2.09656,1.70785 -4.33967,3.89997 z"
         id="path3092" />
      <path
         d="m 410.17292,502.52581 2.52351,-0.53529 -2.86763,9.67345 c -1.14708,3.849 -2.2304,8.28426 -3.24997,13.30577 -0.56081,2.72744 -0.8412,4.48624 -0.84117,5.27643 -3e-5,0.79019 0.3186,1.18529 0.95587,1.18528 0.40781,10e-6 1.05781,-0.26764 1.94999,-0.80293 1.58034,-0.94313 3.097,-2.11566 4.54996,-3.51762 l 1.22352,1.49116 c -2.90589,2.65097 -4.76666,4.25683 -5.58231,4.81761 -1.63139,1.12156 -3.18627,1.94999 -4.66467,2.48528 -0.96864,0.35685 -1.91177,0.53528 -2.82938,0.53529 -0.66277,-10e-6 -1.15982,-0.15295 -1.49117,-0.45882 -0.33139,-0.30588 -0.49708,-0.75196 -0.49705,-1.33823 -3e-5,-0.38235 0.10193,-0.90489 0.30588,-1.56763 l 1.5294,-5.19996 c -2.19216,2.62547 -4.80489,4.88133 -7.83818,6.76759 -1.86078,1.17254 -3.56861,1.75881 -5.12348,1.75881 -1.47843,0 -2.61274,-0.52254 -3.40292,-1.56763 -1.07058,-1.40195 -1.60587,-3.23723 -1.60587,-5.50584 0,-2.70193 0.72009,-5.70975 2.16028,-9.02346 1.44018,-3.31368 3.37104,-6.32149 5.7926,-9.02345 2.42153,-2.70192 4.97053,-4.69013 7.647,-5.96466 2.06466,-0.96859 4.71562,-1.4529 7.95287,-1.45293 0.81565,3e-5 1.64408,0.051 2.48528,0.15294 z m -4.74114,5.84995 c -1.37649,-0.28036 -2.53628,-0.42056 -3.47938,-0.42059 -2.29413,3e-5 -4.29509,0.63091 -6.0029,1.89263 -1.70784,1.26178 -3.29459,3.53039 -4.76025,6.80583 -1.46569,3.27548 -2.19852,6.54457 -2.19851,9.80727 -1e-5,1.73333 0.29312,2.98234 0.8794,3.74703 0.58626,0.76471 1.35096,1.14706 2.2941,1.14705 1.75879,1e-5 3.64505,-0.94949 5.65878,-2.8485 2.01368,-1.899 3.4921,-4.6328 4.43526,-8.20141 z"
         id="path3094" />
      <path
         d="m 418.12579,512.12279 -1.29999,-1.33823 c 3.26271,-3.10975 5.86268,-5.17444 7.79994,-6.19407 1.93722,-1.01956 3.59407,-1.52936 4.97054,-1.52939 0.53527,3e-5 0.95586,0.11473 1.26176,0.34411 0.30586,0.22944 0.4588,0.49709 0.45882,0.80294 -2e-5,0.22944 -0.0638,0.63728 -0.19118,1.22351 l -1.72057,7.68524 c 2.59996,-2.88035 5.86267,-5.56954 9.78815,-8.06759 2.09015,-1.29995 3.81072,-1.94995 5.16173,-1.94998 0.99407,3e-5 1.77151,0.31866 2.33233,0.95588 0.56074,0.63728 0.84113,1.55491 0.84117,2.75291 -4e-5,0.79022 -0.11474,1.68237 -0.34411,2.67645 -0.40788,1.65688 -1.47846,5.26371 -3.21174,10.8205 -1.63139,5.19997 -2.44707,8.65386 -2.44704,10.36168 -3e-5,0.50981 0.0764,0.89216 0.22941,1.14705 0.15291,0.25491 0.36957,0.38236 0.64999,0.38235 0.73918,10e-6 1.89897,-0.71371 3.47939,-2.14116 1.12152,-1.01959 2.24308,-1.96272 3.36467,-2.82939 l 0.95588,1.37646 c -2.34512,2.59999 -4.77941,4.69016 -7.30288,6.27054 -1.6059,1.0196 -2.93138,1.5294 -3.97644,1.5294 -0.96865,0 -1.7206,-0.35049 -2.25587,-1.05146 -0.53531,-0.70098 -0.80296,-1.84165 -0.80293,-3.42203 -3e-5,-2.26861 1.41467,-7.91463 4.24408,-16.9381 0.86663,-3.21171 1.29996,-5.08523 1.29999,-5.62054 -3e-5,-0.79017 -0.47159,-1.18526 -1.41469,-1.18529 -1.01963,3e-5 -2.33236,0.53532 -3.9382,1.60587 -2.39609,1.58041 -4.39705,3.44117 -6.0029,5.58231 -1.01962,1.37648 -1.87353,3.56861 -2.56174,6.57642 l -3.09703,13.34401 -5.69702,0 c 1.07057,-3.8235 2.00096,-7.48131 2.79116,-10.97344 l 3.40291,-14.5293 c 0.12744,-0.58624 0.19116,-1.00683 0.19118,-1.26175 -2e-5,-0.6882 -0.25492,-1.03232 -0.7647,-1.03235 -0.40786,3e-5 -0.99413,0.26768 -1.75881,0.80294 -1.58039,1.04511 -3.05881,2.31961 -4.43526,3.8235 z"
         id="path3096" />
      <path
         d="m 478.80471,502.90816 3.09703,-0.68823 c -1.8608,5.96468 -3.56863,11.94208 -5.12349,17.9322 -1.12158,4.28233 -1.89903,7.85093 -2.33233,10.7058 -0.22944,1.42744 -0.35689,3.23723 -0.38235,5.42937 -0.051,3.67055 -0.45885,6.62738 -1.22352,8.87051 -1.0706,3.13526 -3.06519,5.65876 -5.98377,7.57053 -2.91862,1.91173 -6.37889,2.8676 -10.3808,2.86762 -3.44116,-2e-5 -6.14946,-0.80932 -8.12494,-2.42792 -1.97547,-1.61863 -2.96321,-3.47302 -2.96321,-5.56319 0,-2.0647 0.79019,-3.98919 2.37057,-5.77348 1.17254,-1.35098 3.61958,-2.98233 7.34112,-4.89408 1.88625,-0.99411 3.6578,-2.01371 5.31466,-3.0588 -1.88627,0.96862 -3.35194,1.45293 -4.39702,1.45293 -0.94314,0 -1.77794,-0.4397 -2.50439,-1.31911 -0.72647,-0.8794 -1.08971,-2.04556 -1.0897,-3.4985 -1e-5,-4.69015 1.39557,-9.34844 4.18673,-13.97488 2.79114,-4.62641 6.14944,-8.09942 10.07492,-10.41904 2.42153,-1.4274 5.45483,-2.14112 9.09992,-2.14115 0.71369,3e-5 1.5931,0.0255 2.63822,0.0765 z m -4.28232,5.65877 c -1.22355,-0.22938 -2.30687,-0.34408 -3.24997,-0.34411 -2.42157,3e-5 -4.49901,0.63727 -6.23231,1.91175 -1.73333,1.27452 -3.21175,3.41568 -4.43525,6.42347 -1.70784,4.25685 -2.56176,7.83819 -2.56175,10.74403 -1e-5,1.19804 0.33773,2.20489 1.01323,3.02057 0.67547,0.81568 1.4338,1.22352 2.27498,1.22352 1.01959,0 2.28134,-0.49068 3.78526,-1.47205 1.50389,-0.98136 2.73378,-2.21125 3.68968,-3.68968 0.95585,-1.4784 1.93084,-4.0274 2.92498,-7.64699 z m -5.19996,20.83807 c -1.73334,1.55489 -5.07252,4.04016 -10.01756,7.45582 -4.3588,2.95683 -7.03525,5.08525 -8.02935,6.38524 -0.99411,1.32547 -1.49117,2.72742 -1.49116,4.20585 -10e-6,1.45292 0.64361,2.75928 1.93086,3.91909 1.28724,1.15977 2.8485,1.73967 4.68379,1.73969 1.73331,-2e-5 3.41564,-0.42698 5.04702,-1.28087 1.63134,-0.85393 3.0524,-2.0902 4.2632,-3.7088 1.21075,-1.61862 2.04555,-3.44753 2.50439,-5.48672 0.4588,-2.0392 0.70095,-4.74114 0.72646,-8.10581 0.0255,-0.73921 0.15292,-2.44704 0.38235,-5.12349 z"
         id="path3098" />
      <path
         d="m 500.33101,526.11679 1.29999,1.37646 c -1.98824,2.24312 -4.33969,4.28869 -7.05436,6.13671 -2.71469,1.84803 -4.95144,2.77204 -6.71023,2.77204 -0.7902,0 -1.4402,-0.29951 -1.94999,-0.89852 -0.50981,-0.59902 -0.76471,-1.42107 -0.7647,-2.46616 -1e-5,-2.03919 0.79018,-6.27053 2.37057,-12.69401 l 4.12938,-16.78516 c 1.50389,-6.06658 2.76565,-10.13223 3.78526,-12.19696 1.58036,-3.13522 3.81711,-5.56951 6.71024,-7.30288 2.89309,-1.73327 5.94551,-2.59993 9.15728,-2.59998 1.09603,5e-5 1.95632,0.26133 2.58086,0.78382 0.62447,0.52259 0.93672,1.15347 0.93676,1.89263 -4e-5,0.81573 -0.30592,1.48484 -0.91764,2.00734 -0.6118,0.52259 -1.50395,0.78386 -2.67645,0.78381 -0.76473,5e-5 -1.84806,-0.1274 -3.24997,-0.38235 -1.22355,-0.20387 -2.35786,-0.30583 -3.40292,-0.30588 -1.04511,5e-5 -1.8353,0.21672 -2.37057,0.65 -0.73923,0.61181 -1.40834,1.89905 -2.00733,3.86173 -0.59904,1.96277 -1.57403,5.83725 -2.92498,11.62344 l -3.78526,16.02045 c -1.88628,8.02936 -2.8294,12.22246 -2.82939,12.57931 -10e-6,0.81569 0.29312,1.22353 0.8794,1.22352 0.56077,10e-6 1.37645,-0.33136 2.44704,-0.99411 2.11565,-1.32547 4.23132,-3.02055 6.34701,-5.08525 z"
         id="path3100" />
      <path
         d="m 523.27199,525.73444 1.26175,1.68234 c -6.24507,5.93917 -11.59796,8.90875 -16.05869,8.90875 -1.8098,0 -3.19263,-0.61176 -4.1485,-1.83528 -0.95588,-1.22352 -1.43381,-3.18624 -1.43381,-5.88819 0,-5.45484 1.65684,-10.8842 4.97055,-16.2881 3.72152,-6.14306 8.16952,-9.2146 13.34401,-9.21463 1.80976,3e-5 3.19259,0.45248 4.14849,1.35734 0.95585,0.90493 1.43379,2.14756 1.43382,3.72791 -3e-5,1.65688 -0.57356,3.28824 -1.72058,4.89408 -1.14708,1.60589 -3.19902,3.27548 -6.15583,5.00878 -1.47844,0.84119 -4.6392,2.35784 -9.48228,4.54997 -0.22942,1.37647 -0.34412,2.6892 -0.34411,3.9382 -1e-5,1.8098 0.28675,3.07155 0.86029,3.78526 0.57351,0.71373 1.4083,1.07059 2.50439,1.07058 1.04507,10e-6 2.19212,-0.29313 3.44115,-0.8794 1.68231,-0.79019 4.1421,-2.39605 7.37935,-4.81761 z m -13.38225,-5.54407 c 4.10387,-1.83526 7.18816,-3.81074 9.25287,-5.92642 1.40192,-1.4784 2.1029,-2.94407 2.10292,-4.39703 -2e-5,-1.09604 -0.28678,-1.96907 -0.86028,-2.61909 -0.57355,-0.64997 -1.31913,-0.97497 -2.23675,-0.975 -0.94315,3e-5 -1.86079,0.35689 -2.75292,1.07058 -1.19805,0.94316 -2.2049,2.3706 -3.02056,4.28232 -1.17256,2.80392 -2.00098,5.6588 -2.48528,8.56464 z"
         id="path3102" />
    </g>
    <g
       transform="translate(204.95329,-9.4298944)"
       id="flowRoot3827-45"
       style="font-size:32px;font-style:normal;font-variant:normal;font-weight:normal;font-stretch:normal;text-align:justify;line-height:120.00000477%;letter-spacing:0px;word-spacing:0px;writing-mode:lr-tb;text-anchor:start;fill:none;stroke:#000000;font-family:Monospace;-inkscape-font-specification:Monospace">
      <path
         d="m 194.01562,323.12011 c -1e-5,1.3125 -0.26563,2.5293 -0.79687,3.65039 -0.53126,1.12109 -1.26368,1.99414 -2.19727,2.61914 -0.9336,0.625 -1.93555,0.9375 -3.00586,0.9375 -1.58594,0 -2.98242,-0.67383 -4.18945,-2.02149 -1.20703,-1.34765 -1.81055,-3.07616 -1.81055,-5.18554 0,-2.11718 0.60352,-3.84765 1.81055,-5.19141 1.20703,-1.34373 2.60351,-2.01561 4.18945,-2.01562 1.07031,1e-5 2.07031,0.31251 3,0.9375 0.92968,0.62501 1.6621,1.4961 2.19727,2.61328 0.53514,1.11719 0.80272,2.33594 0.80273,3.65625 z m -0.99609,0 c -1e-5,-1.60156 -0.46485,-3.03905 -1.39453,-4.3125 -0.9297,-1.27343 -2.13282,-1.91015 -3.60938,-1.91016 -1.38281,1e-5 -2.56445,0.60744 -3.54492,1.82227 -0.98047,1.21485 -1.4707,2.68165 -1.4707,4.40039 0,1.82813 0.51367,3.32227 1.54102,4.48242 1.02733,1.16016 2.18554,1.74023 3.4746,1.74023 1.47656,0 2.67968,-0.63476 3.60938,-1.90429 0.92968,-1.26953 1.39452,-2.70898 1.39453,-4.31836 z"
         id="path3118"
         style="font-size:24px;text-align:center;text-anchor:middle;stroke:#000000" />
      <path
         d="m 203.25,329.94042 -1.66406,0 -4.04297,-9.15234 -1.00781,0 c -0.23438,1e-5 -0.40235,-0.0469 -0.50391,-0.14063 -0.10156,-0.0937 -0.15234,-0.21483 -0.15234,-0.36328 0,-0.14061 0.0508,-0.2578 0.15234,-0.35156 0.10156,-0.0937 0.26953,-0.14062 0.50391,-0.14063 l 3.6914,0 c 0.23437,10e-6 0.40234,0.0469 0.50391,0.14063 0.10156,0.0938 0.15234,0.21485 0.15234,0.36328 0,0.14063 -0.0508,0.25782 -0.15234,0.35156 -0.10157,0.0938 -0.26954,0.14064 -0.50391,0.14063 l -1.6289,0 3.60937,8.16797 0.43359,0 3.53907,-8.16797 -1.64063,0 c -0.23438,1e-5 -0.40235,-0.0469 -0.5039,-0.14063 -0.10157,-0.0937 -0.15236,-0.21483 -0.15235,-0.36328 -1e-5,-0.14061 0.0508,-0.2578 0.15235,-0.35156 0.10155,-0.0937 0.26952,-0.14062 0.5039,-0.14063 l 3.70313,0 c 0.24217,10e-6 0.41209,0.0469 0.50976,0.14063 0.0977,0.0938 0.14647,0.21485 0.14649,0.36328 -2e-5,0.14063 -0.0488,0.25782 -0.14649,0.35156 -0.0977,0.0938 -0.26759,0.14064 -0.50976,0.14063 l -0.9961,0 z"
         id="path3120"
         style="font-size:24px;text-align:center;text-anchor:middle;stroke:#000000" />
      <path
         d="m 222.10547,325.10058 -10.03125,0 c 0.17187,1.27344 0.70507,2.29883 1.59961,3.07617 0.89452,0.77734 2.00195,1.16601 3.32226,1.16601 0.73437,0 1.5039,-0.12109 2.3086,-0.36328 0.80467,-0.24218 1.46092,-0.5625 1.96875,-0.96093 0.14842,-0.11719 0.27733,-0.17578 0.38672,-0.17579 0.12498,10e-6 0.23436,0.0488 0.32812,0.14649 0.0937,0.0977 0.14061,0.21289 0.14063,0.3457 -2e-5,0.13282 -0.0625,0.26172 -0.1875,0.38672 -0.37502,0.39063 -1.04103,0.75586 -1.99805,1.0957 -0.95704,0.33985 -1.93946,0.50977 -2.94727,0.50977 -1.6875,0 -3.0957,-0.55273 -4.22461,-1.6582 -1.1289,-1.10547 -1.69336,-2.44336 -1.69336,-4.01368 0,-1.42968 0.5293,-2.65624 1.5879,-3.67968 1.05859,-1.02343 2.36913,-1.53515 3.93164,-1.53516 1.60936,10e-6 2.93358,0.5254 3.97265,1.57617 1.03905,1.05079 1.55077,2.41212 1.53516,4.08399 z m -0.9961,-0.9961 c -0.19532,-1.08593 -0.70899,-1.96874 -1.54101,-2.64843 -0.83204,-0.67968 -1.82227,-1.01953 -2.9707,-1.01954 -1.14845,10e-6 -2.13673,0.33595 -2.96485,1.00782 -0.82813,0.67188 -1.34375,1.5586 -1.54687,2.66015 z"
         id="path3122"
         style="font-size:24px;text-align:center;text-anchor:middle;stroke:#000000" />
      <path
         d="m 227.98828,319.79198 0,1.48828 c 0.6875,-0.6953 1.30859,-1.17577 1.86328,-1.4414 0.55468,-0.26562 1.17968,-0.39843 1.875,-0.39844 0.74999,10e-6 1.43359,0.16017 2.05078,0.48047 0.43749,0.23438 0.83398,0.62306 1.18946,1.16601 0.35545,0.54298 0.53319,1.09962 0.5332,1.66993 l 0,6.19922 0.83203,0 c 0.23436,0 0.40233,0.0449 0.50391,0.13476 0.10155,0.0899 0.15233,0.20899 0.15234,0.35742 -1e-5,0.14063 -0.0508,0.25782 -0.15234,0.35157 -0.10158,0.0937 -0.26955,0.14062 -0.50391,0.14062 l -2.63672,0 c -0.24219,0 -0.41407,-0.0469 -0.51562,-0.14062 -0.10157,-0.0937 -0.15236,-0.21094 -0.15235,-0.35157 -1e-5,-0.14843 0.0508,-0.26757 0.15235,-0.35742 0.10155,-0.0898 0.27343,-0.13476 0.51562,-0.13476 l 0.82031,0 0,-6.03516 c -1e-5,-0.69531 -0.25391,-1.2832 -0.76171,-1.76367 -0.50783,-0.48046 -1.18751,-0.7207 -2.03907,-0.72071 -0.64844,10e-6 -1.21094,0.13087 -1.6875,0.39258 -0.47656,0.26173 -1.15625,0.91212 -2.03906,1.95117 l 0,6.17579 1.11328,0 c 0.23437,0 0.40234,0.0449 0.50391,0.13476 0.10156,0.0899 0.15234,0.20899 0.15234,0.35742 0,0.14063 -0.0508,0.25782 -0.15234,0.35157 -0.10157,0.0937 -0.26954,0.14062 -0.50391,0.14062 l -3.21094,0 c -0.23437,0 -0.40234,-0.0469 -0.5039,-0.14062 -0.10157,-0.0937 -0.15235,-0.21094 -0.15235,-0.35157 0,-0.14843 0.0508,-0.26757 0.15235,-0.35742 0.10156,-0.0898 0.26953,-0.13476 0.5039,-0.13476 l 1.11329,0 0,-8.16797 -0.83204,0 c -0.23437,1e-5 -0.40234,-0.0469 -0.5039,-0.14063 -0.10157,-0.0937 -0.15235,-0.21483 -0.15235,-0.36328 0,-0.14061 0.0508,-0.2578 0.15235,-0.35156 0.10156,-0.0937 0.26953,-0.14062 0.5039,-0.14063 z"
         id="path3124"
         style="font-size:24px;text-align:center;text-anchor:middle;stroke:#000000" />
    </g>
    <g
       transform="translate(356.35639,254.36305)"
       id="flowRoot3827"
       style="font-size:32px;font-style:normal;font-variant:normal;font-weight:normal;font-stretch:normal;text-align:justify;line-height:120.00000477%;letter-spacing:0px;word-spacing:0px;writing-mode:lr-tb;text-anchor:start;fill:none;stroke:#000000;font-family:Monospace;-inkscape-font-specification:Monospace">
      <path
         d="m 191.51953,317.21386 0,-0.32813 c -1e-5,-0.23436 0.0449,-0.40233 0.13477,-0.5039 0.0898,-0.10155 0.20897,-0.15233 0.35742,-0.15235 0.14842,2e-5 0.26757,0.0508 0.35742,0.15235 0.0898,0.10157 0.13475,0.26954 0.13477,0.5039 l 0,2.50782 c -2e-5,0.23438 -0.0449,0.40235 -0.13477,0.5039 -0.0898,0.10157 -0.209,0.15236 -0.35742,0.15235 -0.14064,10e-6 -0.25587,-0.0469 -0.3457,-0.14063 -0.0899,-0.0937 -0.13869,-0.24608 -0.14649,-0.45703 -0.0391,-0.65624 -0.37696,-1.24608 -1.01367,-1.76953 -0.63673,-0.52343 -1.47071,-0.78515 -2.50195,-0.78516 -1.08595,1e-5 -1.94923,0.27931 -2.58985,0.83789 -0.64063,0.55861 -0.96094,1.21681 -0.96094,1.97461 0,0.39064 0.0898,0.74611 0.26954,1.06641 0.17968,0.32032 0.41796,0.58008 0.71484,0.77929 0.29687,0.19923 0.63281,0.35939 1.00781,0.48047 0.375,0.12111 0.96093,0.24806 1.75781,0.38086 1.33593,0.21876 2.25781,0.44142 2.76563,0.66797 0.67968,0.3047 1.19335,0.72657 1.54102,1.26563 0.34764,0.53906 0.52147,1.17578 0.52148,1.91015 -1e-5,1.12501 -0.44923,2.08399 -1.34766,2.87696 -0.89844,0.79296 -2.10938,1.18945 -3.63281,1.18945 -1.71094,0 -3.07813,-0.53516 -4.10156,-1.60547 l 0,0.5625 c 0,0.23438 -0.0449,0.40234 -0.13477,0.50391 -0.0898,0.10156 -0.20898,0.15234 -0.35742,0.15234 -0.14063,0 -0.25781,-0.0508 -0.35156,-0.15234 -0.0937,-0.10157 -0.14063,-0.26953 -0.14063,-0.50391 l 0,-2.71875 c 0,-0.24218 0.0449,-0.41406 0.13477,-0.51562 0.0898,-0.10156 0.20898,-0.15234 0.35742,-0.15235 0.14062,1e-5 0.25586,0.0469 0.3457,0.14063 0.0899,0.0937 0.13867,0.24609 0.14649,0.45703 0.0391,0.71875 0.42382,1.37305 1.1543,1.96289 0.73046,0.58984 1.71288,0.88476 2.94726,0.88476 1.23437,0 2.20898,-0.30859 2.92383,-0.92578 0.71483,-0.61718 1.07225,-1.34765 1.07226,-2.1914 -1e-5,-0.51562 -0.13672,-0.97461 -0.41015,-1.37696 -0.27345,-0.40233 -0.6797,-0.72069 -1.21875,-0.95507 -0.37501,-0.16406 -1.15626,-0.34765 -2.34375,-0.55079 -1.63282,-0.27343 -2.8086,-0.69139 -3.52735,-1.2539 -0.71875,-0.56249 -1.07812,-1.36327 -1.07812,-2.40235 0,-1.03123 0.41211,-1.91795 1.23633,-2.66015 0.82421,-0.74218 1.9121,-1.11327 3.26367,-1.11328 1.37499,1e-5 2.55858,0.4336 3.55078,1.30078 z"
         id="path3127"
         style="font-size:24px;text-align:center;text-anchor:middle;stroke:#000000" />
      <path
         d="m 202.875,314.7412 0,2.54297 -1.45313,0 0,-2.54297 z m 0.0352,5.05078 0,9.16407 3.86718,0 c 0.24218,0 0.41405,0.0449 0.51563,0.13476 0.10155,0.0899 0.15233,0.20899 0.15234,0.35742 -1e-5,0.14063 -0.0508,0.25782 -0.15234,0.35157 -0.10158,0.0937 -0.27345,0.14062 -0.51563,0.14062 l -8.71875,0 c -0.23437,0 -0.40234,-0.0469 -0.5039,-0.14062 -0.10157,-0.0937 -0.15235,-0.21094 -0.15235,-0.35157 0,-0.14843 0.0508,-0.26757 0.15235,-0.35742 0.10156,-0.0898 0.26953,-0.13476 0.5039,-0.13476 l 3.86719,0 0,-8.16797 -2.87109,0 c -0.23438,1e-5 -0.4043,-0.0469 -0.50977,-0.14063 -0.10547,-0.0937 -0.1582,-0.21093 -0.1582,-0.35156 0,-0.14843 0.0508,-0.26952 0.15234,-0.36328 0.10156,-0.0937 0.27344,-0.14062 0.51563,-0.14063 z"
         id="path3129"
         style="font-size:24px;text-align:center;text-anchor:middle;stroke:#000000" />
      <path
         d="m 213.59766,319.79198 0,1.48828 c 0.68749,-0.6953 1.30858,-1.17577 1.86328,-1.4414 0.55468,-0.26562 1.17968,-0.39843 1.875,-0.39844 0.74999,10e-6 1.43358,0.16017 2.05078,0.48047 0.43749,0.23438 0.83397,0.62306 1.18945,1.16601 0.35546,0.54298 0.53319,1.09962 0.5332,1.66993 l 0,6.19922 0.83204,0 c 0.23436,0 0.40233,0.0449 0.5039,0.13476 0.10155,0.0899 0.15233,0.20899 0.15235,0.35742 -2e-5,0.14063 -0.0508,0.25782 -0.15235,0.35157 -0.10157,0.0937 -0.26954,0.14062 -0.5039,0.14062 l -2.63672,0 c -0.2422,0 -0.41407,-0.0469 -0.51563,-0.14062 -0.10157,-0.0937 -0.15235,-0.21094 -0.15234,-0.35157 -1e-5,-0.14843 0.0508,-0.26757 0.15234,-0.35742 0.10156,-0.0898 0.27343,-0.13476 0.51563,-0.13476 l 0.82031,0 0,-6.03516 c -1e-5,-0.69531 -0.25392,-1.2832 -0.76172,-1.76367 -0.50782,-0.48046 -1.18751,-0.7207 -2.03906,-0.72071 -0.64845,10e-6 -1.21095,0.13087 -1.6875,0.39258 -0.47657,0.26173 -1.15626,0.91212 -2.03906,1.95117 l 0,6.17579 1.11328,0 c 0.23437,0 0.40234,0.0449 0.5039,0.13476 0.10156,0.0899 0.15234,0.20899 0.15235,0.35742 -1e-5,0.14063 -0.0508,0.25782 -0.15235,0.35157 -0.10156,0.0937 -0.26953,0.14062 -0.5039,0.14062 l -3.21094,0 c -0.23438,0 -0.40235,-0.0469 -0.50391,-0.14062 -0.10156,-0.0937 -0.15234,-0.21094 -0.15234,-0.35157 0,-0.14843 0.0508,-0.26757 0.15234,-0.35742 0.10156,-0.0898 0.26953,-0.13476 0.50391,-0.13476 l 1.11328,0 0,-8.16797 -0.83203,0 c -0.23438,1e-5 -0.40235,-0.0469 -0.50391,-0.14063 -0.10156,-0.0937 -0.15234,-0.21483 -0.15234,-0.36328 0,-0.14061 0.0508,-0.2578 0.15234,-0.35156 0.10156,-0.0937 0.26953,-0.14062 0.50391,-0.14063 z"
         id="path3131"
         style="font-size:24px;text-align:center;text-anchor:middle;stroke:#000000" />
      <path
         d="m 229.17187,325.55761 0,4.38281 -2.30859,0 c -0.23438,0 -0.40234,-0.0469 -0.50391,-0.14062 -0.10156,-0.0937 -0.15234,-0.21094 -0.15234,-0.35157 0,-0.14843 0.0508,-0.26757 0.15234,-0.35742 0.10157,-0.0898 0.26953,-0.13476 0.50391,-0.13476 l 1.32422,0 0,-12.72657 -1.32422,0 c -0.23438,2e-5 -0.40234,-0.0469 -0.50391,-0.14062 -0.10156,-0.0937 -0.15234,-0.21483 -0.15234,-0.36328 0,-0.14061 0.0508,-0.2578 0.15234,-0.35157 0.10157,-0.0937 0.26953,-0.14061 0.50391,-0.14062 l 2.30859,0 0,9.07031 4.1836,-3.51562 -0.50391,0 c -0.23438,1e-5 -0.40235,-0.0469 -0.5039,-0.14063 -0.10157,-0.0937 -0.15236,-0.21093 -0.15235,-0.35156 -1e-5,-0.14843 0.0508,-0.26952 0.15235,-0.36328 0.10155,-0.0937 0.26952,-0.14062 0.5039,-0.14063 l 3.15235,0 c 0.24217,10e-6 0.41405,0.0469 0.51562,0.14063 0.10155,0.0938 0.15233,0.21485 0.15234,0.36328 -1e-5,0.14063 -0.0508,0.25782 -0.15234,0.35156 -0.10157,0.0938 -0.27345,0.14064 -0.51562,0.14063 l -1.13672,0 -3.84375,3.21093 4.86328,4.95704 1.13672,0 c 0.24217,0 0.41405,0.0449 0.51562,0.13476 0.10155,0.0899 0.15233,0.20899 0.15235,0.35742 -2e-5,0.14063 -0.0508,0.25782 -0.15235,0.35157 -0.10157,0.0937 -0.27345,0.14062 -0.51562,0.14062 l -3.1875,0 c -0.23439,0 -0.40236,-0.0469 -0.50391,-0.14062 -0.10157,-0.0937 -0.15235,-0.21094 -0.15234,-0.35157 -1e-5,-0.14843 0.0508,-0.26757 0.15234,-0.35742 0.10155,-0.0898 0.26952,-0.13476 0.50391,-0.13476 l 0.6914,0 -4.23047,-4.34766 z"
         id="path3133"
         style="font-size:24px;text-align:center;text-anchor:middle;stroke:#000000" />
    </g>
    <g
       transform="matrix(0.75724088,0,0,1,97.704782,256.65313)"
       id="flowRoot3827-4"
       style="font-size:24px;font-style:normal;font-variant:normal;font-weight:normal;font-stretch:normal;text-align:justify;line-height:120.00000477%;letter-spacing:0px;word-spacing:0px;writing-mode:lr-tb;text-anchor:start;fill:none;stroke:#000000;font-family:Monospace;-inkscape-font-specification:Monospace">
      <path
         d="m 177.3125,323.31933 0,5.63672 3.375,0 c 0.23437,0 0.40234,0.0449 0.50391,0.13476 0.10155,0.0899 0.15233,0.20899 0.15234,0.35742 -1e-5,0.14063 -0.0508,0.25782 -0.15234,0.35157 -0.10157,0.0937 -0.26954,0.14062 -0.50391,0.14062 l -5.68359,0 c -0.23438,0 -0.40235,-0.0469 -0.50391,-0.14062 -0.10156,-0.0937 -0.15235,-0.21094 -0.15234,-0.35157 -1e-5,-0.14843 0.0508,-0.26757 0.15234,-0.35742 0.10156,-0.0898 0.26953,-0.13476 0.50391,-0.13476 l 1.32421,0 0,-11.74219 -1.32421,0 c -0.23438,10e-6 -0.40235,-0.0449 -0.50391,-0.13477 -0.10156,-0.0898 -0.15235,-0.20897 -0.15234,-0.35742 -1e-5,-0.14842 0.0586,-0.27342 0.17578,-0.375 0.0859,-0.0781 0.24609,-0.11717 0.48047,-0.11719 l 10.83984,0 0,3.38672 c -1e-5,0.23439 -0.0469,0.40236 -0.14063,0.50391 -0.0938,0.10157 -0.21095,0.15235 -0.35156,0.15234 -0.14845,1e-5 -0.26954,-0.0508 -0.36328,-0.15234 -0.0938,-0.10155 -0.14064,-0.26952 -0.14062,-0.50391 l 0,-2.40234 -7.53516,0 0,5.12109 3.52734,0 0,-1.11328 c 0,-0.23437 0.0469,-0.40233 0.14063,-0.50391 0.0937,-0.10155 0.21483,-0.15233 0.36328,-0.15234 0.14062,10e-6 0.2578,0.0508 0.35156,0.15234 0.0937,0.10158 0.14062,0.26954 0.14063,0.50391 l 0,3.21094 c -1e-5,0.23438 -0.0469,0.40235 -0.14063,0.5039 -0.0938,0.10157 -0.21094,0.15235 -0.35156,0.15235 -0.14845,0 -0.26954,-0.0508 -0.36328,-0.15235 -0.0938,-0.10155 -0.14063,-0.26952 -0.14063,-0.5039 l 0,-1.11328 z"
         id="path3105"
         style="text-align:center;text-anchor:middle;stroke:#000000" />
      <path
         d="m 192.89844,319.79198 0,2.48438 c 1.28124,-1.15624 2.24022,-1.90038 2.87695,-2.23242 0.63671,-0.33202 1.2246,-0.49804 1.76367,-0.49805 0.58593,1e-5 1.13085,0.19728 1.63477,0.5918 0.50389,0.39454 0.75584,0.69336 0.75586,0.89648 -2e-5,0.14845 -0.0488,0.27149 -0.14649,0.36914 -0.0977,0.0977 -0.22071,0.14649 -0.36914,0.14649 -0.0781,0 -0.14454,-0.0137 -0.19922,-0.041 -0.0547,-0.0273 -0.15626,-0.11523 -0.30468,-0.26367 -0.27345,-0.27343 -0.51173,-0.46093 -0.71485,-0.5625 -0.20313,-0.10156 -0.40235,-0.15234 -0.59765,-0.15235 -0.4297,10e-6 -0.94728,0.17189 -1.55274,0.51563 -0.60548,0.34376 -1.6543,1.1836 -3.14648,2.51953 l 0,5.39063 4.35937,0 c 0.24218,0 0.41405,0.0449 0.51563,0.13476 0.10155,0.0899 0.15233,0.20899 0.15234,0.35742 -1e-5,0.14063 -0.0508,0.25782 -0.15234,0.35157 -0.10158,0.0937 -0.27345,0.14062 -0.51563,0.14062 l -7.72265,0 c -0.23438,0 -0.40235,-0.0449 -0.50391,-0.13477 -0.10156,-0.0898 -0.15235,-0.20507 -0.15234,-0.3457 -1e-5,-0.13281 0.0488,-0.24414 0.14648,-0.33398 0.0977,-0.0899 0.26758,-0.13477 0.50977,-0.13477 l 2.3789,0 0,-8.20312 -1.8164,0 c -0.23438,1e-5 -0.40235,-0.0469 -0.50391,-0.14063 -0.10157,-0.0937 -0.15235,-0.21483 -0.15234,-0.36328 -1e-5,-0.14061 0.0488,-0.2578 0.14648,-0.35156 0.0977,-0.0937 0.26758,-0.14062 0.50977,-0.14063 z"
         id="path3107"
         style="text-align:center;text-anchor:middle;stroke:#000000" />
      <path
         d="m 208.95312,314.7412 0,2.54297 -1.45312,0 0,-2.54297 z m 0.0352,5.05078 0,9.16407 3.86719,0 c 0.24217,0 0.41405,0.0449 0.51562,0.13476 0.10155,0.0899 0.15234,0.20899 0.15235,0.35742 -1e-5,0.14063 -0.0508,0.25782 -0.15235,0.35157 -0.10157,0.0937 -0.27345,0.14062 -0.51562,0.14062 l -8.71875,0 c -0.23438,0 -0.40235,-0.0469 -0.50391,-0.14062 -0.10156,-0.0937 -0.15234,-0.21094 -0.15234,-0.35157 0,-0.14843 0.0508,-0.26757 0.15234,-0.35742 0.10156,-0.0898 0.26953,-0.13476 0.50391,-0.13476 l 3.86719,0 0,-8.16797 -2.8711,0 c -0.23438,1e-5 -0.4043,-0.0469 -0.50976,-0.14063 -0.10548,-0.0937 -0.15821,-0.21093 -0.15821,-0.35156 0,-0.14843 0.0508,-0.26952 0.15235,-0.36328 0.10156,-0.0937 0.27343,-0.14062 0.51562,-0.14063 z"
         id="path3109"
         style="text-align:center;text-anchor:middle;stroke:#000000" />
      <path
         d="m 227.67969,315.23339 0,13.72266 1.3125,0 c 0.24217,0 0.41405,0.0449 0.51562,0.13476 0.10155,0.0899 0.15233,0.20899 0.15235,0.35742 -2e-5,0.14063 -0.0508,0.25782 -0.15235,0.35157 -0.10157,0.0937 -0.27345,0.14062 -0.51562,0.14062 l -2.3086,0 0,-1.95703 c -1.14063,1.5625 -2.58985,2.34375 -4.34765,2.34375 -0.89063,0 -1.74415,-0.23633 -2.56055,-0.70899 -0.81641,-0.47265 -1.46094,-1.14648 -1.93359,-2.02148 -0.47266,-0.875 -0.70899,-1.77734 -0.70899,-2.70703 0,-0.93749 0.23633,-1.84179 0.70899,-2.71289 0.47265,-0.87109 1.11718,-1.54491 1.93359,-2.02149 0.8164,-0.47655 1.67382,-0.71483 2.57227,-0.71484 1.71874,10e-6 3.16405,0.78126 4.33593,2.34375 l 0,-5.55469 -1.3125,0 c -0.24219,2e-5 -0.41407,-0.0469 -0.51562,-0.14062 -0.10157,-0.0937 -0.15235,-0.21483 -0.15235,-0.36328 0,-0.14061 0.0508,-0.2578 0.15235,-0.35157 0.10155,-0.0937 0.27343,-0.14061 0.51562,-0.14062 z m -0.9961,9.65625 c -1e-5,-1.24999 -0.42188,-2.30468 -1.26562,-3.16406 -0.84376,-0.85937 -1.84767,-1.28906 -3.01172,-1.28907 -1.17188,10e-6 -2.17969,0.4297 -3.02344,1.28907 -0.84375,0.85938 -1.26562,1.91407 -1.26562,3.16406 0,1.24219 0.42187,2.29492 1.26562,3.1582 0.84375,0.86328 1.85156,1.29492 3.02344,1.29492 1.16405,0 2.16796,-0.43164 3.01172,-1.29492 0.84374,-0.86328 1.26561,-1.91601 1.26562,-3.1582 z"
         id="path3111"
         style="text-align:center;text-anchor:middle;stroke:#000000" />
      <path
         d="m 240.55859,321.59667 0,-1.80469 2.3086,0 c 0.23436,10e-6 0.40233,0.0469 0.5039,0.14063 0.10155,0.0938 0.15233,0.21485 0.15235,0.36328 -2e-5,0.14063 -0.0508,0.25782 -0.15235,0.35156 -0.10157,0.0938 -0.26954,0.14064 -0.5039,0.14063 l -1.32422,0 0,9.83203 c -1e-5,0.65625 -0.14064,1.24218 -0.42188,1.75781 -0.18751,0.34375 -0.50001,0.69922 -0.9375,1.06641 -0.43751,0.36718 -0.83594,0.6289 -1.19531,0.78515 -0.35938,0.15625 -0.83985,0.23437 -1.44141,0.23438 l -2.78906,0 c -0.23438,-1e-5 -0.40235,-0.0449 -0.5039,-0.13477 -0.10157,-0.0899 -0.15235,-0.20899 -0.15235,-0.35742 0,-0.14844 0.0508,-0.26953 0.15235,-0.36328 0.10155,-0.0937 0.26952,-0.14063 0.5039,-0.14063 l 2.82422,0.0117 c 0.57812,0 1.0996,-0.14844 1.56445,-0.44531 0.46484,-0.29688 0.8496,-0.73047 1.1543,-1.30078 0.17187,-0.32813 0.2578,-0.7461 0.25781,-1.25391 l 0,-2.95312 c -1.05469,1.44531 -2.41407,2.16797 -4.07812,2.16797 -1.35157,0 -2.51758,-0.50196 -3.49805,-1.50586 -0.98047,-1.00391 -1.4707,-2.21289 -1.4707,-3.62696 0,-1.41405 0.49023,-2.62108 1.4707,-3.62109 0.98047,-0.99999 2.14648,-1.49999 3.49805,-1.5 1.66405,10e-6 3.02343,0.71876 4.07812,2.15625 z m 0,2.96484 c -1e-5,-1.15624 -0.39649,-2.1328 -1.18945,-2.92968 -0.79298,-0.79687 -1.74024,-1.19531 -2.8418,-1.19532 -1.10156,10e-6 -2.04688,0.4004 -2.83593,1.20118 -0.78907,0.80078 -1.1836,1.77539 -1.1836,2.92382 0,1.15626 0.39453,2.13477 1.1836,2.93555 0.78905,0.80078 1.73437,1.20117 2.83593,1.20117 1.10156,0 2.04882,-0.40039 2.8418,-1.20117 0.79296,-0.80078 1.18944,-1.77929 1.18945,-2.93555 z"
         id="path3113"
         style="text-align:center;text-anchor:middle;stroke:#000000" />
      <path
         d="m 256.96484,325.10058 -10.03125,0 c 0.17188,1.27344 0.70508,2.29883 1.59961,3.07617 0.89453,0.77734 2.00195,1.16601 3.32227,1.16601 0.73437,0 1.5039,-0.12109 2.30859,-0.36328 0.80468,-0.24218 1.46093,-0.5625 1.96875,-0.96093 0.14843,-0.11719 0.27733,-0.17578 0.38672,-0.17579 0.12499,10e-6 0.23436,0.0488 0.32813,0.14649 0.0937,0.0977 0.14061,0.21289 0.14062,0.3457 -10e-6,0.13282 -0.0625,0.26172 -0.1875,0.38672 -0.37501,0.39063 -1.04103,0.75586 -1.99805,1.0957 -0.95704,0.33985 -1.93946,0.50977 -2.94726,0.50977 -1.68751,0 -3.09571,-0.55273 -4.22461,-1.6582 -1.12891,-1.10547 -1.69336,-2.44336 -1.69336,-4.01368 0,-1.42968 0.52929,-2.65624 1.58789,-3.67968 1.05859,-1.02343 2.36914,-1.53515 3.93164,-1.53516 1.60937,10e-6 2.93359,0.5254 3.97266,1.57617 1.03905,1.05079 1.55077,2.41212 1.53515,4.08399 z m -0.99609,-0.9961 c -0.19532,-1.08593 -0.709,-1.96874 -1.54102,-2.64843 -0.83204,-0.67968 -1.82227,-1.01953 -2.9707,-1.01954 -1.14844,10e-6 -2.13672,0.33595 -2.96484,1.00782 -0.82813,0.67188 -1.34376,1.5586 -1.54688,2.66015 z"
         id="path3115"
         style="text-align:center;text-anchor:middle;stroke:#000000" />
    </g>
    <path
       d="m 311.67385,593.80755 204.91661,0"
       id="path3943"
       style="fill:none;stroke:#000000;stroke-width:1px;stroke-linecap:butt;stroke-linejoin:miter;stroke-opacity:1" />
    <path
       d="M 265.9061,527.89032 374.09633,340.88601"
       id="path3969"
       style="fill:none;stroke:#000000;stroke-width:1px;stroke-linecap:butt;stroke-linejoin:miter;stroke-opacity:1" />
    <path
       d="M 564.09633,527.89032 455.9061,340.88601"
       id="path3971"
       style="fill:none;stroke:#000000;stroke-width:1px;stroke-linecap:butt;stroke-linejoin:miter;stroke-opacity:1" />
  </g>
</svg>
