<?xml version="1.0" encoding="UTF-8" standalone="no"?>
<!-- Created with Inkscape (http://www.inkscape.org/) -->

<svg
   xmlns:dc="http://purl.org/dc/elements/1.1/"
   xmlns:cc="http://creativecommons.org/ns#"
   xmlns:rdf="http://www.w3.org/1999/02/22-rdf-syntax-ns#"
   xmlns:svg="http://www.w3.org/2000/svg"
   xmlns="http://www.w3.org/2000/svg"
   xmlns:sodipodi="http://sodipodi.sourceforge.net/DTD/sodipodi-0.dtd"
   xmlns:inkscape="http://www.inkscape.org/namespaces/inkscape"
   width="426.26556"
   height="447.72644"
   id="svg2"
   version="1.1"
   inkscape:version="0.48.5 r10040"
   sodipodi:docname="WorkTriangle.svg">
  <defs
     id="defs4" />
  <sodipodi:namedview
     id="base"
     pagecolor="#ffffff"
     bordercolor="#666666"
     borderopacity="1.0"
     inkscape:pageopacity="0.0"
     inkscape:pageshadow="2"
     inkscape:zoom="7.9195959"
     inkscape:cx="233.75222"
     inkscape:cy="157.87584"
     inkscape:document-units="mm"
     inkscape:current-layer="layer1"
     showgrid="false"
     inkscape:window-width="1920"
     inkscape:window-height="1017"
     inkscape:window-x="-8"
     inkscape:window-y="-8"
     inkscape:window-maximized="1"
     fit-margin-top="0.5"
     fit-margin-bottom="0.5"
     fit-margin-left="0.5"
     fit-margin-right="0.5" />
  <metadata
     id="metadata7">
    <rdf:RDF>
      <cc:Work
         rdf:about="">
        <dc:format>image/svg+xml</dc:format>
        <dc:type
           rdf:resource="http://purl.org/dc/dcmitype/StillImage" />
        <dc:title></dc:title>
      </cc:Work>
    </rdf:RDF>
  </metadata>
  <g
     inkscape:label="Layer 1"
     inkscape:groupmode="layer"
     id="layer1"
     transform="translate(-179.7784,-333.51039)">
    <path
       style="fill:none;stroke:#000000;stroke-width:0.63919491;stroke-linecap:butt;stroke-linejoin:miter;stroke-miterlimit:4;stroke-opacity:1"
       inkscape:transform-center-x="4.0466469"
       inkscape:transform-center-y="-68.593419"
       d="m 181.43802,663.07902 c 1.70067,-13.8012 6.03062,-30.36641 12.3738,-48.62454 12.68637,-36.51624 33.42566,-79.80414 57.28947,-121.29493 47.72763,-82.98158 107.95337,-158.77476 141.25006,-158.82953 33.29669,-0.0548 93.77144,75.53989 141.77178,158.36403 24.00017,41.41206 44.88174,84.6315 57.68816,121.10582 6.40321,18.23715 10.78763,34.78803 12.53369,48.58356 0.87303,6.89777 1.08647,13.1067 0.6828,20.80644 l 0.11994,15.34904 0,26.07156 0,52.14313 c 0,2.02966 -1.16222,3.66364 -2.60586,3.66364 l -419.26057,0 c -1.44365,0 -2.60586,-1.63398 -2.60586,-3.66364 0,-26.07156 0,-52.14313 0,-78.21469 l 0.13028,-15.00037 c -0.41103,-7.34931 -0.21802,-13.55891 0.63231,-20.45952 z"
       id="path2989"
       inkscape:connector-curvature="0"
       sodipodi:nodetypes="ssssssscccssscccs" />
    <path
       sodipodi:nodetypes="sssss"
       inkscape:connector-curvature="0"
       id="path2995"
       d="m 202.17882,687.0271 c -15.30445,-26.40769 16.98927,-109.06354 60.73959,-185.12999 43.75033,-76.06645 98.95727,-145.54353 129.47923,-145.59372 61.04393,-0.10044 221.74074,277.18039 191.30573,330.09618 -30.43502,52.9158 -350.91564,53.44291 -381.52455,0.62753 z"
       inkscape:transform-center-y="-62.877297"
       inkscape:transform-center-x="3.709424"
       style="fill:none;stroke:#000000;stroke-width:0.58592868;stroke-linecap:butt;stroke-linejoin:miter;stroke-miterlimit:4;stroke-opacity:1" />
    <g
       style="font-size:40px;font-style:normal;font-weight:normal;line-height:125%;letter-spacing:0px;word-spacing:0px;fill:#000000;fill-opacity:1;stroke:none;font-family:Sans"
       id="text3049">
      <path
         d="m 221.26674,670.67828 0,7.14844 -2.63672,0 0,6.95313 -7.92969,0 0,-16.54297 c 0,-3.11196 0.96029,-5.68683 2.88086,-7.72461 1.92057,-2.03774 4.33919,-3.05662 7.25586,-3.05664 3.21613,2e-5 5.90493,1.38674 8.06641,4.16015 l -6.50391,4.7461 c -0.3646,-1.01561 -1.00913,-1.52342 -1.93359,-1.52344 -1.22397,2e-5 -1.83595,0.84637 -1.83594,2.53906 l 0,3.30078 z"
         style="font-family:Bauhaus 93;-inkscape-font-specification:Bauhaus 93"
         id="path3096" />
      <path
         d="m 240.6808,665.11188 0,7.8125 c -0.50782,-0.28645 -0.97006,-0.42968 -1.38672,-0.42969 -1.32813,10e-6 -1.99219,1.01564 -1.99218,3.04687 l 0,9.23829 -7.30469,0 0,-10.64454 c 0,-2.81248 0.76822,-5.05532 2.30469,-6.72851 1.53645,-1.67316 3.58723,-2.50975 6.15234,-2.50977 0.5729,2e-5 1.31509,0.0716 2.22656,0.21485 z"
         style="font-family:Bauhaus 93;-inkscape-font-specification:Bauhaus 93"
         id="path3098" />
      <path
         d="m 250.1144,665.30719 0,19.47266 -7.30469,0 0,-19.47266 z m -3.63282,-8.69141 c 0.98958,3e-5 1.8457,0.34834 2.56836,1.04493 0.72265,0.69664 1.08398,1.5202 1.08399,2.4707 -1e-5,1.01565 -0.34181,1.84898 -1.02539,2.5 -0.68361,0.65106 -1.55926,0.97658 -2.62696,0.97656 -1.06771,2e-5 -1.94336,-0.3255 -2.62695,-0.97656 -0.6836,-0.65102 -1.02539,-1.48435 -1.02539,-2.5 0,-0.9505 0.36132,-1.77406 1.08398,-2.4707 0.72266,-0.69659 1.57877,-1.0449 2.56836,-1.04493 z"
         style="font-family:Bauhaus 93;-inkscape-font-specification:Bauhaus 93"
         id="path3100" />
      <path
         d="m 266.44252,658.11969 7.30469,0 0,16.23047 c -2e-5,2.98178 -0.78127,5.41016 -2.34375,7.28515 -0.89846,1.08074 -2.04104,1.94011 -3.42774,2.57813 -1.38673,0.63802 -2.80925,0.95703 -4.26757,0.95703 -2.90366,0 -5.35157,-0.97656 -7.34375,-2.92969 -1.99219,-1.95312 -2.98829,-4.34895 -2.98829,-7.1875 0,-2.74738 0.98959,-5.12368 2.96875,-7.1289 1.97916,-2.00519 4.32291,-3.0078 7.03125,-3.00782 0.42968,2e-5 1.08072,0.0391 1.95313,0.11719 l 0,8.04688 c -0.59897,-0.46874 -1.19793,-0.70312 -1.79688,-0.70313 -0.75521,10e-6 -1.403,0.27671 -1.94336,0.83008 -0.54037,0.5534 -0.81055,1.22071 -0.81054,2.00195 -10e-6,0.75522 0.27994,1.40301 0.83984,1.94336 0.55989,0.54037 1.23046,0.81056 2.01172,0.81055 1.87499,10e-6 2.81249,-1.29556 2.8125,-3.88672 z"
         style="font-family:Bauhaus 93;-inkscape-font-specification:Bauhaus 93"
         id="path3102" />
      <path
         d="m 287.96596,676.7525 0,6.69922 c -1.0547,0.39063 -2.06381,0.58594 -3.02735,0.58594 -2.35677,0 -4.35221,-0.89193 -5.98632,-2.67578 -1.63412,-1.78385 -2.45118,-3.96484 -2.45118,-6.54297 0,-2.78645 0.98307,-5.1367 2.94922,-7.05078 1.96614,-1.91405 4.3815,-2.87108 7.2461,-2.8711 1.52342,2e-5 2.98175,0.30601 4.375,0.91797 1.39321,0.612 2.48696,1.43231 3.28125,2.46094 1.3281,1.70574 1.99216,4.1797 1.99218,7.42187 l 0,6.40625 c -2e-5,3.47657 -0.98634,6.29883 -2.95898,8.4668 -1.97267,2.16796 -4.54103,3.25195 -7.70508,3.25195 -0.96355,0 -2.181,-0.24089 -3.65234,-0.72265 l 0,-6.64063 c 0.95051,0.52083 1.91405,0.78125 2.89062,0.78125 1.3151,0 2.33072,-0.43294 3.04688,-1.29882 0.71613,-0.86589 1.0742,-2.10612 1.07422,-3.72071 l 0,-7.32422 c -2e-5,-2.04426 -0.82684,-3.06639 -2.48047,-3.0664 -0.70314,10e-6 -1.31837,0.27019 -1.84571,0.81054 -0.52735,0.54038 -0.79102,1.16212 -0.79101,1.86524 -1e-5,0.7422 0.25064,1.36068 0.75195,1.85547 0.50129,0.4948 1.12304,0.74219 1.86524,0.74218 0.49478,10e-6 0.97004,-0.11717 1.42578,-0.35156 z"
         style="font-family:Bauhaus 93;-inkscape-font-specification:Bauhaus 93"
         id="path3104" />
      <path
         d="m 319.76283,676.22516 -11.07422,0 c -0.16928,-0.55989 -0.25391,-1.07421 -0.2539,-1.54297 -10e-6,-0.65103 0.11718,-1.28905 0.35156,-1.91406 l 3.71094,0 c -0.26043,-1.4453 -1.07423,-2.16796 -2.44141,-2.16797 -0.91147,1e-5 -1.65365,0.38738 -2.22656,1.16211 -0.57293,0.77475 -0.85938,1.76759 -0.85938,2.97851 0,1.26303 0.27669,2.28517 0.83008,3.06641 0.55338,0.78126 1.27929,1.17188 2.17774,1.17187 0.72915,10e-6 1.43228,-0.36457 2.10937,-1.09375 l 4.16016,5 c -1.94012,1.52344 -4.09507,2.28516 -6.46485,2.28516 -2.89063,0 -5.31901,-0.97005 -7.28515,-2.91016 -1.96615,-1.94009 -2.94922,-4.34244 -2.94922,-7.20703 0,-2.85155 0.99284,-5.2604 2.97851,-7.22656 1.98568,-1.96613 4.42382,-2.9492 7.31446,-2.94922 2.8255,2e-5 5.19855,0.96031 7.11914,2.88086 1.92055,1.92059 2.88084,4.28712 2.88086,7.09961 -2e-5,0.28647 -0.0261,0.7422 -0.0781,1.36719 z"
         style="font-family:Bauhaus 93;-inkscape-font-specification:Bauhaus 93"
         id="path3106" />
    </g>
    <g
       style="font-size:40px;font-style:normal;font-weight:normal;line-height:125%;letter-spacing:0px;word-spacing:0px;fill:#000000;fill-opacity:1;stroke:none;font-family:Sans"
       id="text3049-1">
      <path
         d="m 501.35324,658.0025 0,7.59766 c -0.57293,-0.19529 -1.01564,-0.29295 -1.32812,-0.29297 -0.59898,2e-5 -1.1133,0.22137 -1.54297,0.66406 -0.4297,0.44273 -0.64455,0.97658 -0.64453,1.60156 -2e-5,0.53388 0.23436,1.21096 0.70312,2.03125 l 0.60547,1.05469 c 1.09374,1.90106 1.64061,3.73699 1.64062,5.50781 -1e-5,2.59116 -0.92123,4.78517 -2.76367,6.58204 -1.84246,1.79687 -4.0918,2.69531 -6.74804,2.69531 -1.27605,0 -2.53907,-0.29297 -3.78907,-0.87891 l 0,-7.71484 c 0.75521,0.48178 1.42578,0.72266 2.01172,0.72265 0.6901,10e-6 1.26627,-0.19856 1.72852,-0.5957 0.46223,-0.39713 0.69335,-0.89517 0.69336,-1.49414 -10e-6,-0.39061 -0.3711,-1.24348 -1.11328,-2.55859 -1.1849,-2.08332 -1.77735,-4.16665 -1.77735,-6.25 0,-2.513 0.89518,-4.67771 2.68555,-6.49414 1.79036,-1.81638 3.92903,-2.72459 6.41601,-2.72461 1.09374,2e-5 2.16796,0.18232 3.22266,0.54687 z"
         style="font-family:Bauhaus 93;-inkscape-font-specification:Bauhaus 93"
         id="path3118" />
      <path
         d="m 512.15402,665.30719 0,19.47266 -7.30469,0 0,-19.47266 z m -3.63281,-8.69141 c 0.98958,3e-5 1.8457,0.34834 2.56836,1.04493 0.72265,0.69664 1.08397,1.5202 1.08398,2.4707 -10e-6,1.01565 -0.3418,1.84898 -1.02539,2.5 -0.6836,0.65106 -1.55925,0.97658 -2.62695,0.97656 -1.06771,2e-5 -1.94336,-0.3255 -2.62695,-0.97656 -0.6836,-0.65102 -1.0254,-1.48435 -1.02539,-2.5 -1e-5,-0.9505 0.36132,-1.77406 1.08398,-2.4707 0.72265,-0.69659 1.57877,-1.0449 2.56836,-1.04493 z"
         style="font-family:Bauhaus 93;-inkscape-font-specification:Bauhaus 93"
         id="path3120" />
      <path
         d="m 533.85324,684.77985 -7.30469,0 0,-10.9961 c -10e-6,-1.11978 -0.46225,-1.67967 -1.38672,-1.67969 -0.91146,2e-5 -1.36719,0.55991 -1.36718,1.67969 l 0,10.9961 -7.30469,0 0,-10.85938 c 0,-2.53905 0.83984,-4.67772 2.51953,-6.41601 1.67968,-1.73827 3.73697,-2.60741 6.17188,-2.60743 2.78644,2e-5 5.01951,1.00914 6.69921,3.02735 1.31509,1.57553 1.97264,3.76954 1.97266,6.58203 z"
         style="font-family:Bauhaus 93;-inkscape-font-specification:Bauhaus 93"
         id="path3122" />
      <path
         d="m 545.43527,658.11969 0,26.66016 -7.30469,0 0,-26.66016 z m 11.19141,7.1875 -3.57422,7.08984 5.3125,12.38282 -8.08594,0 -4.57031,-12.71485 3.32031,-6.75781 z"
         style="font-family:Bauhaus 93;-inkscape-font-specification:Bauhaus 93"
         id="path3124" />
    </g>
    <g
       style="font-size:40px;font-style:normal;font-weight:normal;line-height:125%;letter-spacing:0px;word-spacing:0px;fill:#000000;fill-opacity:1;stroke:none;font-family:Sans"
       id="text3049-1-4">
      <path
         d="m 364.07327,398.85635 c 3.77603,3e-5 7.01495,1.37373 9.7168,4.1211 2.70179,2.74741 4.0527,6.03517 4.05273,9.86328 -3e-5,3.89324 -1.3607,7.20053 -4.08203,9.92187 -2.72137,2.72136 -6.02866,4.08203 -9.92187,4.08204 -3.8672,-1e-5 -7.16798,-1.36719 -9.90235,-4.10157 -2.73437,-2.73437 -4.10156,-6.03514 -4.10156,-9.90234 0,-3.90623 1.37695,-7.21352 4.13086,-9.92188 2.7539,-2.7083 6.12304,-4.06247 10.10742,-4.0625 z m -0.23437,7.85157 c -1.62762,2e-5 -3.01434,0.59897 -4.16016,1.79687 -1.14584,1.19793 -1.71876,2.64325 -1.71875,4.33594 -1e-5,1.69272 0.57616,3.13803 1.72852,4.33594 1.15233,1.19792 2.53579,1.79688 4.15039,1.79687 1.64061,10e-6 3.03058,-0.59569 4.16992,-1.78711 1.1393,-1.19139 1.70896,-2.63996 1.70898,-4.3457 -2e-5,-1.70572 -0.56968,-3.15428 -1.70898,-4.3457 -1.13934,-1.19139 -2.52931,-1.78709 -4.16992,-1.78711 z"
         style="font-family:Bauhaus 93;-inkscape-font-specification:Bauhaus 93"
         id="path3109" />
      <path
         d="m 395.67484,406.70792 -9.10157,20.23437 -8.98437,-20.23437 6.97265,0 2.07032,5.2539 2.26562,-5.2539 z"
         style="font-family:Bauhaus 93;-inkscape-font-specification:Bauhaus 93"
         id="path3111" />
      <path
         d="m 415.57718,417.62589 -11.07422,0 c -0.16928,-0.55989 -0.25392,-1.07421 -0.25391,-1.54297 -1e-5,-0.65103 0.11718,-1.28905 0.35157,-1.91407 l 3.71093,0 c -0.26043,-1.4453 -1.07423,-2.16795 -2.4414,-2.16796 -0.91147,10e-6 -1.65366,0.38738 -2.22656,1.1621 -0.57293,0.77476 -0.85939,1.76759 -0.85938,2.97852 -10e-6,1.26303 0.27668,2.28516 0.83008,3.06641 0.55337,0.78125 1.27928,1.17188 2.17773,1.17187 0.72916,10e-6 1.43228,-0.36458 2.10938,-1.09375 l 4.16015,5 c -1.94012,1.52344 -4.09506,2.28516 -6.46484,2.28516 -2.89063,0 -5.31902,-0.97005 -7.28516,-2.91016 -1.96614,-1.9401 -2.94922,-4.34244 -2.94921,-7.20703 -1e-5,-2.85155 0.99283,-5.2604 2.97851,-7.22656 1.98567,-1.96613 4.42382,-2.9492 7.31445,-2.94922 2.82551,2e-5 5.19856,0.9603 7.11914,2.88086 1.92056,1.92059 2.88084,4.28712 2.88086,7.09961 -2e-5,0.28647 -0.0261,0.74219 -0.0781,1.36719 z"
         style="font-family:Bauhaus 93;-inkscape-font-specification:Bauhaus 93"
         id="path3113" />
      <path
         d="m 435.98734,426.18057 -7.30469,0 0,-10.99609 c -1e-5,-1.11978 -0.46225,-1.67968 -1.38672,-1.67969 -0.91147,10e-6 -1.3672,0.55991 -1.36719,1.67969 l 0,10.99609 -7.30469,0 0,-10.85937 c 0,-2.53905 0.83984,-4.67772 2.51954,-6.41602 1.67968,-1.73826 3.73697,-2.6074 6.17187,-2.60742 2.78644,2e-5 5.01952,1.00913 6.69922,3.02734 1.31508,1.57554 1.97264,3.76955 1.97266,6.58204 z"
         style="font-family:Bauhaus 93;-inkscape-font-specification:Bauhaus 93"
         id="path3115" />
    </g>
    <path
       style="fill:none;stroke:#0000ff;stroke-width:0.35433072;stroke-linecap:butt;stroke-linejoin:miter;stroke-miterlimit:4;stroke-opacity:1;stroke-dasharray:none"
       d="m 266.07143,257.19073 c -11.08018,-27.42703 -88.09246,-32.19707 -108.92857,2.32142 -8.73861,17.54574 -8.80665,34.89442 3.39285,51.96429 21.32211,32.41627 88.08237,28.38284 102.32143,3.03571 12.50051,-18.06813 12.69964,-35.56626 3.21429,-57.32142 z"
       id="path3894"
       inkscape:connector-curvature="0"
       transform="translate(179.7784,333.51039)"
       sodipodi:nodetypes="ccccc" />
    <path
       style="fill:none;stroke:#0000ff;stroke-width:0.35433072;stroke-linecap:butt;stroke-linejoin:miter;stroke-miterlimit:4;stroke-opacity:1;stroke-dasharray:none"
       d="m 338.52315,576.15543 c 1.40857,-3.65762 4.05582,-5.66366 6.96428,-7.32143 1.0638,-1.59509 3.48407,-2.54765 1.60714,-5.53572 -1.61651,-1.41608 -4.99733,-3.46822 -3.21428,-6.42857 -0.33948,-1.27121 -0.42284,-3.1944 -2.54147,0.0631 -2.2598,5.90313 -3.5105,11.97445 -3.75,18.21429 -0.19115,2.66684 0.33359,1.35062 0.93433,1.0083 z"
       id="path3896"
       inkscape:connector-curvature="0"
       sodipodi:nodetypes="ccccccc" />
    <path
       style="fill:none;stroke:#000000;stroke-width:0.35433072;stroke-linecap:butt;stroke-linejoin:miter;stroke-miterlimit:4;stroke-opacity:1;stroke-dasharray:none"
       d="m 184.64286,229.69073 c 3.14529,-2.39294 5.64977,-1.4121 8.21614,-2.73274 2.46558,-1.26877 -1.12559,-10.14622 -5.50694,-16.48985 -1.61231,-2.50344 -3.38112,-1.62311 -1.98409,0.50322 2.36706,2.15075 2.23183,5.65966 -0.54654,9.43365 -4.95887,5.70822 -2.64238,11.1602 -0.17857,9.28572 z"
       id="path3898"
       inkscape:connector-curvature="0"
       transform="translate(179.7784,333.51039)"
       sodipodi:nodetypes="sscccs" />
    <path
       style="fill:none;stroke:#000000;stroke-width:0.35433072;stroke-linecap:butt;stroke-linejoin:miter;stroke-miterlimit:4;stroke-opacity:1;stroke-dasharray:none"
       d="m 207.67857,224.8693 c 1.64386,1.51661 8.77052,-2.10148 16.42857,1.42857 4.86304,2.24166 -3.47444,-10.08679 -6.60714,-14.64286 -3.65137,-7.67961 -6.19268,-9.87802 -0.53571,-16.78571 2.92326,-3.91349 -0.49937,-3.19636 -2.60461,-1.15252 -6.60178,9.43315 -14.48683,23.95103 -6.68111,31.15252 z"
       id="path3900"
       inkscape:connector-curvature="0"
       transform="translate(179.7784,333.51039)"
       sodipodi:nodetypes="sscccs" />
    <path
       style="fill:none;stroke:#000000;stroke-width:0.35433072;stroke-linecap:butt;stroke-linejoin:miter;stroke-miterlimit:4;stroke-opacity:1;stroke-dasharray:none"
       d="m 237.5,228.08358 c 0.7813,0.0648 3.50364,0.23616 6.25,1.96429 2.38121,1.49836 0.30895,-5.67744 -0.89286,-8.39286 0.14685,-2.83412 -0.071,-5.81413 2.5,-7.67857 2.37126,-3.62126 0.47596,-2.97596 -1.60714,-2.14286 -6.78353,5.03298 -12.03361,15.76998 -6.25,16.25 z"
       id="path3902"
       inkscape:connector-curvature="0"
       transform="translate(179.7784,333.51039)"
       sodipodi:nodetypes="sscccs" />
    <path
       style="fill:none;stroke:#000000;stroke-width:0.29055119;stroke-linecap:butt;stroke-linejoin:miter;stroke-miterlimit:4;stroke-opacity:1;stroke-dasharray:none"
       d="m 265.00898,242.29533 c -12.98148,-4.6037 -11.29679,-7.96476 -5.35715,-24.10714 0.54793,-1.35055 1.95955,-2.87282 2.6696,-0.81889 -0.40367,5.00465 -2.01231,10.1298 0.71428,14.82143 2.8393,3.82976 5.42789,11.32973 1.97327,10.1046 z"
       id="path3904"
       inkscape:connector-curvature="0"
       transform="translate(179.7784,333.51039)"
       sodipodi:nodetypes="scccs" />
    <path
       style="fill:none;stroke:#000000;stroke-width:0.35433072;stroke-linecap:butt;stroke-linejoin:miter;stroke-miterlimit:4;stroke-opacity:1;stroke-dasharray:none"
       d="m 230.17857,204.8693 c 9.7653,-15.86078 5.26456,-14.98065 4.10714,-18.57143 -0.6186,-0.63639 -1.21238,-1.35554 -2.32142,-0.35714 -4.68844,5.46707 -2.28043,12.35343 -3.21429,18.57142 0.36551,0.72782 0.73411,1.43857 1.42857,0.35715 z"
       id="path3906"
       inkscape:connector-curvature="0"
       transform="translate(179.7784,333.51039)"
       sodipodi:nodetypes="ccccc" />
    <path
       style="fill:none;stroke:#000000;stroke-width:0.29055119;stroke-linecap:butt;stroke-linejoin:miter;stroke-miterlimit:4;stroke-opacity:1;stroke-dasharray:none"
       d="m 286.55484,288.14486 c -13.96968,75.76563 -130.23776,68.5935 -146.91198,2.43872 -3.09785,-12.29068 -5.2486,-25.29352 -3.57143,-37.85714 2.14095,-16.03777 -6.44123,-25.96157 -11.89032,-28.86729 -1.60001,-0.85321 -1.54423,-2.82514 -0.12999,-3.23224 8.63757,-2.48634 20.03251,4.54767 24.52031,13.88524 3.19947,6.657 5.26446,3.28384 3.21428,-1.07142 -7.62253,-16.19276 -5.44896,-31.89803 2.5,-42.14286 0.72978,-0.94056 1.86995,-1.14872 2.18247,0 2.22746,8.18739 16.65637,17.37584 17.81753,17.85714 2.44062,1.01163 2.34297,-1.15726 2.47834,-2.26913 1.807,-14.84104 -6.47416,-32.58919 -10.69262,-36.3023 -0.88463,-0.77866 -1.27783,-3.25999 -0.53046,-3.13135 18.93531,3.25947 21.35477,7.32962 27.37745,11.15438 3.84259,2.44027 4.18868,-1.08364 3.51015,-2.30874 -9.33399,-16.85254 -4.72795,-55.39592 15.35714,-65 5.09334,-2.43548 8.78272,0.14464 3.92858,2.85714 -6.43705,3.59704 0.23199,50.74554 23.34426,67.94008 1.14617,0.8527 3.10789,-0.13244 3.1493,-1.26269 0.14765,-4.02981 -0.32523,-15.55831 -3.27928,-20.60596 -2.06127,-3.52213 1.30659,-5.0886 4.28572,-1.42857 26.02487,31.97308 16.67229,35.86785 18.21428,40.35714 0.46568,1.35577 3.04601,2.04841 3.02303,0.98849 -0.1071,-4.93973 11.48967,-13.79124 19.83411,-15.98849 9.11765,-2.40086 6.93142,2.43873 2.62627,5.718 -6.28229,4.78529 -8.57804,32.04828 -11.19769,47.13914 -0.15903,0.91609 1.33469,2.95594 1.78571,2.14286 3.6006,-6.49103 13.43999,-9.15207 23.88896,-12.95803 3.21731,-1.17188 4.05924,0.24015 0.0396,2.60089 -22.84442,13.41661 -11.01688,38.42905 -14.87373,59.34699 z"
       id="path3910"
       inkscape:connector-curvature="0"
       transform="translate(179.7784,333.51039)"
       sodipodi:nodetypes="ssssssssssssssssssssssssssssss" />
    <path
       inkscape:connector-curvature="0"
       d="m 380.97735,626.9213 c 0.009,0.009 0.0351,0.0117 0.0556,0.003 0.0234,-0.009 0.0146,-0.0176 -0.0176,-0.0176 -0.0322,-0.003 -0.0498,0.006 -0.0381,0.0146 z"
       id="path3980" />
    <path
       inkscape:connector-curvature="0"
       d="m 380.91877,628.03426 c 0.009,0.009 0.0351,0.0117 0.0556,0.003 0.0234,-0.009 0.0146,-0.0176 -0.0176,-0.0176 -0.0322,-0.003 -0.0498,0.006 -0.0381,0.0146 z"
       id="path3982" />
  </g>
</svg>
